STARTFONT 2.1
FONT -FontForge-Rajdhani-Book-R-Normal--11-110-72-72-P-67-ISO10646-1
SIZE 11 72 72
FONTBOUNDINGBOX 27 15 -5 -4
COMMENT "Generated by fontforge, http://fontforge.sourceforge.net"
COMMENT "Copyright (c) 2014 Indian Type Foundry (info@indiantypefoundry.com)"
STARTPROPERTIES 40
FOUNDRY "FontForge"
FAMILY_NAME "Rajdhani"
WEIGHT_NAME "Book"
SLANT "R"
SETWIDTH_NAME "Normal"
ADD_STYLE_NAME ""
PIXEL_SIZE 11
POINT_SIZE 110
RESOLUTION_X 72
RESOLUTION_Y 72
SPACING "P"
AVERAGE_WIDTH 67
CHARSET_REGISTRY "ISO10646"
CHARSET_ENCODING "1"
FONTNAME_REGISTRY ""
CHARSET_COLLECTIONS "ISO8859-2 ISO8859-9 ISO8859-4 ISO10646-1"
FONT_NAME "Rajdhani-Regular"
FACE_NAME "Rajdhani Regular"
COPYRIGHT "Copyright (c) 2014 Indian Type Foundry (info@indiantypefoundry.com)"
FONT_VERSION "1.201;PS 1.0;hotconv 1.0.78;makeotf.lib2.5.61930; ttfautohint (v1.1) -l 7 -r 28 -G 50 -x 13 -D latn -f deva -w G"
FONT_ASCENT 9
FONT_DESCENT 2
UNDERLINE_POSITION -1
UNDERLINE_THICKNESS 1
X_HEIGHT 5
CAP_HEIGHT 7
DEFAULT_CHAR 3
RAW_ASCENT 800
RAW_DESCENT 200
NORM_SPACE 3
RELATIVE_WEIGHT 40
RELATIVE_SETWIDTH 50
SUPERSCRIPT_X 0
SUPERSCRIPT_Y 3
SUPERSCRIPT_SIZE 6
SUBSCRIPT_X 0
SUBSCRIPT_Y 0
SUBSCRIPT_SIZE 6
AVG_LOWERCASE_WIDTH 50
AVG_UPPERCASE_WIDTH 57
ENDPROPERTIES
CHARS 1043
STARTCHAR NULL.dup1
ENCODING 0
SWIDTH 0 0
DWIDTH 0 0
BBX 1 1 0 0
BITMAP
00
ENDCHAR
STARTCHAR CR
ENCODING 13
SWIDTH 0 0
DWIDTH 0 0
BBX 1 1 0 0
BITMAP
00
ENDCHAR
STARTCHAR space
ENCODING 32
SWIDTH 267 0
DWIDTH 3 0
BBX 1 1 0 0
BITMAP
00
ENDCHAR
STARTCHAR exclam
ENCODING 33
SWIDTH 237 0
DWIDTH 3 0
BBX 1 8 1 0
BITMAP
80
80
80
80
80
00
80
80
ENDCHAR
STARTCHAR quotedbl
ENCODING 34
SWIDTH 330 0
DWIDTH 4 0
BBX 2 2 1 6
BITMAP
C0
C0
ENDCHAR
STARTCHAR numbersign
ENCODING 35
SWIDTH 677 0
DWIDTH 7 0
BBX 6 8 1 0
BITMAP
28
28
FC
48
50
F8
90
90
ENDCHAR
STARTCHAR dollar
ENCODING 36
SWIDTH 504 0
DWIDTH 6 0
BBX 4 10 1 -1
BITMAP
40
E0
90
90
80
E0
10
90
E0
40
ENDCHAR
STARTCHAR percent
ENCODING 37
SWIDTH 717 0
DWIDTH 8 0
BBX 6 8 1 0
BITMAP
C8
B0
B0
D0
2C
34
54
4C
ENDCHAR
STARTCHAR ampersand
ENCODING 38
SWIDTH 597 0
DWIDTH 7 0
BBX 5 8 1 0
BITMAP
60
90
90
40
F8
A0
90
E8
ENDCHAR
STARTCHAR quotesingle
ENCODING 39
SWIDTH 186 0
DWIDTH 2 0
BBX 1 2 1 6
BITMAP
80
80
ENDCHAR
STARTCHAR parenleft
ENCODING 40
SWIDTH 283 0
DWIDTH 3 0
BBX 1 9 1 -1
BITMAP
80
80
80
80
80
80
80
80
80
ENDCHAR
STARTCHAR parenright
ENCODING 41
SWIDTH 283 0
DWIDTH 3 0
BBX 1 9 1 -1
BITMAP
80
80
80
80
80
80
80
80
80
ENDCHAR
STARTCHAR asterisk
ENCODING 42
SWIDTH 406 0
DWIDTH 4 0
BBX 3 3 1 5
BITMAP
40
E0
C0
ENDCHAR
STARTCHAR plus
ENCODING 43
SWIDTH 523 0
DWIDTH 6 0
BBX 4 5 1 1
BITMAP
40
40
F0
40
40
ENDCHAR
STARTCHAR comma
ENCODING 44
SWIDTH 191 0
DWIDTH 2 0
BBX 1 3 1 -1
BITMAP
80
80
80
ENDCHAR
STARTCHAR hyphen
ENCODING 45
SWIDTH 312 0
DWIDTH 3 0
BBX 3 1 0 3
BITMAP
E0
ENDCHAR
STARTCHAR period
ENCODING 46
SWIDTH 191 0
DWIDTH 2 0
BBX 1 2 1 0
BITMAP
80
80
ENDCHAR
STARTCHAR slash
ENCODING 47
SWIDTH 396 0
DWIDTH 4 0
BBX 3 8 1 0
BITMAP
20
40
40
40
40
80
80
80
ENDCHAR
STARTCHAR zero
ENCODING 48
SWIDTH 514 0
DWIDTH 6 0
BBX 4 8 1 0
BITMAP
F0
90
90
90
90
90
90
F0
ENDCHAR
STARTCHAR one
ENCODING 49
SWIDTH 317 0
DWIDTH 3 0
BBX 3 8 0 0
BITMAP
60
A0
20
20
20
20
20
20
ENDCHAR
STARTCHAR two
ENCODING 50
SWIDTH 478 0
DWIDTH 5 0
BBX 4 8 1 0
BITMAP
E0
90
10
20
40
80
80
F0
ENDCHAR
STARTCHAR three
ENCODING 51
SWIDTH 496 0
DWIDTH 5 0
BBX 4 8 1 0
BITMAP
E0
90
90
10
60
10
90
E0
ENDCHAR
STARTCHAR four
ENCODING 52
SWIDTH 520 0
DWIDTH 6 0
BBX 5 8 0 0
BITMAP
10
10
28
28
48
48
F8
08
ENDCHAR
STARTCHAR five
ENCODING 53
SWIDTH 482 0
DWIDTH 5 0
BBX 4 8 1 0
BITMAP
F0
80
80
E0
10
10
90
E0
ENDCHAR
STARTCHAR six
ENCODING 54
SWIDTH 497 0
DWIDTH 5 0
BBX 4 8 1 0
BITMAP
E0
80
80
E0
90
90
90
E0
ENDCHAR
STARTCHAR seven
ENCODING 55
SWIDTH 380 0
DWIDTH 4 0
BBX 4 8 0 0
BITMAP
F0
10
10
20
20
20
40
40
ENDCHAR
STARTCHAR eight
ENCODING 56
SWIDTH 519 0
DWIDTH 6 0
BBX 4 8 1 0
BITMAP
F0
90
90
90
60
90
90
F0
ENDCHAR
STARTCHAR nine
ENCODING 57
SWIDTH 497 0
DWIDTH 5 0
BBX 4 8 1 0
BITMAP
E0
90
90
90
F0
10
10
E0
ENDCHAR
STARTCHAR colon
ENCODING 58
SWIDTH 191 0
DWIDTH 2 0
BBX 1 6 1 0
BITMAP
80
80
00
00
80
80
ENDCHAR
STARTCHAR semicolon
ENCODING 59
SWIDTH 191 0
DWIDTH 2 0
BBX 1 7 1 -1
BITMAP
80
80
00
00
80
80
80
ENDCHAR
STARTCHAR less
ENCODING 60
SWIDTH 513 0
DWIDTH 6 0
BBX 4 4 1 2
BITMAP
10
60
C0
30
ENDCHAR
STARTCHAR equal
ENCODING 61
SWIDTH 531 0
DWIDTH 6 0
BBX 4 3 1 2
BITMAP
F0
00
F0
ENDCHAR
STARTCHAR greater
ENCODING 62
SWIDTH 531 0
DWIDTH 6 0
BBX 4 4 1 2
BITMAP
80
60
30
C0
ENDCHAR
STARTCHAR question
ENCODING 63
SWIDTH 473 0
DWIDTH 5 0
BBX 3 8 1 0
BITMAP
E0
A0
20
20
40
40
40
40
ENDCHAR
STARTCHAR at
ENCODING 64
SWIDTH 753 0
DWIDTH 8 0
BBX 6 8 1 -1
BITMAP
7C
BC
CC
CC
CC
BC
80
78
ENDCHAR
STARTCHAR A
ENCODING 65
SWIDTH 533 0
DWIDTH 6 0
BBX 6 8 0 0
BITMAP
20
30
30
48
48
78
88
84
ENDCHAR
STARTCHAR B
ENCODING 66
SWIDTH 546 0
DWIDTH 6 0
BBX 4 8 1 0
BITMAP
F0
90
90
90
E0
90
90
F0
ENDCHAR
STARTCHAR C
ENCODING 67
SWIDTH 542 0
DWIDTH 6 0
BBX 4 8 1 0
BITMAP
F0
90
90
80
80
80
90
F0
ENDCHAR
STARTCHAR D
ENCODING 68
SWIDTH 557 0
DWIDTH 6 0
BBX 4 8 1 0
BITMAP
F0
90
90
90
90
90
90
F0
ENDCHAR
STARTCHAR E
ENCODING 69
SWIDTH 481 0
DWIDTH 5 0
BBX 4 8 1 0
BITMAP
F0
80
80
80
E0
80
80
F0
ENDCHAR
STARTCHAR F
ENCODING 70
SWIDTH 459 0
DWIDTH 5 0
BBX 4 8 1 0
BITMAP
F0
80
80
80
E0
80
80
80
ENDCHAR
STARTCHAR G
ENCODING 71
SWIDTH 539 0
DWIDTH 6 0
BBX 4 8 1 0
BITMAP
F0
90
90
80
B0
90
90
F0
ENDCHAR
STARTCHAR H
ENCODING 72
SWIDTH 570 0
DWIDTH 6 0
BBX 4 8 1 0
BITMAP
90
90
90
90
F0
90
90
90
ENDCHAR
STARTCHAR I
ENCODING 73
SWIDTH 230 0
DWIDTH 3 0
BBX 1 8 1 0
BITMAP
80
80
80
80
80
80
80
80
ENDCHAR
STARTCHAR J
ENCODING 74
SWIDTH 499 0
DWIDTH 5 0
BBX 5 8 0 0
BITMAP
08
08
08
08
08
88
88
70
ENDCHAR
STARTCHAR K
ENCODING 75
SWIDTH 530 0
DWIDTH 6 0
BBX 5 8 1 0
BITMAP
90
A0
A0
C0
A0
A0
90
98
ENDCHAR
STARTCHAR L
ENCODING 76
SWIDTH 451 0
DWIDTH 5 0
BBX 4 8 1 0
BITMAP
80
80
80
80
80
80
80
F0
ENDCHAR
STARTCHAR M
ENCODING 77
SWIDTH 696 0
DWIDTH 8 0
BBX 6 8 1 0
BITMAP
84
8C
CC
D4
B4
A4
84
84
ENDCHAR
STARTCHAR N
ENCODING 78
SWIDTH 579 0
DWIDTH 6 0
BBX 4 8 1 0
BITMAP
90
90
D0
D0
B0
B0
90
90
ENDCHAR
STARTCHAR O
ENCODING 79
SWIDTH 553 0
DWIDTH 6 0
BBX 4 8 1 0
BITMAP
F0
90
90
90
90
90
90
F0
ENDCHAR
STARTCHAR P
ENCODING 80
SWIDTH 524 0
DWIDTH 6 0
BBX 4 8 1 0
BITMAP
F0
90
90
90
F0
80
80
80
ENDCHAR
STARTCHAR Q
ENCODING 81
SWIDTH 556 0
DWIDTH 6 0
BBX 4 10 1 -2
BITMAP
F0
90
90
90
90
90
90
F0
20
10
ENDCHAR
STARTCHAR R
ENCODING 82
SWIDTH 534 0
DWIDTH 6 0
BBX 4 8 1 0
BITMAP
F0
90
90
90
E0
A0
90
90
ENDCHAR
STARTCHAR S
ENCODING 83
SWIDTH 562 0
DWIDTH 6 0
BBX 4 8 1 0
BITMAP
F0
90
80
C0
30
10
90
F0
ENDCHAR
STARTCHAR T
ENCODING 84
SWIDTH 420 0
DWIDTH 5 0
BBX 4 8 0 0
BITMAP
F0
20
20
20
20
20
20
20
ENDCHAR
STARTCHAR U
ENCODING 85
SWIDTH 552 0
DWIDTH 6 0
BBX 4 8 1 0
BITMAP
90
90
90
90
90
90
90
F0
ENDCHAR
STARTCHAR V
ENCODING 86
SWIDTH 500 0
DWIDTH 6 0
BBX 5 8 0 0
BITMAP
88
88
48
48
50
30
20
20
ENDCHAR
STARTCHAR W
ENCODING 87
SWIDTH 794 0
DWIDTH 9 0
BBX 8 8 0 0
BITMAP
89
99
55
55
55
65
66
22
ENDCHAR
STARTCHAR X
ENCODING 88
SWIDTH 504 0
DWIDTH 6 0
BBX 5 8 0 0
BITMAP
88
48
50
20
20
50
48
88
ENDCHAR
STARTCHAR Y
ENCODING 89
SWIDTH 493 0
DWIDTH 5 0
BBX 5 8 0 0
BITMAP
88
48
50
30
20
20
20
20
ENDCHAR
STARTCHAR Z
ENCODING 90
SWIDTH 482 0
DWIDTH 5 0
BBX 5 8 0 0
BITMAP
78
10
10
20
20
40
40
F8
ENDCHAR
STARTCHAR bracketleft
ENCODING 91
SWIDTH 287 0
DWIDTH 3 0
BBX 1 9 1 -1
BITMAP
80
80
80
80
80
80
80
80
80
ENDCHAR
STARTCHAR backslash
ENCODING 92
SWIDTH 396 0
DWIDTH 4 0
BBX 3 8 1 0
BITMAP
80
80
80
40
40
40
40
20
ENDCHAR
STARTCHAR bracketright
ENCODING 93
SWIDTH 287 0
DWIDTH 3 0
BBX 1 9 1 -1
BITMAP
80
80
80
80
80
80
80
80
80
ENDCHAR
STARTCHAR asciicircum
ENCODING 94
SWIDTH 465 0
DWIDTH 5 0
BBX 3 3 1 5
BITMAP
40
A0
A0
ENDCHAR
STARTCHAR underscore
ENCODING 95
SWIDTH 372 0
DWIDTH 4 0
BBX 4 1 0 -1
BITMAP
F0
ENDCHAR
STARTCHAR grave
ENCODING 96
SWIDTH 269 0
DWIDTH 3 0
BBX 1 1 1 7
BITMAP
80
ENDCHAR
STARTCHAR a
ENCODING 97
SWIDTH 502 0
DWIDTH 6 0
BBX 4 6 1 0
BITMAP
F0
90
90
90
90
F0
ENDCHAR
STARTCHAR b
ENCODING 98
SWIDTH 504 0
DWIDTH 6 0
BBX 4 8 1 0
BITMAP
80
80
E0
90
90
90
90
E0
ENDCHAR
STARTCHAR c
ENCODING 99
SWIDTH 394 0
DWIDTH 4 0
BBX 3 6 1 0
BITMAP
E0
80
80
80
80
E0
ENDCHAR
STARTCHAR d
ENCODING 100
SWIDTH 504 0
DWIDTH 6 0
BBX 4 8 1 0
BITMAP
10
10
F0
90
90
90
90
F0
ENDCHAR
STARTCHAR e
ENCODING 101
SWIDTH 492 0
DWIDTH 5 0
BBX 4 6 1 0
BITMAP
E0
90
90
F0
80
F0
ENDCHAR
STARTCHAR f
ENCODING 102
SWIDTH 303 0
DWIDTH 3 0
BBX 3 8 0 0
BITMAP
20
40
E0
40
40
40
40
40
ENDCHAR
STARTCHAR g
ENCODING 103
SWIDTH 506 0
DWIDTH 6 0
BBX 4 8 1 -2
BITMAP
F0
90
90
90
90
F0
10
E0
ENDCHAR
STARTCHAR h
ENCODING 104
SWIDTH 507 0
DWIDTH 6 0
BBX 4 8 1 0
BITMAP
80
80
E0
90
90
90
90
90
ENDCHAR
STARTCHAR i
ENCODING 105
SWIDTH 210 0
DWIDTH 2 0
BBX 1 8 1 0
BITMAP
80
00
80
80
80
80
80
80
ENDCHAR
STARTCHAR j
ENCODING 106
SWIDTH 210 0
DWIDTH 2 0
BBX 2 10 -1 -2
BITMAP
40
00
40
40
40
40
40
40
40
C0
ENDCHAR
STARTCHAR k
ENCODING 107
SWIDTH 431 0
DWIDTH 5 0
BBX 4 8 1 0
BITMAP
80
80
A0
A0
C0
C0
A0
90
ENDCHAR
STARTCHAR l
ENCODING 108
SWIDTH 210 0
DWIDTH 2 0
BBX 1 8 1 0
BITMAP
80
80
80
80
80
80
80
80
ENDCHAR
STARTCHAR m
ENCODING 109
SWIDTH 769 0
DWIDTH 8 0
BBX 7 6 1 0
BITMAP
EC
92
92
92
92
92
ENDCHAR
STARTCHAR n
ENCODING 110
SWIDTH 507 0
DWIDTH 6 0
BBX 4 6 1 0
BITMAP
E0
90
90
90
90
90
ENDCHAR
STARTCHAR o
ENCODING 111
SWIDTH 496 0
DWIDTH 5 0
BBX 4 6 1 0
BITMAP
E0
90
90
90
90
E0
ENDCHAR
STARTCHAR p
ENCODING 112
SWIDTH 504 0
DWIDTH 6 0
BBX 4 8 1 -2
BITMAP
E0
90
90
90
90
E0
80
80
ENDCHAR
STARTCHAR q
ENCODING 113
SWIDTH 502 0
DWIDTH 6 0
BBX 4 8 1 -2
BITMAP
F0
90
90
90
90
F0
10
10
ENDCHAR
STARTCHAR r
ENCODING 114
SWIDTH 313 0
DWIDTH 3 0
BBX 2 6 1 0
BITMAP
C0
80
80
80
80
80
ENDCHAR
STARTCHAR s
ENCODING 115
SWIDTH 431 0
DWIDTH 5 0
BBX 3 6 1 0
BITMAP
E0
80
C0
20
20
E0
ENDCHAR
STARTCHAR t
ENCODING 116
SWIDTH 347 0
DWIDTH 4 0
BBX 3 7 0 0
BITMAP
40
E0
40
40
40
40
20
ENDCHAR
STARTCHAR u
ENCODING 117
SWIDTH 507 0
DWIDTH 6 0
BBX 4 6 1 0
BITMAP
90
90
90
90
90
F0
ENDCHAR
STARTCHAR v
ENCODING 118
SWIDTH 416 0
DWIDTH 5 0
BBX 4 6 0 0
BITMAP
90
90
50
50
60
20
ENDCHAR
STARTCHAR w
ENCODING 119
SWIDTH 683 0
DWIDTH 8 0
BBX 7 6 0 0
BITMAP
92
92
5A
6A
6C
24
ENDCHAR
STARTCHAR x
ENCODING 120
SWIDTH 413 0
DWIDTH 5 0
BBX 4 6 0 0
BITMAP
90
50
20
20
50
90
ENDCHAR
STARTCHAR y
ENCODING 121
SWIDTH 459 0
DWIDTH 5 0
BBX 5 8 0 -2
BITMAP
88
48
50
50
50
20
20
40
ENDCHAR
STARTCHAR z
ENCODING 122
SWIDTH 405 0
DWIDTH 4 0
BBX 4 6 0 0
BITMAP
F0
10
20
40
40
F0
ENDCHAR
STARTCHAR braceleft
ENCODING 123
SWIDTH 298 0
DWIDTH 3 0
BBX 3 9 0 -1
BITMAP
60
40
40
40
80
40
40
40
20
ENDCHAR
STARTCHAR bar
ENCODING 124
SWIDTH 207 0
DWIDTH 2 0
BBX 1 8 1 0
BITMAP
80
80
80
80
80
80
80
80
ENDCHAR
STARTCHAR braceright
ENCODING 125
SWIDTH 298 0
DWIDTH 3 0
BBX 3 9 0 -1
BITMAP
C0
40
40
40
20
40
40
40
80
ENDCHAR
STARTCHAR asciitilde
ENCODING 126
SWIDTH 523 0
DWIDTH 6 0
BBX 4 1 1 3
BITMAP
F0
ENDCHAR
STARTCHAR uni00A0
ENCODING 160
SWIDTH 267 0
DWIDTH 3 0
BBX 1 1 0 0
BITMAP
00
ENDCHAR
STARTCHAR exclamdown
ENCODING 161
SWIDTH 237 0
DWIDTH 3 0
BBX 1 8 1 0
BITMAP
80
80
00
80
80
80
80
80
ENDCHAR
STARTCHAR cent
ENCODING 162
SWIDTH 414 0
DWIDTH 5 0
BBX 3 8 1 -1
BITMAP
40
E0
80
80
80
80
E0
40
ENDCHAR
STARTCHAR sterling
ENCODING 163
SWIDTH 528 0
DWIDTH 6 0
BBX 5 8 0 0
BITMAP
38
48
40
40
F0
40
40
F8
ENDCHAR
STARTCHAR yen
ENCODING 165
SWIDTH 499 0
DWIDTH 5 0
BBX 5 8 0 0
BITMAP
88
48
50
50
F8
F8
20
20
ENDCHAR
STARTCHAR brokenbar
ENCODING 166
SWIDTH 201 0
DWIDTH 2 0
BBX 1 8 1 0
BITMAP
80
80
80
00
00
80
80
80
ENDCHAR
STARTCHAR section
ENCODING 167
SWIDTH 454 0
DWIDTH 5 0
BBX 3 8 1 0
BITMAP
E0
80
C0
A0
A0
60
20
E0
ENDCHAR
STARTCHAR dieresis
ENCODING 168
SWIDTH 345 0
DWIDTH 4 0
BBX 2 2 1 6
BITMAP
C0
C0
ENDCHAR
STARTCHAR copyright
ENCODING 169
SWIDTH 723 0
DWIDTH 8 0
BBX 6 8 1 0
BITMAP
FC
84
B4
CC
C4
CC
B4
FC
ENDCHAR
STARTCHAR guillemotleft
ENCODING 171
SWIDTH 431 0
DWIDTH 5 0
BBX 3 4 1 1
BITMAP
60
C0
C0
60
ENDCHAR
STARTCHAR registered
ENCODING 174
SWIDTH 439 0
DWIDTH 5 0
BBX 3 3 1 5
BITMAP
E0
E0
E0
ENDCHAR
STARTCHAR macron
ENCODING 175
SWIDTH 358 0
DWIDTH 4 0
BBX 2 1 1 7
BITMAP
C0
ENDCHAR
STARTCHAR degree
ENCODING 176
SWIDTH 298 0
DWIDTH 3 0
BBX 1 3 1 5
BITMAP
80
80
80
ENDCHAR
STARTCHAR plusminus
ENCODING 177
SWIDTH 523 0
DWIDTH 6 0
BBX 4 5 1 1
BITMAP
40
F0
40
00
F0
ENDCHAR
STARTCHAR acute
ENCODING 180
SWIDTH 269 0
DWIDTH 3 0
BBX 1 1 1 7
BITMAP
80
ENDCHAR
STARTCHAR paragraph
ENCODING 182
SWIDTH 513 0
DWIDTH 6 0
BBX 4 8 1 0
BITMAP
F0
90
90
90
50
50
50
50
ENDCHAR
STARTCHAR periodcentered
ENCODING 183
SWIDTH 207 0
DWIDTH 2 0
BBX 1 2 1 3
BITMAP
80
80
ENDCHAR
STARTCHAR cedilla
ENCODING 184
SWIDTH 257 0
DWIDTH 3 0
BBX 1 2 1 -2
BITMAP
80
80
ENDCHAR
STARTCHAR guillemotright
ENCODING 187
SWIDTH 431 0
DWIDTH 5 0
BBX 3 4 1 1
BITMAP
C0
A0
A0
C0
ENDCHAR
STARTCHAR questiondown
ENCODING 191
SWIDTH 473 0
DWIDTH 5 0
BBX 3 8 1 0
BITMAP
40
40
00
40
80
80
A0
E0
ENDCHAR
STARTCHAR Agrave
ENCODING 192
SWIDTH 532 0
DWIDTH 6 0
BBX 6 10 0 0
BITMAP
20
20
20
30
30
48
48
78
88
84
ENDCHAR
STARTCHAR Aacute
ENCODING 193
SWIDTH 532 0
DWIDTH 6 0
BBX 6 10 0 0
BITMAP
10
20
20
30
30
48
48
78
88
84
ENDCHAR
STARTCHAR Acircumflex
ENCODING 194
SWIDTH 532 0
DWIDTH 6 0
BBX 6 10 0 0
BITMAP
20
30
20
30
30
48
48
78
88
84
ENDCHAR
STARTCHAR Atilde
ENCODING 195
SWIDTH 532 0
DWIDTH 6 0
BBX 6 10 0 0
BITMAP
50
30
20
30
30
48
48
78
88
84
ENDCHAR
STARTCHAR Adieresis
ENCODING 196
SWIDTH 532 0
DWIDTH 6 0
BBX 6 10 0 0
BITMAP
30
30
20
30
30
48
48
78
88
84
ENDCHAR
STARTCHAR Aring
ENCODING 197
SWIDTH 532 0
DWIDTH 6 0
BBX 6 11 0 0
BITMAP
20
30
30
20
30
30
48
48
78
88
84
ENDCHAR
STARTCHAR AE
ENCODING 198
SWIDTH 773 0
DWIDTH 9 0
BBX 8 8 0 0
BITMAP
0F
18
28
28
4E
78
88
8F
ENDCHAR
STARTCHAR Ccedilla
ENCODING 199
SWIDTH 542 0
DWIDTH 6 0
BBX 4 10 1 -2
BITMAP
F0
90
90
80
80
80
90
F0
40
20
ENDCHAR
STARTCHAR Egrave
ENCODING 200
SWIDTH 481 0
DWIDTH 5 0
BBX 4 10 1 0
BITMAP
40
40
F0
80
80
80
E0
80
80
F0
ENDCHAR
STARTCHAR Eacute
ENCODING 201
SWIDTH 481 0
DWIDTH 5 0
BBX 4 10 1 0
BITMAP
20
40
F0
80
80
80
E0
80
80
F0
ENDCHAR
STARTCHAR Ecircumflex
ENCODING 202
SWIDTH 481 0
DWIDTH 5 0
BBX 4 10 1 0
BITMAP
40
A0
F0
80
80
80
E0
80
80
F0
ENDCHAR
STARTCHAR Edieresis
ENCODING 203
SWIDTH 481 0
DWIDTH 5 0
BBX 4 10 1 0
BITMAP
A0
A0
F0
80
80
80
E0
80
80
F0
ENDCHAR
STARTCHAR Igrave
ENCODING 204
SWIDTH 230 0
DWIDTH 3 0
BBX 2 10 0 0
BITMAP
80
40
40
40
40
40
40
40
40
40
ENDCHAR
STARTCHAR Iacute
ENCODING 205
SWIDTH 231 0
DWIDTH 3 0
BBX 2 10 1 0
BITMAP
C0
80
80
80
80
80
80
80
80
80
ENDCHAR
STARTCHAR Icircumflex
ENCODING 206
SWIDTH 229 0
DWIDTH 3 0
BBX 2 10 0 0
BITMAP
40
C0
40
40
40
40
40
40
40
40
ENDCHAR
STARTCHAR Idieresis
ENCODING 207
SWIDTH 230 0
DWIDTH 3 0
BBX 2 10 0 0
BITMAP
C0
C0
40
40
40
40
40
40
40
40
ENDCHAR
STARTCHAR Eth
ENCODING 208
SWIDTH 514 0
DWIDTH 6 0
BBX 5 8 0 0
BITMAP
78
48
48
48
E8
48
48
78
ENDCHAR
STARTCHAR Ntilde
ENCODING 209
SWIDTH 579 0
DWIDTH 6 0
BBX 4 10 1 0
BITMAP
60
50
90
90
D0
D0
B0
B0
90
90
ENDCHAR
STARTCHAR Ograve
ENCODING 210
SWIDTH 553 0
DWIDTH 6 0
BBX 4 10 1 0
BITMAP
40
20
F0
90
90
90
90
90
90
F0
ENDCHAR
STARTCHAR Oacute
ENCODING 211
SWIDTH 553 0
DWIDTH 6 0
BBX 4 10 1 0
BITMAP
20
40
F0
90
90
90
90
90
90
F0
ENDCHAR
STARTCHAR Ocircumflex
ENCODING 212
SWIDTH 553 0
DWIDTH 6 0
BBX 4 10 1 0
BITMAP
60
60
F0
90
90
90
90
90
90
F0
ENDCHAR
STARTCHAR Otilde
ENCODING 213
SWIDTH 553 0
DWIDTH 6 0
BBX 4 10 1 0
BITMAP
60
50
F0
90
90
90
90
90
90
F0
ENDCHAR
STARTCHAR Odieresis
ENCODING 214
SWIDTH 553 0
DWIDTH 6 0
BBX 4 10 1 0
BITMAP
60
60
F0
90
90
90
90
90
90
F0
ENDCHAR
STARTCHAR multiply
ENCODING 215
SWIDTH 493 0
DWIDTH 5 0
BBX 3 4 1 2
BITMAP
A0
60
40
A0
ENDCHAR
STARTCHAR Oslash
ENCODING 216
SWIDTH 559 0
DWIDTH 6 0
BBX 5 8 1 0
BITMAP
F8
90
90
A8
C8
88
90
F0
ENDCHAR
STARTCHAR Ugrave
ENCODING 217
SWIDTH 552 0
DWIDTH 6 0
BBX 4 10 1 0
BITMAP
40
20
90
90
90
90
90
90
90
F0
ENDCHAR
STARTCHAR Uacute
ENCODING 218
SWIDTH 552 0
DWIDTH 6 0
BBX 4 10 1 0
BITMAP
20
40
90
90
90
90
90
90
90
F0
ENDCHAR
STARTCHAR Ucircumflex
ENCODING 219
SWIDTH 552 0
DWIDTH 6 0
BBX 4 10 1 0
BITMAP
60
60
90
90
90
90
90
90
90
F0
ENDCHAR
STARTCHAR Udieresis
ENCODING 220
SWIDTH 552 0
DWIDTH 6 0
BBX 4 10 1 0
BITMAP
60
60
90
90
90
90
90
90
90
F0
ENDCHAR
STARTCHAR Yacute
ENCODING 221
SWIDTH 493 0
DWIDTH 5 0
BBX 5 10 0 0
BITMAP
10
20
88
48
50
30
20
20
20
20
ENDCHAR
STARTCHAR Thorn
ENCODING 222
SWIDTH 501 0
DWIDTH 6 0
BBX 4 8 1 0
BITMAP
80
80
E0
90
90
90
E0
80
ENDCHAR
STARTCHAR germandbls
ENCODING 223
SWIDTH 540 0
DWIDTH 6 0
BBX 4 8 1 0
BITMAP
F0
90
90
90
A0
90
90
F0
ENDCHAR
STARTCHAR agrave
ENCODING 224
SWIDTH 502 0
DWIDTH 6 0
BBX 4 8 1 0
BITMAP
40
00
F0
90
90
90
90
F0
ENDCHAR
STARTCHAR aacute
ENCODING 225
SWIDTH 502 0
DWIDTH 6 0
BBX 4 8 1 0
BITMAP
20
00
F0
90
90
90
90
F0
ENDCHAR
STARTCHAR acircumflex
ENCODING 226
SWIDTH 502 0
DWIDTH 6 0
BBX 4 8 1 0
BITMAP
60
00
F0
90
90
90
90
F0
ENDCHAR
STARTCHAR atilde
ENCODING 227
SWIDTH 504 0
DWIDTH 6 0
BBX 4 8 1 0
BITMAP
A0
60
F0
90
90
90
90
F0
ENDCHAR
STARTCHAR adieresis
ENCODING 228
SWIDTH 502 0
DWIDTH 6 0
BBX 4 8 1 0
BITMAP
60
60
F0
90
90
90
90
F0
ENDCHAR
STARTCHAR aring
ENCODING 229
SWIDTH 502 0
DWIDTH 6 0
BBX 4 9 1 0
BITMAP
40
60
40
F0
90
90
90
90
F0
ENDCHAR
STARTCHAR ae
ENCODING 230
SWIDTH 795 0
DWIDTH 9 0
BBX 7 6 1 0
BITMAP
EE
12
F2
9E
90
FE
ENDCHAR
STARTCHAR ccedilla
ENCODING 231
SWIDTH 394 0
DWIDTH 4 0
BBX 3 8 1 -2
BITMAP
E0
80
80
80
80
E0
40
40
ENDCHAR
STARTCHAR egrave
ENCODING 232
SWIDTH 492 0
DWIDTH 5 0
BBX 4 8 1 0
BITMAP
40
00
E0
90
90
F0
80
F0
ENDCHAR
STARTCHAR eacute
ENCODING 233
SWIDTH 492 0
DWIDTH 5 0
BBX 4 8 1 0
BITMAP
20
40
E0
90
90
F0
80
F0
ENDCHAR
STARTCHAR ecircumflex
ENCODING 234
SWIDTH 492 0
DWIDTH 5 0
BBX 4 8 1 0
BITMAP
40
20
E0
90
90
F0
80
F0
ENDCHAR
STARTCHAR edieresis
ENCODING 235
SWIDTH 492 0
DWIDTH 5 0
BBX 4 8 1 0
BITMAP
A0
A0
E0
90
90
F0
80
F0
ENDCHAR
STARTCHAR igrave
ENCODING 236
SWIDTH 210 0
DWIDTH 2 0
BBX 1 8 0 0
BITMAP
80
00
80
80
80
80
80
80
ENDCHAR
STARTCHAR iacute
ENCODING 237
SWIDTH 208 0
DWIDTH 2 0
BBX 1 8 1 0
BITMAP
80
00
80
80
80
80
80
80
ENDCHAR
STARTCHAR icircumflex
ENCODING 238
SWIDTH 210 0
DWIDTH 2 0
BBX 2 8 0 0
BITMAP
C0
00
40
40
40
40
40
40
ENDCHAR
STARTCHAR idieresis
ENCODING 239
SWIDTH 210 0
DWIDTH 2 0
BBX 2 8 0 0
BITMAP
C0
C0
40
40
40
40
40
40
ENDCHAR
STARTCHAR eth
ENCODING 240
SWIDTH 488 0
DWIDTH 5 0
BBX 4 8 1 0
BITMAP
E0
40
A0
F0
90
90
90
E0
ENDCHAR
STARTCHAR ntilde
ENCODING 241
SWIDTH 507 0
DWIDTH 6 0
BBX 4 8 1 0
BITMAP
E0
60
E0
90
90
90
90
90
ENDCHAR
STARTCHAR ograve
ENCODING 242
SWIDTH 496 0
DWIDTH 5 0
BBX 4 8 1 0
BITMAP
C0
00
E0
90
90
90
90
E0
ENDCHAR
STARTCHAR oacute
ENCODING 243
SWIDTH 496 0
DWIDTH 5 0
BBX 4 8 1 0
BITMAP
20
00
E0
90
90
90
90
E0
ENDCHAR
STARTCHAR ocircumflex
ENCODING 244
SWIDTH 496 0
DWIDTH 5 0
BBX 4 8 1 0
BITMAP
40
20
E0
90
90
90
90
E0
ENDCHAR
STARTCHAR otilde
ENCODING 245
SWIDTH 496 0
DWIDTH 5 0
BBX 4 8 1 0
BITMAP
A0
60
E0
90
90
90
90
E0
ENDCHAR
STARTCHAR odieresis
ENCODING 246
SWIDTH 496 0
DWIDTH 5 0
BBX 4 8 1 0
BITMAP
A0
A0
E0
90
90
90
90
E0
ENDCHAR
STARTCHAR divide
ENCODING 247
SWIDTH 510 0
DWIDTH 6 0
BBX 4 4 1 2
BITMAP
40
00
F0
40
ENDCHAR
STARTCHAR oslash
ENCODING 248
SWIDTH 521 0
DWIDTH 6 0
BBX 5 6 0 0
BITMAP
78
48
58
68
48
F8
ENDCHAR
STARTCHAR ugrave
ENCODING 249
SWIDTH 507 0
DWIDTH 6 0
BBX 4 8 1 0
BITMAP
40
00
90
90
90
90
90
F0
ENDCHAR
STARTCHAR uacute
ENCODING 250
SWIDTH 507 0
DWIDTH 6 0
BBX 4 8 1 0
BITMAP
20
00
90
90
90
90
90
F0
ENDCHAR
STARTCHAR ucircumflex
ENCODING 251
SWIDTH 507 0
DWIDTH 6 0
BBX 4 8 1 0
BITMAP
40
20
90
90
90
90
90
F0
ENDCHAR
STARTCHAR udieresis
ENCODING 252
SWIDTH 507 0
DWIDTH 6 0
BBX 4 8 1 0
BITMAP
A0
A0
90
90
90
90
90
F0
ENDCHAR
STARTCHAR yacute
ENCODING 253
SWIDTH 459 0
DWIDTH 5 0
BBX 5 10 0 -2
BITMAP
10
20
88
48
50
50
50
20
20
40
ENDCHAR
STARTCHAR thorn
ENCODING 254
SWIDTH 508 0
DWIDTH 6 0
BBX 4 10 1 -2
BITMAP
80
80
F0
90
90
90
90
F0
80
80
ENDCHAR
STARTCHAR ydieresis
ENCODING 255
SWIDTH 459 0
DWIDTH 5 0
BBX 5 10 0 -2
BITMAP
50
50
88
48
50
50
50
20
20
40
ENDCHAR
STARTCHAR Amacron
ENCODING 256
SWIDTH 532 0
DWIDTH 6 0
BBX 6 10 0 0
BITMAP
30
00
20
30
30
48
48
78
88
84
ENDCHAR
STARTCHAR amacron
ENCODING 257
SWIDTH 502 0
DWIDTH 6 0
BBX 4 8 1 0
BITMAP
60
00
F0
90
90
90
90
F0
ENDCHAR
STARTCHAR Abreve
ENCODING 258
SWIDTH 532 0
DWIDTH 6 0
BBX 6 10 0 0
BITMAP
30
30
20
30
30
48
48
78
88
84
ENDCHAR
STARTCHAR abreve
ENCODING 259
SWIDTH 502 0
DWIDTH 6 0
BBX 4 8 1 0
BITMAP
60
60
F0
90
90
90
90
F0
ENDCHAR
STARTCHAR Aogonek
ENCODING 260
SWIDTH 532 0
DWIDTH 6 0
BBX 6 10 0 -2
BITMAP
20
30
30
48
48
78
88
84
08
08
ENDCHAR
STARTCHAR aogonek
ENCODING 261
SWIDTH 502 0
DWIDTH 6 0
BBX 4 8 1 -2
BITMAP
F0
90
90
90
90
F0
20
30
ENDCHAR
STARTCHAR Cacute
ENCODING 262
SWIDTH 542 0
DWIDTH 6 0
BBX 4 10 1 0
BITMAP
20
40
F0
90
90
80
80
80
90
F0
ENDCHAR
STARTCHAR cacute
ENCODING 263
SWIDTH 394 0
DWIDTH 4 0
BBX 3 8 1 0
BITMAP
20
40
E0
80
80
80
80
E0
ENDCHAR
STARTCHAR Cdotaccent
ENCODING 266
SWIDTH 542 0
DWIDTH 6 0
BBX 4 10 1 0
BITMAP
20
00
F0
90
90
80
80
80
90
F0
ENDCHAR
STARTCHAR cdotaccent
ENCODING 267
SWIDTH 394 0
DWIDTH 4 0
BBX 3 8 1 0
BITMAP
40
00
E0
80
80
80
80
E0
ENDCHAR
STARTCHAR Ccaron
ENCODING 268
SWIDTH 542 0
DWIDTH 6 0
BBX 4 10 1 0
BITMAP
60
20
F0
90
90
80
80
80
90
F0
ENDCHAR
STARTCHAR ccaron
ENCODING 269
SWIDTH 394 0
DWIDTH 4 0
BBX 3 8 1 0
BITMAP
60
00
E0
80
80
80
80
E0
ENDCHAR
STARTCHAR Dcaron
ENCODING 270
SWIDTH 557 0
DWIDTH 6 0
BBX 4 10 1 0
BITMAP
60
20
F0
90
90
90
90
90
90
F0
ENDCHAR
STARTCHAR dcaron
ENCODING 271
SWIDTH 534 0
DWIDTH 6 0
BBX 5 8 1 0
BITMAP
18
18
F8
90
90
90
90
F0
ENDCHAR
STARTCHAR Dcroat
ENCODING 272
SWIDTH 514 0
DWIDTH 6 0
BBX 5 8 0 0
BITMAP
78
48
48
E8
48
48
48
78
ENDCHAR
STARTCHAR dcroat
ENCODING 273
SWIDTH 539 0
DWIDTH 6 0
BBX 5 8 1 0
BITMAP
10
78
10
F0
90
90
90
F0
ENDCHAR
STARTCHAR Emacron
ENCODING 274
SWIDTH 481 0
DWIDTH 5 0
BBX 4 10 1 0
BITMAP
E0
00
F0
80
80
80
E0
80
80
F0
ENDCHAR
STARTCHAR emacron
ENCODING 275
SWIDTH 492 0
DWIDTH 5 0
BBX 4 8 1 0
BITMAP
E0
00
E0
90
90
F0
80
F0
ENDCHAR
STARTCHAR Ebreve
ENCODING 276
SWIDTH 481 0
DWIDTH 5 0
BBX 4 10 1 0
BITMAP
A0
40
F0
80
80
80
E0
80
80
F0
ENDCHAR
STARTCHAR ebreve
ENCODING 277
SWIDTH 492 0
DWIDTH 5 0
BBX 4 8 1 0
BITMAP
A0
40
E0
90
90
F0
80
F0
ENDCHAR
STARTCHAR Edotaccent
ENCODING 278
SWIDTH 496 0
DWIDTH 5 0
BBX 4 10 1 0
BITMAP
40
00
F0
80
80
80
E0
80
80
F0
ENDCHAR
STARTCHAR edotaccent
ENCODING 279
SWIDTH 492 0
DWIDTH 5 0
BBX 4 8 1 0
BITMAP
40
00
E0
90
90
F0
80
F0
ENDCHAR
STARTCHAR Eogonek
ENCODING 280
SWIDTH 481 0
DWIDTH 5 0
BBX 4 10 1 -2
BITMAP
F0
80
80
80
E0
80
80
F0
20
20
ENDCHAR
STARTCHAR eogonek
ENCODING 281
SWIDTH 492 0
DWIDTH 5 0
BBX 4 8 1 -2
BITMAP
E0
90
90
F0
80
F0
20
20
ENDCHAR
STARTCHAR Ecaron
ENCODING 282
SWIDTH 481 0
DWIDTH 5 0
BBX 4 10 1 0
BITMAP
60
40
F0
80
80
80
E0
80
80
F0
ENDCHAR
STARTCHAR ecaron
ENCODING 283
SWIDTH 492 0
DWIDTH 5 0
BBX 4 8 1 0
BITMAP
60
00
E0
90
90
F0
80
F0
ENDCHAR
STARTCHAR Gcircumflex
ENCODING 284
SWIDTH 539 0
DWIDTH 6 0
BBX 4 10 1 0
BITMAP
60
60
F0
90
90
80
B0
90
90
F0
ENDCHAR
STARTCHAR gcircumflex
ENCODING 285
SWIDTH 506 0
DWIDTH 6 0
BBX 4 10 1 -2
BITMAP
60
00
F0
90
90
90
90
F0
10
E0
ENDCHAR
STARTCHAR Gbreve
ENCODING 286
SWIDTH 539 0
DWIDTH 6 0
BBX 4 10 1 0
BITMAP
60
60
F0
90
90
80
B0
90
90
F0
ENDCHAR
STARTCHAR gbreve
ENCODING 287
SWIDTH 506 0
DWIDTH 6 0
BBX 4 10 1 -2
BITMAP
60
60
F0
90
90
90
90
F0
10
E0
ENDCHAR
STARTCHAR Gdotaccent
ENCODING 288
SWIDTH 539 0
DWIDTH 6 0
BBX 4 10 1 0
BITMAP
40
00
F0
90
90
80
B0
90
90
F0
ENDCHAR
STARTCHAR gdotaccent
ENCODING 289
SWIDTH 506 0
DWIDTH 6 0
BBX 4 10 1 -2
BITMAP
20
00
F0
90
90
90
90
F0
10
E0
ENDCHAR
STARTCHAR uni0122
ENCODING 290
SWIDTH 539 0
DWIDTH 6 0
BBX 4 11 1 -3
BITMAP
F0
90
90
80
B0
90
90
F0
00
20
20
ENDCHAR
STARTCHAR uni0123
ENCODING 291
SWIDTH 506 0
DWIDTH 6 0
BBX 4 11 1 -2
BITMAP
20
40
00
F0
90
90
90
90
F0
10
E0
ENDCHAR
STARTCHAR hcircumflex
ENCODING 293
SWIDTH 507 0
DWIDTH 6 0
BBX 4 9 1 0
BITMAP
60
A0
80
E0
90
90
90
90
90
ENDCHAR
STARTCHAR Hbar
ENCODING 294
SWIDTH 523 0
DWIDTH 6 0
BBX 6 8 0 0
BITMAP
44
44
FC
44
78
44
44
44
ENDCHAR
STARTCHAR hbar
ENCODING 295
SWIDTH 544 0
DWIDTH 6 0
BBX 5 8 0 0
BITMAP
40
F0
40
78
48
48
48
48
ENDCHAR
STARTCHAR Itilde
ENCODING 296
SWIDTH 230 0
DWIDTH 3 0
BBX 2 10 0 0
BITMAP
C0
C0
40
40
40
40
40
40
40
40
ENDCHAR
STARTCHAR itilde
ENCODING 297
SWIDTH 210 0
DWIDTH 2 0
BBX 2 8 0 0
BITMAP
C0
C0
40
40
40
40
40
40
ENDCHAR
STARTCHAR Imacron
ENCODING 298
SWIDTH 230 0
DWIDTH 3 0
BBX 3 10 0 0
BITMAP
E0
00
40
40
40
40
40
40
40
40
ENDCHAR
STARTCHAR imacron
ENCODING 299
SWIDTH 208 0
DWIDTH 2 0
BBX 2 8 0 0
BITMAP
C0
00
40
40
40
40
40
40
ENDCHAR
STARTCHAR Ibreve
ENCODING 300
SWIDTH 231 0
DWIDTH 3 0
BBX 2 10 0 0
BITMAP
C0
40
40
40
40
40
40
40
40
40
ENDCHAR
STARTCHAR ibreve
ENCODING 301
SWIDTH 211 0
DWIDTH 2 0
BBX 2 8 0 0
BITMAP
C0
C0
40
40
40
40
40
40
ENDCHAR
STARTCHAR Iogonek
ENCODING 302
SWIDTH 230 0
DWIDTH 3 0
BBX 2 10 0 -2
BITMAP
40
40
40
40
40
40
40
40
80
C0
ENDCHAR
STARTCHAR iogonek
ENCODING 303
SWIDTH 210 0
DWIDTH 2 0
BBX 1 10 0 -2
BITMAP
80
00
80
80
80
80
80
80
80
80
ENDCHAR
STARTCHAR Idotaccent
ENCODING 304
SWIDTH 230 0
DWIDTH 3 0
BBX 1 9 1 0
BITMAP
80
80
80
80
80
80
80
80
80
ENDCHAR
STARTCHAR dotlessi
ENCODING 305
SWIDTH 212 0
DWIDTH 2 0
BBX 1 6 1 0
BITMAP
80
80
80
80
80
80
ENDCHAR
STARTCHAR IJ
ENCODING 306
SWIDTH 721 0
DWIDTH 8 0
BBX 6 8 1 0
BITMAP
84
84
84
84
84
A4
A4
BC
ENDCHAR
STARTCHAR ij
ENCODING 307
SWIDTH 419 0
DWIDTH 5 0
BBX 3 10 1 -2
BITMAP
A0
00
A0
A0
A0
A0
A0
A0
20
40
ENDCHAR
STARTCHAR Jcircumflex
ENCODING 308
SWIDTH 494 0
DWIDTH 5 0
BBX 5 10 0 0
BITMAP
08
18
08
08
08
08
08
88
88
70
ENDCHAR
STARTCHAR jcircumflex
ENCODING 309
SWIDTH 209 0
DWIDTH 2 0
BBX 3 10 -1 -2
BITMAP
60
00
20
20
20
20
20
20
20
C0
ENDCHAR
STARTCHAR uni0136
ENCODING 310
SWIDTH 530 0
DWIDTH 6 0
BBX 5 11 1 -3
BITMAP
90
A0
A0
C0
A0
A0
90
98
20
20
20
ENDCHAR
STARTCHAR uni0137
ENCODING 311
SWIDTH 431 0
DWIDTH 5 0
BBX 4 11 1 -3
BITMAP
80
80
A0
A0
C0
C0
A0
90
00
40
40
ENDCHAR
STARTCHAR Lacute
ENCODING 313
SWIDTH 451 0
DWIDTH 5 0
BBX 4 10 1 0
BITMAP
C0
80
80
80
80
80
80
80
80
F0
ENDCHAR
STARTCHAR lacute
ENCODING 314
SWIDTH 207 0
DWIDTH 2 0
BBX 1 11 1 0
BITMAP
80
80
00
80
80
80
80
80
80
80
80
ENDCHAR
STARTCHAR uni013B
ENCODING 315
SWIDTH 451 0
DWIDTH 5 0
BBX 4 11 1 -3
BITMAP
80
80
80
80
80
80
80
F0
00
40
40
ENDCHAR
STARTCHAR uni013C
ENCODING 316
SWIDTH 211 0
DWIDTH 2 0
BBX 1 11 1 -3
BITMAP
80
80
80
80
80
80
80
80
00
80
80
ENDCHAR
STARTCHAR Lcaron
ENCODING 317
SWIDTH 451 0
DWIDTH 5 0
BBX 4 8 1 0
BITMAP
A0
A0
A0
80
80
80
80
F0
ENDCHAR
STARTCHAR lcaron
ENCODING 318
SWIDTH 274 0
DWIDTH 3 0
BBX 2 8 1 0
BITMAP
C0
C0
80
80
80
80
80
80
ENDCHAR
STARTCHAR Ldot
ENCODING 319
SWIDTH 500 0
DWIDTH 6 0
BBX 4 8 1 0
BITMAP
80
80
80
A0
A0
80
80
F0
ENDCHAR
STARTCHAR ldot
ENCODING 320
SWIDTH 314 0
DWIDTH 3 0
BBX 2 8 1 0
BITMAP
80
80
80
C0
C0
80
80
80
ENDCHAR
STARTCHAR Lslash
ENCODING 321
SWIDTH 504 0
DWIDTH 6 0
BBX 5 8 0 0
BITMAP
40
40
60
C0
40
40
40
78
ENDCHAR
STARTCHAR lslash
ENCODING 322
SWIDTH 296 0
DWIDTH 3 0
BBX 3 8 0 0
BITMAP
40
40
60
C0
40
40
40
40
ENDCHAR
STARTCHAR Nacute
ENCODING 323
SWIDTH 579 0
DWIDTH 6 0
BBX 4 10 1 0
BITMAP
30
20
90
90
D0
D0
B0
B0
90
90
ENDCHAR
STARTCHAR nacute
ENCODING 324
SWIDTH 507 0
DWIDTH 6 0
BBX 4 8 1 0
BITMAP
20
00
E0
90
90
90
90
90
ENDCHAR
STARTCHAR uni0145
ENCODING 325
SWIDTH 579 0
DWIDTH 6 0
BBX 4 11 1 -3
BITMAP
90
90
D0
D0
B0
B0
90
90
00
20
20
ENDCHAR
STARTCHAR uni0146
ENCODING 326
SWIDTH 505 0
DWIDTH 6 0
BBX 4 9 1 -3
BITMAP
E0
90
90
90
90
90
00
40
40
ENDCHAR
STARTCHAR Ncaron
ENCODING 327
SWIDTH 579 0
DWIDTH 6 0
BBX 4 10 1 0
BITMAP
60
20
90
90
D0
D0
B0
B0
90
90
ENDCHAR
STARTCHAR ncaron
ENCODING 328
SWIDTH 507 0
DWIDTH 6 0
BBX 4 8 1 0
BITMAP
60
00
E0
90
90
90
90
90
ENDCHAR
STARTCHAR Eng
ENCODING 330
SWIDTH 519 0
DWIDTH 6 0
BBX 4 10 1 -2
BITMAP
90
90
D0
D0
B0
B0
90
90
10
30
ENDCHAR
STARTCHAR eng
ENCODING 331
SWIDTH 507 0
DWIDTH 6 0
BBX 4 8 1 -2
BITMAP
E0
90
90
90
90
90
10
20
ENDCHAR
STARTCHAR Omacron
ENCODING 332
SWIDTH 553 0
DWIDTH 6 0
BBX 4 10 1 0
BITMAP
60
00
F0
90
90
90
90
90
90
F0
ENDCHAR
STARTCHAR omacron
ENCODING 333
SWIDTH 496 0
DWIDTH 5 0
BBX 4 8 1 0
BITMAP
E0
00
E0
90
90
90
90
E0
ENDCHAR
STARTCHAR Obreve
ENCODING 334
SWIDTH 553 0
DWIDTH 6 0
BBX 4 10 1 0
BITMAP
60
60
F0
90
90
90
90
90
90
F0
ENDCHAR
STARTCHAR obreve
ENCODING 335
SWIDTH 496 0
DWIDTH 5 0
BBX 4 8 1 0
BITMAP
A0
40
E0
90
90
90
90
E0
ENDCHAR
STARTCHAR Ohungarumlaut
ENCODING 336
SWIDTH 553 0
DWIDTH 6 0
BBX 4 10 1 0
BITMAP
50
60
F0
90
90
90
90
90
90
F0
ENDCHAR
STARTCHAR ohungarumlaut
ENCODING 337
SWIDTH 496 0
DWIDTH 5 0
BBX 4 8 1 0
BITMAP
50
60
E0
90
90
90
90
E0
ENDCHAR
STARTCHAR OE
ENCODING 338
SWIDTH 775 0
DWIDTH 9 0
BBX 7 8 1 0
BITMAP
FE
90
90
90
9C
90
90
FE
ENDCHAR
STARTCHAR oe
ENCODING 339
SWIDTH 812 0
DWIDTH 9 0
BBX 7 6 1 0
BITMAP
EE
92
92
9E
90
EE
ENDCHAR
STARTCHAR Racute
ENCODING 340
SWIDTH 534 0
DWIDTH 6 0
BBX 4 10 1 0
BITMAP
20
40
F0
90
90
90
E0
A0
90
90
ENDCHAR
STARTCHAR racute
ENCODING 341
SWIDTH 313 0
DWIDTH 3 0
BBX 2 8 1 0
BITMAP
40
80
C0
80
80
80
80
80
ENDCHAR
STARTCHAR uni0156
ENCODING 342
SWIDTH 534 0
DWIDTH 6 0
BBX 4 11 1 -3
BITMAP
F0
90
90
90
E0
A0
90
90
00
40
40
ENDCHAR
STARTCHAR uni0157
ENCODING 343
SWIDTH 313 0
DWIDTH 3 0
BBX 2 9 1 -3
BITMAP
C0
80
80
80
80
80
00
80
80
ENDCHAR
STARTCHAR Rcaron
ENCODING 344
SWIDTH 534 0
DWIDTH 6 0
BBX 4 10 1 0
BITMAP
60
40
F0
90
90
90
E0
A0
90
90
ENDCHAR
STARTCHAR rcaron
ENCODING 345
SWIDTH 313 0
DWIDTH 3 0
BBX 2 8 1 0
BITMAP
C0
00
C0
80
80
80
80
80
ENDCHAR
STARTCHAR Sacute
ENCODING 346
SWIDTH 562 0
DWIDTH 6 0
BBX 4 10 1 0
BITMAP
20
40
F0
90
80
C0
30
10
90
F0
ENDCHAR
STARTCHAR sacute
ENCODING 347
SWIDTH 427 0
DWIDTH 5 0
BBX 3 8 1 0
BITMAP
40
00
E0
80
C0
20
20
E0
ENDCHAR
STARTCHAR Scircumflex
ENCODING 348
SWIDTH 562 0
DWIDTH 6 0
BBX 4 10 1 0
BITMAP
20
60
F0
90
80
C0
30
10
90
F0
ENDCHAR
STARTCHAR scircumflex
ENCODING 349
SWIDTH 427 0
DWIDTH 5 0
BBX 3 8 1 0
BITMAP
40
80
E0
80
C0
20
20
E0
ENDCHAR
STARTCHAR uni015E
ENCODING 350
SWIDTH 562 0
DWIDTH 6 0
BBX 4 10 1 -2
BITMAP
F0
90
80
C0
30
10
90
F0
20
20
ENDCHAR
STARTCHAR uni015F
ENCODING 351
SWIDTH 427 0
DWIDTH 5 0
BBX 3 8 1 -2
BITMAP
E0
80
C0
20
20
E0
40
40
ENDCHAR
STARTCHAR Scaron
ENCODING 352
SWIDTH 562 0
DWIDTH 6 0
BBX 4 10 1 0
BITMAP
60
20
F0
90
80
C0
30
10
90
F0
ENDCHAR
STARTCHAR scaron
ENCODING 353
SWIDTH 427 0
DWIDTH 5 0
BBX 3 8 1 0
BITMAP
C0
00
E0
80
C0
20
20
E0
ENDCHAR
STARTCHAR uni0162
ENCODING 354
SWIDTH 420 0
DWIDTH 5 0
BBX 4 11 0 -3
BITMAP
F0
20
20
20
20
20
20
20
20
20
20
ENDCHAR
STARTCHAR uni0163
ENCODING 355
SWIDTH 347 0
DWIDTH 4 0
BBX 3 10 0 -3
BITMAP
40
E0
40
40
40
40
20
20
20
20
ENDCHAR
STARTCHAR Tcaron
ENCODING 356
SWIDTH 420 0
DWIDTH 5 0
BBX 4 10 0 0
BITMAP
60
20
F0
20
20
20
20
20
20
20
ENDCHAR
STARTCHAR tcaron
ENCODING 357
SWIDTH 396 0
DWIDTH 4 0
BBX 4 8 0 0
BITMAP
50
50
F0
40
40
40
40
20
ENDCHAR
STARTCHAR Tbar
ENCODING 358
SWIDTH 501 0
DWIDTH 6 0
BBX 5 8 0 0
BITMAP
F8
20
20
70
20
20
20
20
ENDCHAR
STARTCHAR tbar
ENCODING 359
SWIDTH 350 0
DWIDTH 4 0
BBX 3 7 0 0
BITMAP
40
E0
40
E0
40
40
20
ENDCHAR
STARTCHAR Utilde
ENCODING 360
SWIDTH 552 0
DWIDTH 6 0
BBX 4 10 1 0
BITMAP
60
50
90
90
90
90
90
90
90
F0
ENDCHAR
STARTCHAR utilde
ENCODING 361
SWIDTH 507 0
DWIDTH 6 0
BBX 4 8 1 0
BITMAP
E0
60
90
90
90
90
90
F0
ENDCHAR
STARTCHAR Umacron
ENCODING 362
SWIDTH 552 0
DWIDTH 6 0
BBX 4 10 1 0
BITMAP
60
00
90
90
90
90
90
90
90
F0
ENDCHAR
STARTCHAR umacron
ENCODING 363
SWIDTH 507 0
DWIDTH 6 0
BBX 4 8 1 0
BITMAP
60
00
90
90
90
90
90
F0
ENDCHAR
STARTCHAR Ubreve
ENCODING 364
SWIDTH 552 0
DWIDTH 6 0
BBX 4 10 1 0
BITMAP
60
60
90
90
90
90
90
90
90
F0
ENDCHAR
STARTCHAR ubreve
ENCODING 365
SWIDTH 507 0
DWIDTH 6 0
BBX 4 8 1 0
BITMAP
A0
40
90
90
90
90
90
F0
ENDCHAR
STARTCHAR Uring
ENCODING 366
SWIDTH 552 0
DWIDTH 6 0
BBX 4 11 1 0
BITMAP
60
60
60
90
90
90
90
90
90
90
F0
ENDCHAR
STARTCHAR uring
ENCODING 367
SWIDTH 507 0
DWIDTH 6 0
BBX 4 9 1 0
BITMAP
40
A0
40
90
90
90
90
90
F0
ENDCHAR
STARTCHAR Uhungarumlaut
ENCODING 368
SWIDTH 552 0
DWIDTH 6 0
BBX 4 10 1 0
BITMAP
50
60
90
90
90
90
90
90
90
F0
ENDCHAR
STARTCHAR uhungarumlaut
ENCODING 369
SWIDTH 507 0
DWIDTH 6 0
BBX 4 8 1 0
BITMAP
50
60
90
90
90
90
90
F0
ENDCHAR
STARTCHAR Uogonek
ENCODING 370
SWIDTH 552 0
DWIDTH 6 0
BBX 4 10 1 -2
BITMAP
90
90
90
90
90
90
90
F0
20
60
ENDCHAR
STARTCHAR uogonek
ENCODING 371
SWIDTH 503 0
DWIDTH 6 0
BBX 4 8 1 -2
BITMAP
90
90
90
90
90
F0
10
30
ENDCHAR
STARTCHAR Wcircumflex
ENCODING 372
SWIDTH 795 0
DWIDTH 9 0
BBX 8 10 0 0
BITMAP
08
14
89
99
55
55
55
65
66
22
ENDCHAR
STARTCHAR wcircumflex
ENCODING 373
SWIDTH 682 0
DWIDTH 8 0
BBX 7 8 0 0
BITMAP
10
08
92
92
5A
6A
6C
24
ENDCHAR
STARTCHAR Ycircumflex
ENCODING 374
SWIDTH 493 0
DWIDTH 5 0
BBX 5 10 0 0
BITMAP
20
50
88
48
50
30
20
20
20
20
ENDCHAR
STARTCHAR ycircumflex
ENCODING 375
SWIDTH 459 0
DWIDTH 5 0
BBX 5 10 0 -2
BITMAP
20
10
88
48
50
50
50
20
20
40
ENDCHAR
STARTCHAR Ydieresis
ENCODING 376
SWIDTH 493 0
DWIDTH 5 0
BBX 5 10 0 0
BITMAP
50
50
88
48
50
30
20
20
20
20
ENDCHAR
STARTCHAR Zacute
ENCODING 377
SWIDTH 482 0
DWIDTH 5 0
BBX 5 10 0 0
BITMAP
10
20
78
10
10
20
20
40
40
F8
ENDCHAR
STARTCHAR zacute
ENCODING 378
SWIDTH 405 0
DWIDTH 4 0
BBX 4 8 0 0
BITMAP
10
20
F0
10
20
40
40
F0
ENDCHAR
STARTCHAR Zdotaccent
ENCODING 379
SWIDTH 482 0
DWIDTH 5 0
BBX 5 10 0 0
BITMAP
20
00
78
10
10
20
20
40
40
F8
ENDCHAR
STARTCHAR zdotaccent
ENCODING 380
SWIDTH 405 0
DWIDTH 4 0
BBX 4 8 0 0
BITMAP
20
00
F0
10
20
40
40
F0
ENDCHAR
STARTCHAR Zcaron
ENCODING 381
SWIDTH 482 0
DWIDTH 5 0
BBX 5 10 0 0
BITMAP
30
20
78
10
10
20
20
40
40
F8
ENDCHAR
STARTCHAR zcaron
ENCODING 382
SWIDTH 405 0
DWIDTH 4 0
BBX 4 8 0 0
BITMAP
50
20
F0
10
20
40
40
F0
ENDCHAR
STARTCHAR florin
ENCODING 402
SWIDTH 494 0
DWIDTH 5 0
BBX 5 10 0 -2
BITMAP
08
10
10
10
78
20
20
20
20
C0
ENDCHAR
STARTCHAR AEacute
ENCODING 508
SWIDTH 773 0
DWIDTH 9 0
BBX 8 10 0 0
BITMAP
04
08
0F
18
28
28
4E
78
88
8F
ENDCHAR
STARTCHAR aeacute
ENCODING 509
SWIDTH 795 0
DWIDTH 9 0
BBX 7 8 1 0
BITMAP
08
10
EE
12
F2
9E
90
FE
ENDCHAR
STARTCHAR Oslashacute
ENCODING 510
SWIDTH 558 0
DWIDTH 6 0
BBX 5 10 1 0
BITMAP
20
40
F8
90
90
A8
C8
88
90
F0
ENDCHAR
STARTCHAR oslashacute
ENCODING 511
SWIDTH 521 0
DWIDTH 6 0
BBX 5 8 0 0
BITMAP
10
00
78
48
58
68
48
F8
ENDCHAR
STARTCHAR uni0218
ENCODING 536
SWIDTH 562 0
DWIDTH 6 0
BBX 4 11 1 -3
BITMAP
F0
90
80
C0
30
10
90
F0
00
20
20
ENDCHAR
STARTCHAR uni0219
ENCODING 537
SWIDTH 427 0
DWIDTH 5 0
BBX 3 9 1 -3
BITMAP
E0
80
C0
20
20
E0
40
40
40
ENDCHAR
STARTCHAR circumflex
ENCODING 710
SWIDTH 326 0
DWIDTH 4 0
BBX 2 1 1 7
BITMAP
C0
ENDCHAR
STARTCHAR caron
ENCODING 711
SWIDTH 326 0
DWIDTH 4 0
BBX 2 1 1 7
BITMAP
C0
ENDCHAR
STARTCHAR uni02C9
ENCODING 713
SWIDTH 358 0
DWIDTH 4 0
BBX 2 1 1 7
BITMAP
C0
ENDCHAR
STARTCHAR breve
ENCODING 728
SWIDTH 332 0
DWIDTH 4 0
BBX 2 2 1 6
BITMAP
C0
80
ENDCHAR
STARTCHAR dotaccent
ENCODING 729
SWIDTH 183 0
DWIDTH 2 0
BBX 1 1 1 7
BITMAP
80
ENDCHAR
STARTCHAR ring
ENCODING 730
SWIDTH 297 0
DWIDTH 3 0
BBX 1 3 1 6
BITMAP
80
80
80
ENDCHAR
STARTCHAR ogonek
ENCODING 731
SWIDTH 243 0
DWIDTH 3 0
BBX 1 2 1 -2
BITMAP
80
80
ENDCHAR
STARTCHAR tilde
ENCODING 732
SWIDTH 369 0
DWIDTH 4 0
BBX 2 2 1 6
BITMAP
C0
C0
ENDCHAR
STARTCHAR hungarumlaut
ENCODING 733
SWIDTH 377 0
DWIDTH 4 0
BBX 2 2 1 6
BITMAP
C0
80
ENDCHAR
STARTCHAR Mu
ENCODING 924
SWIDTH 527 0
DWIDTH 6 0
BBX 4 7 1 -1
BITMAP
90
90
90
90
90
F0
80
ENDCHAR
STARTCHAR Pi
ENCODING 928
SWIDTH 605 0
DWIDTH 7 0
BBX 6 7 0 0
BITMAP
FC
48
48
48
48
48
48
ENDCHAR
STARTCHAR Sigma
ENCODING 931
SWIDTH 481 0
DWIDTH 5 0
BBX 4 7 1 0
BITMAP
F0
80
40
40
40
80
F0
ENDCHAR
STARTCHAR uni0901
ENCODING 2305
SWIDTH 0 0
DWIDTH 0 0
BBX 4 3 -3 7
BITMAP
40
90
E0
ENDCHAR
STARTCHAR uni0902
ENCODING 2306
SWIDTH 0 0
DWIDTH 0 0
BBX 1 1 -2 8
BITMAP
80
ENDCHAR
STARTCHAR uni0903
ENCODING 2307
SWIDTH 247 0
DWIDTH 3 0
BBX 1 4 1 1
BITMAP
80
00
00
80
ENDCHAR
STARTCHAR uni0905
ENCODING 2309
SWIDTH 598 0
DWIDTH 7 0
BBX 7 7 0 0
BITMAP
66
14
14
7C
14
14
E4
ENDCHAR
STARTCHAR uni0906
ENCODING 2310
SWIDTH 828 0
DWIDTH 9 0
BBX 9 7 0 0
BITMAP
6780
1500
1500
7D00
1500
1500
E500
ENDCHAR
STARTCHAR uni0907
ENCODING 2311
SWIDTH 478 0
DWIDTH 5 0
BBX 5 7 0 0
BITMAP
F8
10
70
40
70
48
70
ENDCHAR
STARTCHAR uni0908
ENCODING 2312
SWIDTH 478 0
DWIDTH 5 0
BBX 5 10 0 0
BITMAP
18
10
10
F8
10
70
40
70
48
70
ENDCHAR
STARTCHAR uni0909
ENCODING 2313
SWIDTH 471 0
DWIDTH 5 0
BBX 5 7 0 0
BITMAP
F8
08
08
30
08
88
70
ENDCHAR
STARTCHAR uni090A
ENCODING 2314
SWIDTH 661 0
DWIDTH 7 0
BBX 7 7 0 0
BITMAP
FE
08
08
3C
8A
8A
76
ENDCHAR
STARTCHAR uni090B
ENCODING 2315
SWIDTH 753 0
DWIDTH 8 0
BBX 8 7 0 0
BITMAP
FF
08
72
8D
8A
3C
4B
ENDCHAR
STARTCHAR uni090C
ENCODING 2316
SWIDTH 676 0
DWIDTH 7 0
BBX 8 10 0 -3
BITMAP
FF
02
6C
52
52
42
66
08
09
06
ENDCHAR
STARTCHAR uni090D
ENCODING 2317
SWIDTH 521 0
DWIDTH 6 0
BBX 6 10 0 0
BITMAP
48
30
00
FC
48
48
50
40
40
78
ENDCHAR
STARTCHAR uni090E
ENCODING 2318
SWIDTH 522 0
DWIDTH 6 0
BBX 6 10 0 0
BITMAP
20
10
08
FC
48
48
50
40
40
78
ENDCHAR
STARTCHAR uni090F
ENCODING 2319
SWIDTH 526 0
DWIDTH 6 0
BBX 6 7 0 0
BITMAP
FC
48
48
50
40
40
78
ENDCHAR
STARTCHAR uni0910
ENCODING 2320
SWIDTH 526 0
DWIDTH 6 0
BBX 6 10 0 0
BITMAP
10
10
08
FC
48
48
50
40
40
78
ENDCHAR
STARTCHAR uni0911
ENCODING 2321
SWIDTH 829 0
DWIDTH 9 0
BBX 9 9 0 0
BITMAP
0480
0700
6580
1500
1500
7D00
1500
1500
E500
ENDCHAR
STARTCHAR uni0912
ENCODING 2322
SWIDTH 828 0
DWIDTH 9 0
BBX 9 10 0 0
BITMAP
0400
0200
0100
6780
1500
1500
7D00
1500
1500
E500
ENDCHAR
STARTCHAR uni0913
ENCODING 2323
SWIDTH 829 0
DWIDTH 9 0
BBX 9 10 0 0
BITMAP
0200
0200
0100
6780
1500
1500
7D00
1500
1500
E500
ENDCHAR
STARTCHAR uni0914
ENCODING 2324
SWIDTH 829 0
DWIDTH 9 0
BBX 9 10 0 0
BITMAP
0300
0300
0100
6780
1500
1500
7D00
1500
1500
E500
ENDCHAR
STARTCHAR uni0915
ENCODING 2325
SWIDTH 725 0
DWIDTH 8 0
BBX 8 7 0 0
BITMAP
FF
76
8A
91
92
76
10
ENDCHAR
STARTCHAR uni0916
ENCODING 2326
SWIDTH 696 0
DWIDTH 8 0
BBX 8 7 0 0
BITMAP
FF
22
2A
D2
52
4E
22
ENDCHAR
STARTCHAR uni0917
ENCODING 2327
SWIDTH 494 0
DWIDTH 5 0
BBX 6 7 0 0
BITMAP
FC
48
48
48
88
08
08
ENDCHAR
STARTCHAR uni0918
ENCODING 2328
SWIDTH 559 0
DWIDTH 6 0
BBX 6 7 0 0
BITMAP
FC
48
68
48
48
78
08
ENDCHAR
STARTCHAR uni0919
ENCODING 2329
SWIDTH 505 0
DWIDTH 6 0
BBX 6 7 0 0
BITMAP
FC
10
70
48
70
08
70
ENDCHAR
STARTCHAR uni091A
ENCODING 2330
SWIDTH 563 0
DWIDTH 6 0
BBX 6 7 0 0
BITMAP
FC
08
F8
48
48
38
08
ENDCHAR
STARTCHAR uni091B
ENCODING 2331
SWIDTH 581 0
DWIDTH 6 0
BBX 7 7 0 0
BITMAP
FE
44
48
24
44
44
78
ENDCHAR
STARTCHAR uni091C
ENCODING 2332
SWIDTH 547 0
DWIDTH 6 0
BBX 6 7 0 0
BITMAP
FC
08
78
28
28
E8
08
ENDCHAR
STARTCHAR uni091D
ENCODING 2333
SWIDTH 664 0
DWIDTH 7 0
BBX 7 7 0 0
BITMAP
FE
72
42
7C
12
52
72
ENDCHAR
STARTCHAR uni091E
ENCODING 2334
SWIDTH 592 0
DWIDTH 7 0
BBX 7 7 0 0
BITMAP
FE
64
24
1C
24
E4
04
ENDCHAR
STARTCHAR uni091F
ENCODING 2335
SWIDTH 485 0
DWIDTH 5 0
BBX 5 7 0 0
BITMAP
F8
10
70
40
80
48
70
ENDCHAR
STARTCHAR uni0920
ENCODING 2336
SWIDTH 512 0
DWIDTH 6 0
BBX 6 7 0 0
BITMAP
FC
08
70
48
88
88
70
ENDCHAR
STARTCHAR uni0921
ENCODING 2337
SWIDTH 475 0
DWIDTH 5 0
BBX 5 7 0 0
BITMAP
F8
10
70
40
70
48
70
ENDCHAR
STARTCHAR uni0922
ENCODING 2338
SWIDTH 485 0
DWIDTH 5 0
BBX 6 7 0 0
BITMAP
FC
10
70
40
50
68
78
ENDCHAR
STARTCHAR uni0923
ENCODING 2339
SWIDTH 681 0
DWIDTH 7 0
BBX 8 7 0 0
BITMAP
FF
52
52
52
72
02
02
ENDCHAR
STARTCHAR uni0924
ENCODING 2340
SWIDTH 496 0
DWIDTH 5 0
BBX 6 7 0 0
BITMAP
FC
08
70
48
88
88
68
ENDCHAR
STARTCHAR uni0925
ENCODING 2341
SWIDTH 593 0
DWIDTH 7 0
BBX 6 7 1 0
BITMAP
CC
A8
28
C8
88
F8
08
ENDCHAR
STARTCHAR uni0926
ENCODING 2342
SWIDTH 489 0
DWIDTH 5 0
BBX 6 7 0 0
BITMAP
FC
08
70
40
48
78
08
ENDCHAR
STARTCHAR uni0927
ENCODING 2343
SWIDTH 560 0
DWIDTH 6 0
BBX 6 7 0 0
BITMAP
EC
48
68
48
48
78
08
ENDCHAR
STARTCHAR uni0928
ENCODING 2344
SWIDTH 473 0
DWIDTH 5 0
BBX 5 7 0 0
BITMAP
F8
10
10
70
90
10
10
ENDCHAR
STARTCHAR uni0928093C
ENCODING 2345
SWIDTH 473 0
DWIDTH 5 0
BBX 5 7 0 0
BITMAP
F8
10
10
70
90
10
50
ENDCHAR
STARTCHAR uni092A
ENCODING 2346
SWIDTH 503 0
DWIDTH 6 0
BBX 6 7 0 0
BITMAP
FC
48
48
48
78
08
08
ENDCHAR
STARTCHAR uni092B
ENCODING 2347
SWIDTH 739 0
DWIDTH 8 0
BBX 8 7 0 0
BITMAP
FF
4E
49
49
31
0E
08
ENDCHAR
STARTCHAR uni092C
ENCODING 2348
SWIDTH 491 0
DWIDTH 5 0
BBX 6 7 0 0
BITMAP
FC
68
48
A8
90
70
08
ENDCHAR
STARTCHAR uni092D
ENCODING 2349
SWIDTH 491 0
DWIDTH 5 0
BBX 6 7 0 0
BITMAP
9C
48
48
70
48
08
08
ENDCHAR
STARTCHAR uni092E
ENCODING 2350
SWIDTH 490 0
DWIDTH 5 0
BBX 6 7 0 0
BITMAP
FC
48
48
70
48
08
08
ENDCHAR
STARTCHAR uni092F
ENCODING 2351
SWIDTH 564 0
DWIDTH 6 0
BBX 6 7 0 0
BITMAP
FC
28
48
48
48
38
08
ENDCHAR
STARTCHAR uni0930
ENCODING 2352
SWIDTH 337 0
DWIDTH 4 0
BBX 4 7 0 0
BITMAP
F0
20
20
C0
40
40
20
ENDCHAR
STARTCHAR uni0930093C
ENCODING 2353
SWIDTH 347 0
DWIDTH 4 0
BBX 4 8 0 -1
BITMAP
F0
20
20
C0
40
40
20
80
ENDCHAR
STARTCHAR uni0932
ENCODING 2354
SWIDTH 676 0
DWIDTH 7 0
BBX 8 7 0 0
BITMAP
FF
02
6C
52
52
42
62
ENDCHAR
STARTCHAR uni0933
ENCODING 2355
SWIDTH 672 0
DWIDTH 7 0
BBX 8 7 0 0
BITMAP
FF
04
6C
52
92
92
7C
ENDCHAR
STARTCHAR uni0933093C
ENCODING 2356
SWIDTH 672 0
DWIDTH 7 0
BBX 8 8 0 -1
BITMAP
FF
04
6C
52
92
92
7C
20
ENDCHAR
STARTCHAR uni0935
ENCODING 2357
SWIDTH 484 0
DWIDTH 5 0
BBX 5 7 0 0
BITMAP
F8
68
88
88
88
70
08
ENDCHAR
STARTCHAR uni0936
ENCODING 2358
SWIDTH 614 0
DWIDTH 7 0
BBX 7 7 0 0
BITMAP
66
54
14
E4
44
44
24
ENDCHAR
STARTCHAR uni0937
ENCODING 2359
SWIDTH 505 0
DWIDTH 6 0
BBX 6 7 0 0
BITMAP
FC
68
58
48
78
08
08
ENDCHAR
STARTCHAR uni0938
ENCODING 2360
SWIDTH 575 0
DWIDTH 6 0
BBX 6 7 0 0
BITMAP
FC
24
24
F8
44
44
24
ENDCHAR
STARTCHAR uni0939
ENCODING 2361
SWIDTH 481 0
DWIDTH 5 0
BBX 5 8 0 -1
BITMAP
F8
70
40
40
30
48
40
70
ENDCHAR
STARTCHAR uni093C
ENCODING 2364
SWIDTH 0 0
DWIDTH 0 0
BBX 1 1 -2 -1
BITMAP
80
ENDCHAR
STARTCHAR uni093D
ENCODING 2365
SWIDTH 529 0
DWIDTH 6 0
BBX 4 7 1 0
BITMAP
60
80
40
20
10
90
70
ENDCHAR
STARTCHAR uni093E
ENCODING 2366
SWIDTH 231 0
DWIDTH 3 0
BBX 3 7 0 0
BITMAP
E0
40
40
40
40
40
40
ENDCHAR
STARTCHAR uni093F
ENCODING 2367
SWIDTH 231 0
DWIDTH 3 0
BBX 7 10 0 0
BITMAP
7E
42
40
E0
40
40
40
40
40
40
ENDCHAR
STARTCHAR uni0940
ENCODING 2368
SWIDTH 231 0
DWIDTH 3 0
BBX 5 10 -2 0
BITMAP
60
90
10
38
10
10
10
10
10
10
ENDCHAR
STARTCHAR uni0941
ENCODING 2369
SWIDTH 0 0
DWIDTH 0 0
BBX 4 3 -4 -3
BITMAP
30
90
70
ENDCHAR
STARTCHAR uni0942
ENCODING 2370
SWIDTH 0 0
DWIDTH 0 0
BBX 4 3 -3 -3
BITMAP
60
90
D0
ENDCHAR
STARTCHAR uni0943
ENCODING 2371
SWIDTH 0 0
DWIDTH 0 0
BBX 3 3 -3 -3
BITMAP
C0
80
E0
ENDCHAR
STARTCHAR uni0945
ENCODING 2373
SWIDTH 0 0
DWIDTH 0 0
BBX 3 2 -3 7
BITMAP
A0
60
ENDCHAR
STARTCHAR uni0946
ENCODING 2374
SWIDTH 0 0
DWIDTH 0 0
BBX 3 3 -4 7
BITMAP
80
40
20
ENDCHAR
STARTCHAR uni0947
ENCODING 2375
SWIDTH 0 0
DWIDTH 0 0
BBX 2 3 -3 7
BITMAP
80
80
40
ENDCHAR
STARTCHAR uni0948
ENCODING 2376
SWIDTH 0 0
DWIDTH 0 0
BBX 2 3 -3 7
BITMAP
C0
C0
40
ENDCHAR
STARTCHAR uni0949
ENCODING 2377
SWIDTH 231 0
DWIDTH 3 0
BBX 3 9 0 0
BITMAP
A0
C0
60
40
40
40
40
40
40
ENDCHAR
STARTCHAR uni094A
ENCODING 2378
SWIDTH 231 0
DWIDTH 3 0
BBX 4 10 -1 0
BITMAP
80
C0
20
70
20
20
20
20
20
20
ENDCHAR
STARTCHAR uni094B
ENCODING 2379
SWIDTH 231 0
DWIDTH 3 0
BBX 4 10 -1 0
BITMAP
80
40
40
30
20
20
20
20
20
20
ENDCHAR
STARTCHAR uni094C
ENCODING 2380
SWIDTH 231 0
DWIDTH 3 0
BBX 4 10 -1 0
BITMAP
A0
60
20
70
20
20
20
20
20
20
ENDCHAR
STARTCHAR uni094D
ENCODING 2381
SWIDTH 0 0
DWIDTH 0 0
BBX 2 2 -2 -2
BITMAP
80
40
ENDCHAR
STARTCHAR uni0950
ENCODING 2384
SWIDTH 847 0
DWIDTH 9 0
BBX 7 9 1 0
BITMAP
08
02
E4
20
26
42
3A
AA
E6
ENDCHAR
STARTCHAR uni0951
ENCODING 2385
SWIDTH 0 0
DWIDTH 0 0
BBX 1 2 -2 8
BITMAP
80
80
ENDCHAR
STARTCHAR uni0952
ENCODING 2386
SWIDTH 0 0
DWIDTH 0 0
BBX 4 1 -5 -1
BITMAP
F0
ENDCHAR
STARTCHAR uni0953
ENCODING 2387
SWIDTH 0 0
DWIDTH 0 0
BBX 2 2 -3 8
BITMAP
80
40
ENDCHAR
STARTCHAR uni0954
ENCODING 2388
SWIDTH 0 0
DWIDTH 0 0
BBX 2 2 -2 8
BITMAP
40
80
ENDCHAR
STARTCHAR uni0915093C
ENCODING 2392
SWIDTH 725 0
DWIDTH 8 0
BBX 8 8 0 -1
BITMAP
FF
76
8A
91
92
76
10
40
ENDCHAR
STARTCHAR uni0916093C
ENCODING 2393
SWIDTH 696 0
DWIDTH 8 0
BBX 8 8 0 -1
BITMAP
FF
22
2A
D2
52
4E
22
80
ENDCHAR
STARTCHAR uni0917093C
ENCODING 2394
SWIDTH 494 0
DWIDTH 5 0
BBX 6 8 0 -1
BITMAP
FC
48
48
48
88
08
08
40
ENDCHAR
STARTCHAR uni091C093C
ENCODING 2395
SWIDTH 547 0
DWIDTH 6 0
BBX 6 8 0 -1
BITMAP
FC
08
78
28
28
E8
08
40
ENDCHAR
STARTCHAR uni0921093C
ENCODING 2396
SWIDTH 475 0
DWIDTH 5 0
BBX 5 9 0 -2
BITMAP
F8
10
70
40
70
48
70
00
20
ENDCHAR
STARTCHAR uni0922093C
ENCODING 2397
SWIDTH 485 0
DWIDTH 5 0
BBX 6 9 0 -2
BITMAP
FC
10
70
40
50
68
78
00
20
ENDCHAR
STARTCHAR uni092B093C
ENCODING 2398
SWIDTH 739 0
DWIDTH 8 0
BBX 8 8 0 -1
BITMAP
FF
4E
49
49
31
0E
08
40
ENDCHAR
STARTCHAR uni092F093C
ENCODING 2399
SWIDTH 564 0
DWIDTH 6 0
BBX 6 8 0 -1
BITMAP
FC
28
48
48
48
38
08
40
ENDCHAR
STARTCHAR uni0960
ENCODING 2400
SWIDTH 753 0
DWIDTH 8 0
BBX 8 9 0 -2
BITMAP
FF
08
72
8D
8A
34
4B
04
03
ENDCHAR
STARTCHAR uni0961
ENCODING 2401
SWIDTH 676 0
DWIDTH 7 0
BBX 8 10 0 -3
BITMAP
FF
02
6C
52
52
44
68
06
08
06
ENDCHAR
STARTCHAR uni0964
ENCODING 2404
SWIDTH 286 0
DWIDTH 3 0
BBX 1 7 1 0
BITMAP
80
80
80
80
80
80
80
ENDCHAR
STARTCHAR uni0965
ENCODING 2405
SWIDTH 518 0
DWIDTH 6 0
BBX 3 7 2 0
BITMAP
A0
A0
A0
A0
A0
A0
A0
ENDCHAR
STARTCHAR uni0966
ENCODING 2406
SWIDTH 519 0
DWIDTH 6 0
BBX 4 7 1 0
BITMAP
F0
90
90
90
90
90
F0
ENDCHAR
STARTCHAR uni0967
ENCODING 2407
SWIDTH 288 0
DWIDTH 3 0
BBX 2 7 0 0
BITMAP
40
C0
40
40
40
40
40
ENDCHAR
STARTCHAR uni0968
ENCODING 2408
SWIDTH 453 0
DWIDTH 5 0
BBX 4 7 1 0
BITMAP
E0
90
10
20
C0
80
F0
ENDCHAR
STARTCHAR uni0969
ENCODING 2409
SWIDTH 489 0
DWIDTH 5 0
BBX 4 7 1 0
BITMAP
E0
90
10
60
10
90
E0
ENDCHAR
STARTCHAR uni096A
ENCODING 2410
SWIDTH 453 0
DWIDTH 5 0
BBX 5 7 0 0
BITMAP
10
30
30
50
90
F8
10
ENDCHAR
STARTCHAR uni096B
ENCODING 2411
SWIDTH 480 0
DWIDTH 5 0
BBX 4 7 1 0
BITMAP
F0
80
E0
10
10
90
E0
ENDCHAR
STARTCHAR uni096C
ENCODING 2412
SWIDTH 495 0
DWIDTH 5 0
BBX 4 7 1 0
BITMAP
F0
80
E0
90
90
90
E0
ENDCHAR
STARTCHAR uni096D
ENCODING 2413
SWIDTH 380 0
DWIDTH 4 0
BBX 4 7 0 0
BITMAP
F0
10
20
20
20
40
40
ENDCHAR
STARTCHAR uni096E
ENCODING 2414
SWIDTH 523 0
DWIDTH 6 0
BBX 4 7 1 0
BITMAP
F0
90
90
60
90
90
F0
ENDCHAR
STARTCHAR uni096F
ENCODING 2415
SWIDTH 493 0
DWIDTH 5 0
BBX 4 7 1 0
BITMAP
E0
90
90
F0
10
10
E0
ENDCHAR
STARTCHAR uni0970
ENCODING 2416
SWIDTH 391 0
DWIDTH 4 0
BBX 4 4 0 1
BITMAP
60
90
90
60
ENDCHAR
STARTCHAR uni0972
ENCODING 2418
SWIDTH 598 0
DWIDTH 7 0
BBX 7 9 0 0
BITMAP
12
0E
64
14
14
7C
14
14
E4
ENDCHAR
STARTCHAR Wgrave
ENCODING 7808
SWIDTH 795 0
DWIDTH 9 0
BBX 8 10 0 0
BITMAP
10
08
89
99
55
55
55
65
66
22
ENDCHAR
STARTCHAR wgrave
ENCODING 7809
SWIDTH 682 0
DWIDTH 8 0
BBX 7 8 0 0
BITMAP
30
00
92
92
5A
6A
6C
24
ENDCHAR
STARTCHAR Wacute
ENCODING 7810
SWIDTH 795 0
DWIDTH 9 0
BBX 8 10 0 0
BITMAP
04
08
89
99
55
55
55
65
66
22
ENDCHAR
STARTCHAR wacute
ENCODING 7811
SWIDTH 682 0
DWIDTH 8 0
BBX 7 8 0 0
BITMAP
08
00
92
92
5A
6A
6C
24
ENDCHAR
STARTCHAR Wdieresis
ENCODING 7812
SWIDTH 795 0
DWIDTH 9 0
BBX 8 10 0 0
BITMAP
14
14
89
99
55
55
55
65
66
22
ENDCHAR
STARTCHAR wdieresis
ENCODING 7813
SWIDTH 682 0
DWIDTH 8 0
BBX 7 8 0 0
BITMAP
28
28
92
92
5A
6A
6C
24
ENDCHAR
STARTCHAR uni1E9E
ENCODING 7838
SWIDTH 542 0
DWIDTH 6 0
BBX 4 8 1 0
BITMAP
F0
90
A0
B0
90
90
90
B0
ENDCHAR
STARTCHAR Ygrave
ENCODING 7922
SWIDTH 493 0
DWIDTH 5 0
BBX 5 10 0 0
BITMAP
60
20
88
48
50
30
20
20
20
20
ENDCHAR
STARTCHAR ygrave
ENCODING 7923
SWIDTH 459 0
DWIDTH 5 0
BBX 5 10 0 -2
BITMAP
60
00
88
48
50
50
50
20
20
40
ENDCHAR
STARTCHAR uni200B
ENCODING 8203
SWIDTH 0 0
DWIDTH 0 0
BBX 1 1 0 0
BITMAP
00
ENDCHAR
STARTCHAR uni200C
ENCODING 8204
SWIDTH 0 0
DWIDTH 0 0
BBX 1 12 0 -3
BITMAP
80
80
80
80
80
80
80
80
80
80
80
80
ENDCHAR
STARTCHAR uni200D
ENCODING 8205
SWIDTH 0 0
DWIDTH 0 0
BBX 2 12 -1 -3
BITMAP
C0
C0
C0
40
40
40
40
40
40
40
40
40
ENDCHAR
STARTCHAR endash
ENCODING 8211
SWIDTH 408 0
DWIDTH 4 0
BBX 4 1 0 3
BITMAP
F0
ENDCHAR
STARTCHAR emdash
ENCODING 8212
SWIDTH 537 0
DWIDTH 6 0
BBX 5 1 0 3
BITMAP
F8
ENDCHAR
STARTCHAR quoteleft
ENCODING 8216
SWIDTH 179 0
DWIDTH 2 0
BBX 1 3 0 5
BITMAP
80
80
80
ENDCHAR
STARTCHAR quoteright
ENCODING 8217
SWIDTH 179 0
DWIDTH 2 0
BBX 1 3 0 5
BITMAP
80
80
80
ENDCHAR
STARTCHAR quotesinglbase
ENCODING 8218
SWIDTH 187 0
DWIDTH 2 0
BBX 1 3 1 -1
BITMAP
80
80
80
ENDCHAR
STARTCHAR quotedblleft
ENCODING 8220
SWIDTH 329 0
DWIDTH 4 0
BBX 2 3 1 5
BITMAP
C0
C0
C0
ENDCHAR
STARTCHAR quotedblright
ENCODING 8221
SWIDTH 329 0
DWIDTH 4 0
BBX 2 3 1 5
BITMAP
C0
C0
C0
ENDCHAR
STARTCHAR quotedblbase
ENCODING 8222
SWIDTH 337 0
DWIDTH 4 0
BBX 2 3 1 -1
BITMAP
C0
C0
C0
ENDCHAR
STARTCHAR dagger
ENCODING 8224
SWIDTH 427 0
DWIDTH 5 0
BBX 4 8 0 0
BITMAP
20
20
F0
20
20
20
20
20
ENDCHAR
STARTCHAR daggerdbl
ENCODING 8225
SWIDTH 427 0
DWIDTH 5 0
BBX 4 8 0 0
BITMAP
20
20
F0
20
20
F0
20
20
ENDCHAR
STARTCHAR bullet
ENCODING 8226
SWIDTH 273 0
DWIDTH 3 0
BBX 1 2 1 3
BITMAP
80
80
ENDCHAR
STARTCHAR ellipsis
ENCODING 8230
SWIDTH 591 0
DWIDTH 7 0
BBX 5 2 1 0
BITMAP
A8
A8
ENDCHAR
STARTCHAR perthousand
ENCODING 8240
SWIDTH 1027 0
DWIDTH 11 0
BBX 10 8 1 0
BITMAP
C800
B000
B000
D000
2C80
3340
5340
4DC0
ENDCHAR
STARTCHAR guilsinglleft
ENCODING 8249
SWIDTH 290 0
DWIDTH 3 0
BBX 1 4 1 1
BITMAP
80
80
80
80
ENDCHAR
STARTCHAR guilsinglright
ENCODING 8250
SWIDTH 290 0
DWIDTH 3 0
BBX 1 4 1 1
BITMAP
80
80
80
80
ENDCHAR
STARTCHAR fraction
ENCODING 8260
SWIDTH 117 0
DWIDTH 1 0
BBX 5 8 -2 0
BITMAP
08
08
10
20
20
40
40
80
ENDCHAR
STARTCHAR Euro
ENCODING 8364
SWIDTH 523 0
DWIDTH 6 0
BBX 5 8 0 0
BITMAP
38
48
40
F0
F0
40
48
38
ENDCHAR
STARTCHAR uni20B9
ENCODING 8377
SWIDTH 414 0
DWIDTH 5 0
BBX 4 7 0 0
BITMAP
F0
F0
20
C0
40
40
20
ENDCHAR
STARTCHAR trademark
ENCODING 8482
SWIDTH 591 0
DWIDTH 7 0
BBX 5 3 1 4
BITMAP
E8
B8
A8
ENDCHAR
STARTCHAR uni2126
ENCODING 8486
SWIDTH 629 0
DWIDTH 7 0
BBX 6 7 0 0
BITMAP
7C
44
44
44
44
44
EC
ENDCHAR
STARTCHAR partialdiff
ENCODING 8706
SWIDTH 481 0
DWIDTH 5 0
BBX 4 8 1 0
BITMAP
C0
20
10
F0
90
90
90
E0
ENDCHAR
STARTCHAR uni2206
ENCODING 8710
SWIDTH 594 0
DWIDTH 7 0
BBX 6 7 0 0
BITMAP
10
30
28
48
48
44
FC
ENDCHAR
STARTCHAR minus
ENCODING 8722
SWIDTH 523 0
DWIDTH 6 0
BBX 4 1 1 3
BITMAP
F0
ENDCHAR
STARTCHAR approxequal
ENCODING 8776
SWIDTH 523 0
DWIDTH 6 0
BBX 4 3 1 2
BITMAP
F0
00
F0
ENDCHAR
STARTCHAR notequal
ENCODING 8800
SWIDTH 523 0
DWIDTH 6 0
BBX 4 5 1 1
BITMAP
20
F0
40
F0
40
ENDCHAR
STARTCHAR lessequal
ENCODING 8804
SWIDTH 523 0
DWIDTH 6 0
BBX 4 5 1 1
BITMAP
10
60
E0
10
F0
ENDCHAR
STARTCHAR greaterequal
ENCODING 8805
SWIDTH 523 0
DWIDTH 6 0
BBX 4 5 1 1
BITMAP
80
60
70
80
F0
ENDCHAR
STARTCHAR uni25CC
ENCODING 9676
SWIDTH 701 0
DWIDTH 8 0
BBX 6 7 1 0
BITMAP
30
44
80
04
84
88
50
ENDCHAR
STARTCHAR commaaccent
ENCODING 63171
SWIDTH 0 0
DWIDTH 0 0
BBX 1 2 2 -3
BITMAP
80
80
ENDCHAR
STARTCHAR .notdef
ENCODING -1
SWIDTH 600 0
DWIDTH 7 0
BBX 4 7 1 0
BITMAP
F0
90
90
90
90
90
F0
ENDCHAR
STARTCHAR .null
ENCODING -1
SWIDTH 0 0
DWIDTH 0 0
BBX 1 1 0 0
BITMAP
00
ENDCHAR
STARTCHAR nonmarkingreturn
ENCODING -1
SWIDTH 333 0
DWIDTH 4 0
BBX 1 1 0 0
BITMAP
00
ENDCHAR
STARTCHAR uni0915094D
ENCODING -1
SWIDTH 519 0
DWIDTH 6 0
BBX 7 7 0 0
BITMAP
FE
76
88
90
90
70
10
ENDCHAR
STARTCHAR uni0916094D
ENCODING -1
SWIDTH 468 0
DWIDTH 5 0
BBX 6 7 0 0
BITMAP
FC
20
28
D0
50
4C
20
ENDCHAR
STARTCHAR uni0917094D
ENCODING -1
SWIDTH 264 0
DWIDTH 3 0
BBX 3 5 0 2
BITMAP
E0
40
40
40
80
ENDCHAR
STARTCHAR uni0918094D
ENCODING -1
SWIDTH 321 0
DWIDTH 4 0
BBX 5 6 0 1
BITMAP
F8
40
60
40
40
78
ENDCHAR
STARTCHAR uni0919094D
ENCODING -1
SWIDTH 505 0
DWIDTH 6 0
BBX 6 9 0 -2
BITMAP
FC
10
70
48
70
08
50
20
10
ENDCHAR
STARTCHAR uni091A094D
ENCODING -1
SWIDTH 330 0
DWIDTH 4 0
BBX 5 6 0 1
BITMAP
F8
00
F0
40
40
38
ENDCHAR
STARTCHAR uni091B094D
ENCODING -1
SWIDTH 581 0
DWIDTH 6 0
BBX 7 7 0 0
BITMAP
FE
40
48
24
44
44
78
ENDCHAR
STARTCHAR uni091C094D
ENCODING -1
SWIDTH 309 0
DWIDTH 3 0
BBX 5 6 0 1
BITMAP
F8
00
78
20
20
E0
ENDCHAR
STARTCHAR uni091D094D
ENCODING -1
SWIDTH 432 0
DWIDTH 5 0
BBX 6 8 0 -1
BITMAP
FC
10
70
40
7C
50
70
40
ENDCHAR
STARTCHAR uni091E094D
ENCODING -1
SWIDTH 359 0
DWIDTH 4 0
BBX 5 6 0 1
BITMAP
F8
60
20
18
20
E0
ENDCHAR
STARTCHAR uni091F094D
ENCODING -1
SWIDTH 485 0
DWIDTH 5 0
BBX 5 9 0 -2
BITMAP
F8
10
70
40
80
48
70
00
10
ENDCHAR
STARTCHAR uni0920094D
ENCODING -1
SWIDTH 512 0
DWIDTH 6 0
BBX 6 9 0 -2
BITMAP
FC
08
70
48
88
88
70
20
10
ENDCHAR
STARTCHAR uni0921094D
ENCODING -1
SWIDTH 475 0
DWIDTH 5 0
BBX 5 9 0 -2
BITMAP
F8
10
70
40
70
48
50
20
10
ENDCHAR
STARTCHAR uni0922094D
ENCODING -1
SWIDTH 485 0
DWIDTH 5 0
BBX 6 9 0 -2
BITMAP
FC
10
70
40
50
68
78
20
10
ENDCHAR
STARTCHAR uni0923094D
ENCODING -1
SWIDTH 454 0
DWIDTH 5 0
BBX 5 5 0 2
BITMAP
F8
50
50
50
70
ENDCHAR
STARTCHAR uni0924094D
ENCODING -1
SWIDTH 263 0
DWIDTH 3 0
BBX 4 7 0 0
BITMAP
F0
00
70
80
80
80
60
ENDCHAR
STARTCHAR uni0925094D
ENCODING -1
SWIDTH 359 0
DWIDTH 4 0
BBX 4 6 1 1
BITMAP
C0
A0
20
C0
80
F0
ENDCHAR
STARTCHAR uni0926094D
ENCODING -1
SWIDTH 489 0
DWIDTH 5 0
BBX 6 8 0 -1
BITMAP
FC
08
70
40
48
78
08
30
ENDCHAR
STARTCHAR uni0927094D
ENCODING -1
SWIDTH 321 0
DWIDTH 4 0
BBX 5 6 0 1
BITMAP
F8
40
60
40
40
78
ENDCHAR
STARTCHAR uni0928094D
ENCODING -1
SWIDTH 233 0
DWIDTH 3 0
BBX 4 5 0 2
BITMAP
F0
00
00
70
80
ENDCHAR
STARTCHAR uni092A094D
ENCODING -1
SWIDTH 269 0
DWIDTH 3 0
BBX 4 5 0 2
BITMAP
F0
40
40
40
30
ENDCHAR
STARTCHAR uni092B094D
ENCODING -1
SWIDTH 530 0
DWIDTH 6 0
BBX 7 7 0 0
BITMAP
FE
4E
48
48
30
08
08
ENDCHAR
STARTCHAR uni092C094D
ENCODING -1
SWIDTH 265 0
DWIDTH 3 0
BBX 4 6 0 1
BITMAP
F0
60
40
A0
90
70
ENDCHAR
STARTCHAR uni092D094D
ENCODING -1
SWIDTH 261 0
DWIDTH 3 0
BBX 4 5 0 2
BITMAP
90
40
40
70
40
ENDCHAR
STARTCHAR uni092E094D
ENCODING -1
SWIDTH 261 0
DWIDTH 3 0
BBX 4 5 0 2
BITMAP
F0
40
40
70
40
ENDCHAR
STARTCHAR uni092F094D
ENCODING -1
SWIDTH 323 0
DWIDTH 4 0
BBX 5 6 0 1
BITMAP
F8
20
40
40
40
38
ENDCHAR
STARTCHAR uni0930094D
ENCODING -1
SWIDTH 337 0
DWIDTH 4 0
BBX 4 9 0 -2
BITMAP
F0
20
20
C0
40
40
20
40
20
ENDCHAR
STARTCHAR uni0932094D
ENCODING -1
SWIDTH 431 0
DWIDTH 5 0
BBX 6 7 0 0
BITMAP
FC
00
6C
50
50
40
60
ENDCHAR
STARTCHAR uni0933094D
ENCODING -1
SWIDTH 677 0
DWIDTH 7 0
BBX 8 7 0 0
BITMAP
FF
00
6C
52
92
92
7C
ENDCHAR
STARTCHAR uni0935094D
ENCODING -1
SWIDTH 255 0
DWIDTH 3 0
BBX 4 6 0 1
BITMAP
F0
60
80
80
90
70
ENDCHAR
STARTCHAR uni0936094D
ENCODING -1
SWIDTH 378 0
DWIDTH 4 0
BBX 4 7 0 0
BITMAP
60
50
10
E0
40
40
20
ENDCHAR
STARTCHAR uni0937094D
ENCODING -1
SWIDTH 282 0
DWIDTH 3 0
BBX 5 5 0 2
BITMAP
F8
60
50
48
70
ENDCHAR
STARTCHAR uni0938094D
ENCODING -1
SWIDTH 338 0
DWIDTH 4 0
BBX 5 7 0 0
BITMAP
F8
20
20
F8
40
40
20
ENDCHAR
STARTCHAR uni0939094D
ENCODING -1
SWIDTH 457 0
DWIDTH 5 0
BBX 6 8 0 -1
BITMAP
F8
70
40
40
3C
40
40
70
ENDCHAR
STARTCHAR uni0915093C094D
ENCODING -1
SWIDTH 519 0
DWIDTH 6 0
BBX 7 8 0 -1
BITMAP
FE
76
88
90
90
70
10
40
ENDCHAR
STARTCHAR uni0916093C094D
ENCODING -1
SWIDTH 463 0
DWIDTH 5 0
BBX 6 8 0 -1
BITMAP
FC
20
28
D0
50
4C
20
40
ENDCHAR
STARTCHAR uni0917093C094D
ENCODING -1
SWIDTH 264 0
DWIDTH 3 0
BBX 3 7 0 0
BITMAP
E0
40
40
40
80
00
40
ENDCHAR
STARTCHAR uni091C093C094D
ENCODING -1
SWIDTH 314 0
DWIDTH 3 0
BBX 5 8 0 -1
BITMAP
F8
00
78
20
20
E0
00
40
ENDCHAR
STARTCHAR uni0928093C094D
ENCODING -1
SWIDTH 241 0
DWIDTH 3 0
BBX 4 7 0 0
BITMAP
F0
00
00
70
80
00
40
ENDCHAR
STARTCHAR uni092B093C094D
ENCODING -1
SWIDTH 530 0
DWIDTH 6 0
BBX 7 8 0 -1
BITMAP
FE
4E
48
48
30
08
08
40
ENDCHAR
STARTCHAR uni092F093C094D
ENCODING -1
SWIDTH 325 0
DWIDTH 4 0
BBX 5 8 0 -1
BITMAP
F8
20
40
40
40
38
00
40
ENDCHAR
STARTCHAR uni09080902
ENCODING -1
SWIDTH 478 0
DWIDTH 5 0
BBX 5 10 0 0
BITMAP
18
18
10
F8
10
70
40
70
48
70
ENDCHAR
STARTCHAR uni09300941
ENCODING -1
SWIDTH 533 0
DWIDTH 6 0
BBX 6 7 0 0
BITMAP
FC
20
38
C8
48
50
20
ENDCHAR
STARTCHAR uni09300942
ENCODING -1
SWIDTH 645 0
DWIDTH 7 0
BBX 7 7 0 0
BITMAP
FE
2C
32
D2
44
48
20
ENDCHAR
STARTCHAR uni09390941
ENCODING -1
SWIDTH 495 0
DWIDTH 5 0
BBX 6 10 0 -3
BITMAP
FC
08
70
40
30
48
40
70
88
70
ENDCHAR
STARTCHAR uni09390942
ENCODING -1
SWIDTH 492 0
DWIDTH 5 0
BBX 5 10 0 -3
BITMAP
F8
08
70
40
30
48
60
50
48
68
ENDCHAR
STARTCHAR uni09260943
ENCODING -1
SWIDTH 390 0
DWIDTH 4 0
BBX 4 7 0 0
BITMAP
F0
10
60
40
60
40
70
ENDCHAR
STARTCHAR uni09390943
ENCODING -1
SWIDTH 519 0
DWIDTH 6 0
BBX 6 9 0 -2
BITMAP
FC
08
70
40
78
68
98
40
70
ENDCHAR
STARTCHAR uni094D0930
ENCODING -1
SWIDTH 0 0
DWIDTH 0 0
BBX 3 2 -4 -2
BITMAP
40
A0
ENDCHAR
STARTCHAR uni0930094D.1
ENCODING -1
SWIDTH 192 0
DWIDTH 2 0
BBX 4 3 -1 4
BITMAP
60
00
F0
ENDCHAR
STARTCHAR uni0930094D.2
ENCODING -1
SWIDTH 0 0
DWIDTH 0 0
BBX 2 3 -2 7
BITMAP
40
80
80
ENDCHAR
STARTCHAR uni0930094D0902
ENCODING -1
SWIDTH 0 0
DWIDTH 0 0
BBX 2 3 -2 7
BITMAP
40
C0
80
ENDCHAR
STARTCHAR uni093E0930094D
ENCODING -1
SWIDTH 231 0
DWIDTH 3 0
BBX 3 10 0 0
BITMAP
60
40
40
E0
40
40
40
40
40
40
ENDCHAR
STARTCHAR uni093E0930094D0902
ENCODING -1
SWIDTH 231 0
DWIDTH 3 0
BBX 3 10 0 0
BITMAP
60
60
40
E0
40
40
40
40
40
40
ENDCHAR
STARTCHAR uni0930094D.aMatraI
ENCODING -1
SWIDTH 0 0
DWIDTH 0 0
BBX 2 3 -1 7
BITMAP
40
80
80
ENDCHAR
STARTCHAR uni0902.aMatraI
ENCODING -1
SWIDTH 0 0
DWIDTH 0 0
BBX 1 1 0 8
BITMAP
80
ENDCHAR
STARTCHAR uni0930094D0902.aMatraI
ENCODING -1
SWIDTH 0 0
DWIDTH 0 0
BBX 2 3 -1 7
BITMAP
40
80
C0
ENDCHAR
STARTCHAR uni09400930094D
ENCODING -1
SWIDTH 231 0
DWIDTH 3 0
BBX 5 10 -2 0
BITMAP
78
90
10
38
10
10
10
10
10
10
ENDCHAR
STARTCHAR uni09400902
ENCODING -1
SWIDTH 231 0
DWIDTH 3 0
BBX 5 10 -2 0
BITMAP
60
98
10
38
10
10
10
10
10
10
ENDCHAR
STARTCHAR uni09400930094D0902
ENCODING -1
SWIDTH 231 0
DWIDTH 3 0
BBX 5 10 -2 0
BITMAP
78
98
10
38
10
10
10
10
10
10
ENDCHAR
STARTCHAR uni0940.aLong
ENCODING -1
SWIDTH 231 0
DWIDTH 3 0
BBX 7 10 -4 0
BITMAP
F8
84
04
0E
04
04
04
04
04
04
ENDCHAR
STARTCHAR uni09400930094D.aLong
ENCODING -1
SWIDTH 231 0
DWIDTH 3 0
BBX 7 10 -4 0
BITMAP
FE
84
04
0E
04
04
04
04
04
04
ENDCHAR
STARTCHAR uni09400902.aLong
ENCODING -1
SWIDTH 231 0
DWIDTH 3 0
BBX 7 10 -4 0
BITMAP
F8
86
04
0E
04
04
04
04
04
04
ENDCHAR
STARTCHAR uni09400930094D0902.aLong
ENCODING -1
SWIDTH 231 0
DWIDTH 3 0
BBX 7 10 -4 0
BITMAP
FE
86
04
0E
04
04
04
04
04
04
ENDCHAR
STARTCHAR uni09470930094D
ENCODING -1
SWIDTH 0 0
DWIDTH 0 0
BBX 3 3 -3 7
BITMAP
A0
C0
40
ENDCHAR
STARTCHAR uni09470902
ENCODING -1
SWIDTH 0 0
DWIDTH 0 0
BBX 3 3 -3 7
BITMAP
80
A0
40
ENDCHAR
STARTCHAR uni09470901
ENCODING -1
SWIDTH 0 0
DWIDTH 0 0
BBX 5 3 -3 7
BITMAP
90
C8
78
ENDCHAR
STARTCHAR uni09470930094D0902
ENCODING -1
SWIDTH 0 0
DWIDTH 0 0
BBX 3 3 -3 7
BITMAP
A0
E0
40
ENDCHAR
STARTCHAR uni09480930094D
ENCODING -1
SWIDTH 0 0
DWIDTH 0 0
BBX 4 3 -4 7
BITMAP
B0
60
20
ENDCHAR
STARTCHAR uni09480902
ENCODING -1
SWIDTH 0 0
DWIDTH 0 0
BBX 3 3 -3 7
BITMAP
C0
E0
40
ENDCHAR
STARTCHAR uni09480901
ENCODING -1
SWIDTH 0 0
DWIDTH 0 0
BBX 6 3 -3 7
BITMAP
C8
DC
40
ENDCHAR
STARTCHAR uni09480930094D0902
ENCODING -1
SWIDTH 0 0
DWIDTH 0 0
BBX 4 3 -4 7
BITMAP
B0
70
20
ENDCHAR
STARTCHAR uni094B0930094D
ENCODING -1
SWIDTH 231 0
DWIDTH 3 0
BBX 4 10 -1 0
BITMAP
B0
60
20
70
20
20
20
20
20
20
ENDCHAR
STARTCHAR uni094B0902
ENCODING -1
SWIDTH 231 0
DWIDTH 3 0
BBX 4 10 -1 0
BITMAP
80
60
40
30
20
20
20
20
20
20
ENDCHAR
STARTCHAR uni094B0930094D0902
ENCODING -1
SWIDTH 231 0
DWIDTH 3 0
BBX 4 10 -1 0
BITMAP
B0
70
20
70
20
20
20
20
20
20
ENDCHAR
STARTCHAR uni094C0930094D
ENCODING -1
SWIDTH 231 0
DWIDTH 3 0
BBX 4 10 -1 0
BITMAP
F0
60
60
30
20
20
20
20
20
20
ENDCHAR
STARTCHAR uni094C0902
ENCODING -1
SWIDTH 231 0
DWIDTH 3 0
BBX 4 10 -1 0
BITMAP
A0
70
20
70
20
20
20
20
20
20
ENDCHAR
STARTCHAR uni094C0930094D0902
ENCODING -1
SWIDTH 231 0
DWIDTH 3 0
BBX 4 10 -1 0
BITMAP
F0
70
60
30
20
20
20
20
20
20
ENDCHAR
STARTCHAR uni0915094D0937
ENCODING -1
SWIDTH 656 0
DWIDTH 7 0
BBX 6 7 1 0
BITMAP
6C
98
F8
88
A8
E8
28
ENDCHAR
STARTCHAR uni0915094D0937094D
ENCODING -1
SWIDTH 429 0
DWIDTH 5 0
BBX 5 7 1 0
BITMAP
60
90
F8
80
A0
E0
20
ENDCHAR
STARTCHAR uni0915094D0937094D092E
ENCODING -1
SWIDTH 933 0
DWIDTH 10 0
BBX 9 7 1 0
BITMAP
6F80
9900
F900
8700
A900
E100
2100
ENDCHAR
STARTCHAR uni0915094D0937094D092E094D
ENCODING -1
SWIDTH 717 0
DWIDTH 8 0
BBX 8 7 1 0
BITMAP
6F
98
F8
87
A8
E0
20
ENDCHAR
STARTCHAR uni0915094D0937094D092E094D092F
ENCODING -1
SWIDTH 1283 0
DWIDTH 14 0
BBX 13 7 1 0
BITMAP
6FF8
9850
F890
8710
A910
E0F0
2010
ENDCHAR
STARTCHAR uni0915094D0937094D092F
ENCODING -1
SWIDTH 989 0
DWIDTH 11 0
BBX 10 7 1 0
BITMAP
6FC0
9280
FC80
8880
A880
E780
2080
ENDCHAR
STARTCHAR uni0915094D0937094D0935
ENCODING -1
SWIDTH 936 0
DWIDTH 10 0
BBX 9 7 1 0
BITMAP
6F80
9680
F880
8880
A880
E780
2080
ENDCHAR
STARTCHAR uni091C094D091E
ENCODING -1
SWIDTH 629 0
DWIDTH 7 0
BBX 7 8 0 -1
BITMAP
FE
04
7C
44
74
4C
74
40
ENDCHAR
STARTCHAR uni091C094D091E094D
ENCODING -1
SWIDTH 398 0
DWIDTH 4 0
BBX 6 8 0 -1
BITMAP
FC
00
7C
40
70
48
70
40
ENDCHAR
STARTCHAR uni091C094D091E094D092F
ENCODING -1
SWIDTH 975 0
DWIDTH 11 0
BBX 11 8 0 -1
BITMAP
FFE0
0140
7940
4640
7440
4BC0
7040
4000
ENDCHAR
STARTCHAR uni0915094D0928
ENCODING -1
SWIDTH 1003 0
DWIDTH 11 0
BBX 11 7 0 0
BITMAP
FFE0
7440
8A40
91C0
9240
7040
1040
ENDCHAR
STARTCHAR uni0916094D0928
ENCODING -1
SWIDTH 958 0
DWIDTH 11 0
BBX 11 7 0 0
BITMAP
FFE0
2040
2C40
D3C0
4C40
4240
2040
ENDCHAR
STARTCHAR uni0917094D0928
ENCODING -1
SWIDTH 736 0
DWIDTH 8 0
BBX 8 7 0 0
BITMAP
FF
42
42
4E
92
02
02
ENDCHAR
STARTCHAR uni0918094D0928
ENCODING -1
SWIDTH 814 0
DWIDTH 9 0
BBX 9 7 0 0
BITMAP
FF80
4100
6100
4700
4900
7900
0100
ENDCHAR
STARTCHAR uni091A094D0928
ENCODING -1
SWIDTH 829 0
DWIDTH 9 0
BBX 9 7 0 0
BITMAP
FF80
0100
F100
4700
4900
3900
0100
ENDCHAR
STARTCHAR uni091B094D0928
ENCODING -1
SWIDTH 977 0
DWIDTH 11 0
BBX 11 7 0 0
BITMAP
FFE0
4840
4440
67C0
4640
4440
7840
ENDCHAR
STARTCHAR uni091C094D0928
ENCODING -1
SWIDTH 831 0
DWIDTH 9 0
BBX 9 7 0 0
BITMAP
FF80
0100
7F00
2900
2900
2100
E100
ENDCHAR
STARTCHAR uni091D094D0928
ENCODING -1
SWIDTH 935 0
DWIDTH 10 0
BBX 10 8 0 -1
BITMAP
FFC0
7040
4040
7FC0
1440
5040
7040
4000
ENDCHAR
STARTCHAR uni091F094D0928
ENCODING -1
SWIDTH 494 0
DWIDTH 5 0
BBX 6 10 0 -3
BITMAP
FC
10
70
40
88
48
70
70
48
08
ENDCHAR
STARTCHAR uni0920094D0928
ENCODING -1
SWIDTH 516 0
DWIDTH 6 0
BBX 6 10 0 -3
BITMAP
FC
08
70
48
88
48
70
70
48
08
ENDCHAR
STARTCHAR uni0921094D0928
ENCODING -1
SWIDTH 481 0
DWIDTH 5 0
BBX 5 10 0 -3
BITMAP
F8
08
70
40
30
48
70
70
48
08
ENDCHAR
STARTCHAR uni0924094D0928
ENCODING -1
SWIDTH 756 0
DWIDTH 8 0
BBX 8 7 0 0
BITMAP
FF
01
71
8E
91
81
61
ENDCHAR
STARTCHAR uni0925094D0928
ENCODING -1
SWIDTH 855 0
DWIDTH 9 0
BBX 9 7 1 0
BITMAP
DF80
A100
2100
CE00
9100
F100
0100
ENDCHAR
STARTCHAR uni0926094D0928
ENCODING -1
SWIDTH 955 0
DWIDTH 11 0
BBX 11 9 0 -2
BITMAP
FFE0
0840
7040
43C0
4A40
7840
0840
0000
0C00
ENDCHAR
STARTCHAR uni0927094D0928
ENCODING -1
SWIDTH 814 0
DWIDTH 9 0
BBX 9 7 0 0
BITMAP
EF80
4100
6100
4700
4900
7900
0100
ENDCHAR
STARTCHAR uni0928094D0928
ENCODING -1
SWIDTH 738 0
DWIDTH 8 0
BBX 8 7 0 0
BITMAP
FF
02
02
7E
92
02
02
ENDCHAR
STARTCHAR uni092A094D0928
ENCODING -1
SWIDTH 782 0
DWIDTH 9 0
BBX 9 7 0 0
BITMAP
FF80
4100
4100
4F00
3900
0100
0100
ENDCHAR
STARTCHAR uni092B094D0928
ENCODING -1
SWIDTH 1013 0
DWIDTH 11 0
BBX 11 7 0 0
BITMAP
FFE0
4C40
4A40
49C0
3240
0840
0840
ENDCHAR
STARTCHAR uni092C094D0928
ENCODING -1
SWIDTH 810 0
DWIDTH 9 0
BBX 9 7 0 0
BITMAP
FF80
6100
4100
AF00
9900
7100
0100
ENDCHAR
STARTCHAR uni092D094D0928
ENCODING -1
SWIDTH 757 0
DWIDTH 8 0
BBX 8 7 0 0
BITMAP
9F
41
41
7E
51
01
01
ENDCHAR
STARTCHAR uni092E094D0928
ENCODING -1
SWIDTH 757 0
DWIDTH 8 0
BBX 8 7 0 0
BITMAP
FF
41
41
7E
51
01
01
ENDCHAR
STARTCHAR uni092F094D0928
ENCODING -1
SWIDTH 829 0
DWIDTH 9 0
BBX 9 7 0 0
BITMAP
FF80
2100
4100
4700
4900
3900
0100
ENDCHAR
STARTCHAR uni0935094D0928
ENCODING -1
SWIDTH 798 0
DWIDTH 9 0
BBX 9 7 0 0
BITMAP
FF80
6100
8100
8F00
8900
7100
0100
ENDCHAR
STARTCHAR uni0936094D0928
ENCODING -1
SWIDTH 845 0
DWIDTH 9 0
BBX 9 7 0 0
BITMAP
6780
5080
1080
EF80
4880
4080
2080
ENDCHAR
STARTCHAR uni0938094D0928
ENCODING -1
SWIDTH 831 0
DWIDTH 9 0
BBX 9 7 0 0
BITMAP
FF80
2100
2100
FF00
4900
4100
2100
ENDCHAR
STARTCHAR uni0939094D0928
ENCODING -1
SWIDTH 500 0
DWIDTH 6 0
BBX 6 9 0 -2
BITMAP
FC
08
78
40
38
58
68
40
30
ENDCHAR
STARTCHAR uni0915094D0930
ENCODING -1
SWIDTH 725 0
DWIDTH 8 0
BBX 8 7 0 0
BITMAP
FF
76
8A
91
92
76
70
ENDCHAR
STARTCHAR uni0916094D0930
ENCODING -1
SWIDTH 698 0
DWIDTH 8 0
BBX 8 7 0 0
BITMAP
FF
22
2A
D2
52
4E
2A
ENDCHAR
STARTCHAR uni0917094D0930
ENCODING -1
SWIDTH 494 0
DWIDTH 5 0
BBX 6 7 0 0
BITMAP
FC
48
48
48
90
28
48
ENDCHAR
STARTCHAR uni0918094D0930
ENCODING -1
SWIDTH 559 0
DWIDTH 6 0
BBX 6 7 0 0
BITMAP
FC
48
68
48
48
78
28
ENDCHAR
STARTCHAR uni0919094D0930
ENCODING -1
SWIDTH 505 0
DWIDTH 6 0
BBX 6 9 0 -2
BITMAP
FC
10
70
48
70
08
50
30
50
ENDCHAR
STARTCHAR uni091A094D0930
ENCODING -1
SWIDTH 563 0
DWIDTH 6 0
BBX 6 7 0 0
BITMAP
FC
08
F8
48
48
38
28
ENDCHAR
STARTCHAR uni091B094D0930
ENCODING -1
SWIDTH 581 0
DWIDTH 6 0
BBX 7 8 0 -1
BITMAP
FE
44
48
24
44
44
78
38
ENDCHAR
STARTCHAR uni091C094D0930
ENCODING -1
SWIDTH 547 0
DWIDTH 6 0
BBX 6 7 0 0
BITMAP
FC
08
78
28
28
E8
38
ENDCHAR
STARTCHAR uni091D094D0930
ENCODING -1
SWIDTH 684 0
DWIDTH 8 0
BBX 8 7 0 0
BITMAP
FF
72
42
7E
52
56
7A
ENDCHAR
STARTCHAR uni091E094D0930
ENCODING -1
SWIDTH 598 0
DWIDTH 7 0
BBX 7 7 0 0
BITMAP
FE
64
24
1C
24
EC
14
ENDCHAR
STARTCHAR uni091F094D0930
ENCODING -1
SWIDTH 485 0
DWIDTH 5 0
BBX 5 9 0 -2
BITMAP
F8
10
70
40
80
48
70
30
48
ENDCHAR
STARTCHAR uni0920094D0930
ENCODING -1
SWIDTH 512 0
DWIDTH 6 0
BBX 6 8 0 -1
BITMAP
FC
08
70
48
88
88
70
78
ENDCHAR
STARTCHAR uni0921094D0930
ENCODING -1
SWIDTH 475 0
DWIDTH 5 0
BBX 5 8 0 -1
BITMAP
F8
10
70
40
70
48
70
50
ENDCHAR
STARTCHAR uni0922094D0930
ENCODING -1
SWIDTH 485 0
DWIDTH 5 0
BBX 6 8 0 -1
BITMAP
FC
10
70
40
50
68
48
78
ENDCHAR
STARTCHAR uni0923094D0930
ENCODING -1
SWIDTH 681 0
DWIDTH 7 0
BBX 8 7 0 0
BITMAP
FF
52
52
52
74
0A
12
ENDCHAR
STARTCHAR uni0924094D0930
ENCODING -1
SWIDTH 493 0
DWIDTH 5 0
BBX 6 7 0 0
BITMAP
FC
08
70
88
08
38
48
ENDCHAR
STARTCHAR uni0925094D0930
ENCODING -1
SWIDTH 593 0
DWIDTH 7 0
BBX 6 7 1 0
BITMAP
CC
A8
28
C8
88
F8
68
ENDCHAR
STARTCHAR uni0926094D0930
ENCODING -1
SWIDTH 489 0
DWIDTH 5 0
BBX 6 7 0 0
BITMAP
FC
08
70
40
48
78
28
ENDCHAR
STARTCHAR uni0927094D0930
ENCODING -1
SWIDTH 560 0
DWIDTH 6 0
BBX 6 7 0 0
BITMAP
EC
48
68
48
48
78
38
ENDCHAR
STARTCHAR uni0928094D0930
ENCODING -1
SWIDTH 473 0
DWIDTH 5 0
BBX 5 7 0 0
BITMAP
F8
10
10
70
90
30
50
ENDCHAR
STARTCHAR uni092A094D0930
ENCODING -1
SWIDTH 503 0
DWIDTH 6 0
BBX 6 7 0 0
BITMAP
FC
48
48
48
78
28
48
ENDCHAR
STARTCHAR uni092B094D0930
ENCODING -1
SWIDTH 741 0
DWIDTH 8 0
BBX 8 7 0 0
BITMAP
FF
4E
49
49
31
2E
48
ENDCHAR
STARTCHAR uni092C094D0930
ENCODING -1
SWIDTH 491 0
DWIDTH 5 0
BBX 6 7 0 0
BITMAP
FC
68
48
A8
90
70
68
ENDCHAR
STARTCHAR uni092D094D0930
ENCODING -1
SWIDTH 491 0
DWIDTH 5 0
BBX 6 7 0 0
BITMAP
9C
48
48
70
50
28
48
ENDCHAR
STARTCHAR uni092E094D0930
ENCODING -1
SWIDTH 490 0
DWIDTH 5 0
BBX 6 7 0 0
BITMAP
FC
48
48
70
50
28
48
ENDCHAR
STARTCHAR uni092F094D0930
ENCODING -1
SWIDTH 564 0
DWIDTH 6 0
BBX 6 7 0 0
BITMAP
FC
28
48
48
48
38
28
ENDCHAR
STARTCHAR uni0935094D0930
ENCODING -1
SWIDTH 484 0
DWIDTH 5 0
BBX 5 7 0 0
BITMAP
F8
68
88
88
88
70
68
ENDCHAR
STARTCHAR uni0936094D0930
ENCODING -1
SWIDTH 558 0
DWIDTH 6 0
BBX 6 7 0 0
BITMAP
6C
98
58
28
D8
18
28
ENDCHAR
STARTCHAR uni0938094D0930
ENCODING -1
SWIDTH 604 0
DWIDTH 7 0
BBX 7 7 0 0
BITMAP
FE
24
24
FC
4C
54
24
ENDCHAR
STARTCHAR uni0939094D0930
ENCODING -1
SWIDTH 505 0
DWIDTH 6 0
BBX 6 9 0 -2
BITMAP
FC
08
70
40
78
58
A8
40
70
ENDCHAR
STARTCHAR uni0915093C094D0930
ENCODING -1
SWIDTH 725 0
DWIDTH 8 0
BBX 8 8 0 -1
BITMAP
FF
76
8A
91
92
76
70
20
ENDCHAR
STARTCHAR uni0916093C094D0930
ENCODING -1
SWIDTH 698 0
DWIDTH 8 0
BBX 8 8 0 -1
BITMAP
FF
22
2A
D2
52
4E
2A
04
ENDCHAR
STARTCHAR uni0917093C094D0930
ENCODING -1
SWIDTH 494 0
DWIDTH 5 0
BBX 6 8 0 -1
BITMAP
FC
48
48
48
90
28
48
20
ENDCHAR
STARTCHAR uni091C093C094D0930
ENCODING -1
SWIDTH 547 0
DWIDTH 6 0
BBX 6 8 0 -1
BITMAP
FC
08
78
28
28
F8
28
80
ENDCHAR
STARTCHAR uni0921093C094D0930
ENCODING -1
SWIDTH 475 0
DWIDTH 5 0
BBX 5 8 0 -1
BITMAP
F8
10
70
40
70
48
70
D0
ENDCHAR
STARTCHAR uni0922093C094D0930
ENCODING -1
SWIDTH 485 0
DWIDTH 5 0
BBX 6 8 0 -1
BITMAP
FC
10
70
40
50
68
48
F8
ENDCHAR
STARTCHAR uni0928093C094D0930
ENCODING -1
SWIDTH 473 0
DWIDTH 5 0
BBX 5 8 0 -1
BITMAP
F8
10
10
70
90
30
50
20
ENDCHAR
STARTCHAR uni092B093C094D0930
ENCODING -1
SWIDTH 741 0
DWIDTH 8 0
BBX 8 8 0 -1
BITMAP
FF
4E
49
49
31
2E
48
20
ENDCHAR
STARTCHAR uni092F093C094D0930
ENCODING -1
SWIDTH 564 0
DWIDTH 6 0
BBX 6 8 0 -1
BITMAP
FC
28
48
48
48
38
28
10
ENDCHAR
STARTCHAR uni0915094D0930094D
ENCODING -1
SWIDTH 518 0
DWIDTH 6 0
BBX 7 7 0 0
BITMAP
FE
76
88
90
90
70
70
ENDCHAR
STARTCHAR uni0916094D0930094D
ENCODING -1
SWIDTH 469 0
DWIDTH 5 0
BBX 7 7 0 0
BITMAP
FC
20
28
D0
52
4C
28
ENDCHAR
STARTCHAR uni0917094D0930094D
ENCODING -1
SWIDTH 264 0
DWIDTH 3 0
BBX 4 7 0 0
BITMAP
E0
40
40
40
90
20
40
ENDCHAR
STARTCHAR uni0918094D0930094D
ENCODING -1
SWIDTH 319 0
DWIDTH 4 0
BBX 5 8 0 -1
BITMAP
F8
40
60
40
40
78
20
40
ENDCHAR
STARTCHAR uni091A094D0930094D
ENCODING -1
SWIDTH 331 0
DWIDTH 4 0
BBX 5 7 0 0
BITMAP
F8
00
F0
40
40
38
30
ENDCHAR
STARTCHAR uni091C094D0930094D
ENCODING -1
SWIDTH 312 0
DWIDTH 3 0
BBX 5 7 0 0
BITMAP
F8
00
78
20
28
F0
20
ENDCHAR
STARTCHAR uni091D094D0930094D
ENCODING -1
SWIDTH 441 0
DWIDTH 5 0
BBX 6 8 0 -1
BITMAP
FC
10
70
40
7C
54
74
48
ENDCHAR
STARTCHAR uni091E094D0930094D
ENCODING -1
SWIDTH 374 0
DWIDTH 4 0
BBX 5 7 0 0
BITMAP
F8
60
20
18
28
E8
10
ENDCHAR
STARTCHAR uni091F094D0930094D
ENCODING -1
SWIDTH 485 0
DWIDTH 5 0
BBX 5 10 0 -3
BITMAP
F8
10
70
40
88
48
70
58
10
10
ENDCHAR
STARTCHAR uni0920094D0930094D
ENCODING -1
SWIDTH 512 0
DWIDTH 6 0
BBX 6 10 0 -3
BITMAP
FC
08
70
48
88
88
70
30
68
10
ENDCHAR
STARTCHAR uni0921094D0930094D
ENCODING -1
SWIDTH 475 0
DWIDTH 5 0
BBX 5 10 0 -3
BITMAP
F8
10
70
40
70
08
50
30
68
10
ENDCHAR
STARTCHAR uni0922094D0930094D
ENCODING -1
SWIDTH 485 0
DWIDTH 5 0
BBX 6 10 0 -3
BITMAP
FC
10
70
40
50
68
48
30
48
10
ENDCHAR
STARTCHAR uni0923094D0930094D
ENCODING -1
SWIDTH 457 0
DWIDTH 5 0
BBX 6 7 0 0
BITMAP
F8
50
50
54
74
08
10
ENDCHAR
STARTCHAR uni0924094D0930094D
ENCODING -1
SWIDTH 268 0
DWIDTH 3 0
BBX 5 7 0 0
BITMAP
F8
00
70
88
08
30
40
ENDCHAR
STARTCHAR uni0925094D0930094D
ENCODING -1
SWIDTH 358 0
DWIDTH 4 0
BBX 4 7 1 0
BITMAP
C0
A0
20
C0
80
F0
60
ENDCHAR
STARTCHAR uni0926094D0930094D
ENCODING -1
SWIDTH 489 0
DWIDTH 5 0
BBX 6 9 0 -2
BITMAP
FC
08
70
40
48
78
28
10
08
ENDCHAR
STARTCHAR uni0927094D0930094D
ENCODING -1
SWIDTH 322 0
DWIDTH 4 0
BBX 5 8 0 -1
BITMAP
F8
40
40
60
40
78
10
20
ENDCHAR
STARTCHAR uni0928094D0930094D
ENCODING -1
SWIDTH 247 0
DWIDTH 3 0
BBX 4 7 0 0
BITMAP
F0
00
00
70
90
20
40
ENDCHAR
STARTCHAR uni092A094D0930094D
ENCODING -1
SWIDTH 270 0
DWIDTH 3 0
BBX 4 7 0 0
BITMAP
F0
40
40
40
70
20
40
ENDCHAR
STARTCHAR uni092B094D0930094D
ENCODING -1
SWIDTH 523 0
DWIDTH 6 0
BBX 7 7 0 0
BITMAP
FE
4E
48
48
70
28
48
ENDCHAR
STARTCHAR uni092C094D0930094D
ENCODING -1
SWIDTH 267 0
DWIDTH 3 0
BBX 4 7 0 0
BITMAP
F0
60
40
A0
90
70
60
ENDCHAR
STARTCHAR uni092D094D0930094D
ENCODING -1
SWIDTH 257 0
DWIDTH 3 0
BBX 4 7 0 0
BITMAP
90
40
40
70
50
20
40
ENDCHAR
STARTCHAR uni092E094D0930094D
ENCODING -1
SWIDTH 261 0
DWIDTH 3 0
BBX 4 7 0 0
BITMAP
F0
40
40
70
50
20
40
ENDCHAR
STARTCHAR uni092F094D0930094D
ENCODING -1
SWIDTH 323 0
DWIDTH 4 0
BBX 5 7 0 0
BITMAP
F0
20
40
40
48
30
20
ENDCHAR
STARTCHAR uni0935094D0930094D
ENCODING -1
SWIDTH 255 0
DWIDTH 3 0
BBX 4 7 0 0
BITMAP
F0
60
80
80
80
70
60
ENDCHAR
STARTCHAR uni0938094D0930094D
ENCODING -1
SWIDTH 347 0
DWIDTH 4 0
BBX 5 7 0 0
BITMAP
F8
20
20
F8
48
50
20
ENDCHAR
STARTCHAR uni0915093C094D0930094D
ENCODING -1
SWIDTH 518 0
DWIDTH 6 0
BBX 7 8 0 -1
BITMAP
FE
76
88
90
90
70
70
20
ENDCHAR
STARTCHAR uni0916093C094D0930094D
ENCODING -1
SWIDTH 466 0
DWIDTH 5 0
BBX 7 8 0 -1
BITMAP
FC
20
28
D0
52
4C
28
04
ENDCHAR
STARTCHAR uni0917093C094D0930094D
ENCODING -1
SWIDTH 264 0
DWIDTH 3 0
BBX 4 8 0 -1
BITMAP
E0
40
40
40
90
20
40
20
ENDCHAR
STARTCHAR uni091C093C094D0930094D
ENCODING -1
SWIDTH 320 0
DWIDTH 4 0
BBX 5 8 0 -1
BITMAP
F8
00
78
20
28
F0
20
80
ENDCHAR
STARTCHAR uni0928093C094D0930094D
ENCODING -1
SWIDTH 247 0
DWIDTH 3 0
BBX 4 8 0 -1
BITMAP
F0
00
00
70
90
20
40
20
ENDCHAR
STARTCHAR uni092B093C094D0930094D
ENCODING -1
SWIDTH 523 0
DWIDTH 6 0
BBX 7 8 0 -1
BITMAP
FE
4E
48
48
70
28
48
20
ENDCHAR
STARTCHAR uni092F093C094D0930094D
ENCODING -1
SWIDTH 323 0
DWIDTH 4 0
BBX 5 8 0 -1
BITMAP
F0
20
40
40
48
30
20
10
ENDCHAR
STARTCHAR uni0915094D0915
ENCODING -1
SWIDTH 1255 0
DWIDTH 14 0
BBX 14 7 0 0
BITMAP
FFFC
77B0
8A48
9248
9248
71D0
1040
ENDCHAR
STARTCHAR uni0915094D0916
ENCODING -1
SWIDTH 1256 0
DWIDTH 14 0
BBX 14 7 0 0
BITMAP
FFFC
7488
8AA8
9148
9148
7138
1088
ENDCHAR
STARTCHAR uni0915094D091A
ENCODING -1
SWIDTH 1086 0
DWIDTH 12 0
BBX 12 7 0 0
BITMAP
FFF0
7420
8BA0
9120
9120
70E0
1020
ENDCHAR
STARTCHAR uni0915094D091C
ENCODING -1
SWIDTH 1071 0
DWIDTH 12 0
BBX 12 7 0 0
BITMAP
FFF0
7020
9DE0
90A0
90A0
7320
1020
ENDCHAR
STARTCHAR uni0915094D091F
ENCODING -1
SWIDTH 984 0
DWIDTH 11 0
BBX 11 7 0 0
BITMAP
FFE0
7640
89C0
9200
9220
7240
11C0
ENDCHAR
STARTCHAR uni0915094D0923
ENCODING -1
SWIDTH 1183 0
DWIDTH 13 0
BBX 13 7 0 0
BITMAP
FFF8
7250
9E50
9250
9190
7010
1010
ENDCHAR
STARTCHAR uni0915094D0924
ENCODING -1
SWIDTH 761 0
DWIDTH 8 0
BBX 9 7 0 0
BITMAP
FF80
0800
7E00
4900
4900
2A00
0800
ENDCHAR
STARTCHAR uni0915094D0925
ENCODING -1
SWIDTH 1118 0
DWIDTH 12 0
BBX 12 7 0 0
BITMAP
FD90
7050
9790
8A10
9220
71D0
1010
ENDCHAR
STARTCHAR uni0915094D0926
ENCODING -1
SWIDTH 1009 0
DWIDTH 11 0
BBX 11 7 0 0
BITMAP
FFE0
7640
89C0
9200
9220
71C0
1020
ENDCHAR
STARTCHAR uni0915094D092A
ENCODING -1
SWIDTH 1007 0
DWIDTH 11 0
BBX 11 7 0 0
BITMAP
FFE0
7240
9E40
9240
91C0
7040
1040
ENDCHAR
STARTCHAR uni0915094D092B
ENCODING -1
SWIDTH 1242 0
DWIDTH 14 0
BBX 14 7 0 0
BITMAP
FFFC
7270
9E48
9248
91C8
7050
1040
ENDCHAR
STARTCHAR uni0915094D092E
ENCODING -1
SWIDTH 994 0
DWIDTH 11 0
BBX 11 7 0 0
BITMAP
FFE0
7240
8E40
93C0
9240
7040
1040
ENDCHAR
STARTCHAR uni0915094D092F
ENCODING -1
SWIDTH 1076 0
DWIDTH 12 0
BBX 12 7 0 0
BITMAP
FFF0
70A0
9720
8A20
9220
71E0
1020
ENDCHAR
STARTCHAR uni0915094D0932
ENCODING -1
SWIDTH 1178 0
DWIDTH 13 0
BBX 13 7 0 0
BITMAP
FFF8
7610
89F0
9250
9250
7210
1190
ENDCHAR
STARTCHAR uni0915094D0935
ENCODING -1
SWIDTH 1013 0
DWIDTH 11 0
BBX 11 7 0 0
BITMAP
FFE0
77C0
8A40
9240
9240
71C0
1040
ENDCHAR
STARTCHAR uni0915094D0936
ENCODING -1
SWIDTH 1194 0
DWIDTH 13 0
BBX 13 7 0 0
BITMAP
FDD8
7150
8E50
9190
9110
7090
1090
ENDCHAR
STARTCHAR uni0915094D0938
ENCODING -1
SWIDTH 1143 0
DWIDTH 13 0
BBX 13 7 0 0
BITMAP
FFF8
7490
8A90
91F0
9110
7110
1090
ENDCHAR
STARTCHAR uni0916094D0916
ENCODING -1
SWIDTH 1223 0
DWIDTH 13 0
BBX 14 7 0 0
BITMAP
FFFC
2088
28A8
D348
5248
4D30
2088
ENDCHAR
STARTCHAR uni0916094D0924
ENCODING -1
SWIDTH 984 0
DWIDTH 11 0
BBX 11 7 0 0
BITMAP
FFE0
2040
29C0
D240
5240
4E40
2340
ENDCHAR
STARTCHAR uni0916094D092E
ENCODING -1
SWIDTH 965 0
DWIDTH 11 0
BBX 11 7 0 0
BITMAP
FFE0
2240
2A40
D3C0
5240
4C40
2040
ENDCHAR
STARTCHAR uni0916094D092F
ENCODING -1
SWIDTH 1047 0
DWIDTH 12 0
BBX 12 7 0 0
BITMAP
FFF0
2120
2B20
D220
5220
4DE0
2020
ENDCHAR
STARTCHAR uni0916094D0935
ENCODING -1
SWIDTH 975 0
DWIDTH 11 0
BBX 11 7 0 0
BITMAP
FFE0
2140
2A40
D240
5240
4DC0
2040
ENDCHAR
STARTCHAR uni0916094D0936
ENCODING -1
SWIDTH 1123 0
DWIDTH 12 0
BBX 13 7 0 0
BITMAP
FD98
2250
2A90
D390
5210
4D10
2110
ENDCHAR
STARTCHAR uni0917094D0917
ENCODING -1
SWIDTH 744 0
DWIDTH 8 0
BBX 8 7 0 0
BITMAP
FF
4A
4A
4A
92
02
02
ENDCHAR
STARTCHAR uni0917094D0918
ENCODING -1
SWIDTH 823 0
DWIDTH 9 0
BBX 9 7 0 0
BITMAP
FF80
5100
4D00
5100
9100
0F00
0100
ENDCHAR
STARTCHAR uni0917094D091C
ENCODING -1
SWIDTH 801 0
DWIDTH 9 0
BBX 9 7 0 0
BITMAP
FF80
4100
4F00
4500
8500
1900
0100
ENDCHAR
STARTCHAR uni0917094D0923
ENCODING -1
SWIDTH 945 0
DWIDTH 10 0
BBX 11 7 0 0
BITMAP
FFE0
4A40
4A40
4A40
8C40
0040
0040
ENDCHAR
STARTCHAR uni0917094D0926
ENCODING -1
SWIDTH 748 0
DWIDTH 8 0
BBX 8 7 0 0
BITMAP
FF
42
4E
50
91
0E
01
ENDCHAR
STARTCHAR uni0917094D0927
ENCODING -1
SWIDTH 823 0
DWIDTH 9 0
BBX 9 7 0 0
BITMAP
FB80
5100
4D00
5100
9100
0F00
0100
ENDCHAR
STARTCHAR uni0917094D092C
ENCODING -1
SWIDTH 755 0
DWIDTH 8 0
BBX 8 7 0 0
BITMAP
FF
4D
49
55
92
0E
01
ENDCHAR
STARTCHAR uni0917094D092D
ENCODING -1
SWIDTH 755 0
DWIDTH 8 0
BBX 8 7 0 0
BITMAP
F3
49
49
4E
89
01
01
ENDCHAR
STARTCHAR uni0917094D092E
ENCODING -1
SWIDTH 754 0
DWIDTH 8 0
BBX 8 7 0 0
BITMAP
FF
49
49
4E
89
01
01
ENDCHAR
STARTCHAR uni0917094D092F
ENCODING -1
SWIDTH 828 0
DWIDTH 9 0
BBX 9 7 0 0
BITMAP
FF80
4500
4900
5100
8900
0F00
0100
ENDCHAR
STARTCHAR uni0917094D0932
ENCODING -1
SWIDTH 924 0
DWIDTH 10 0
BBX 10 7 0 0
BITMAP
FFC0
4080
4D80
5280
9280
1080
0C80
ENDCHAR
STARTCHAR uni0917094D0935
ENCODING -1
SWIDTH 747 0
DWIDTH 8 0
BBX 8 7 0 0
BITMAP
FF
4E
52
52
92
0E
02
ENDCHAR
STARTCHAR uni0917094D0938
ENCODING -1
SWIDTH 839 0
DWIDTH 9 0
BBX 9 7 0 0
BITMAP
FF80
4500
4500
5F00
8900
0900
0500
ENDCHAR
STARTCHAR uni0918094D092E
ENCODING -1
SWIDTH 818 0
DWIDTH 9 0
BBX 9 7 0 0
BITMAP
FF80
4900
6900
4F00
4900
7900
0100
ENDCHAR
STARTCHAR uni0918094D092F
ENCODING -1
SWIDTH 867 0
DWIDTH 10 0
BBX 10 7 0 0
BITMAP
FFC0
4480
6C80
4880
4880
7780
0080
ENDCHAR
STARTCHAR uni091A094D091A
ENCODING -1
SWIDTH 868 0
DWIDTH 10 0
BBX 10 7 0 0
BITMAP
FFC0
0080
EE80
4880
4880
3780
0080
ENDCHAR
STARTCHAR uni091A094D091B
ENCODING -1
SWIDTH 922 0
DWIDTH 10 0
BBX 10 7 0 0
BITMAP
FFC0
0880
F980
4640
4840
4840
3780
ENDCHAR
STARTCHAR uni091A094D092E
ENCODING -1
SWIDTH 830 0
DWIDTH 9 0
BBX 9 7 0 0
BITMAP
FF80
0900
F900
4700
4900
3900
0100
ENDCHAR
STARTCHAR uni091A094D092F
ENCODING -1
SWIDTH 904 0
DWIDTH 10 0
BBX 10 7 0 0
BITMAP
FFC0
0280
FC80
4880
4880
3780
0080
ENDCHAR
STARTCHAR uni091B094D092F
ENCODING -1
SWIDTH 1068 0
DWIDTH 12 0
BBX 12 7 0 0
BITMAP
FFF0
4F20
44A0
6520
4620
45E0
7820
ENDCHAR
STARTCHAR uni091B094D0935
ENCODING -1
SWIDTH 581 0
DWIDTH 6 0
BBX 7 8 0 -1
BITMAP
FE
48
24
44
44
78
48
38
ENDCHAR
STARTCHAR uni091C094D0915
ENCODING -1
SWIDTH 1054 0
DWIDTH 12 0
BBX 12 7 0 0
BITMAP
FFF0
07C0
7920
2920
2920
E740
0100
ENDCHAR
STARTCHAR uni091C094D091C
ENCODING -1
SWIDTH 903 0
DWIDTH 10 0
BBX 10 7 0 0
BITMAP
FFC0
0080
7780
2280
2280
EC80
0080
ENDCHAR
STARTCHAR uni091C094D091D
ENCODING -1
SWIDTH 990 0
DWIDTH 11 0
BBX 11 7 0 0
BITMAP
FFE0
0640
7840
27C0
2140
E940
0E40
ENDCHAR
STARTCHAR uni091C094D091F
ENCODING -1
SWIDTH 815 0
DWIDTH 9 0
BBX 9 7 0 0
BITMAP
FF80
0100
7F00
2800
2800
2880
C700
ENDCHAR
STARTCHAR uni091C094D0921
ENCODING -1
SWIDTH 797 0
DWIDTH 9 0
BBX 9 7 0 0
BITMAP
FF80
0100
7F00
2800
2700
C900
0F00
ENDCHAR
STARTCHAR uni091C094D0924
ENCODING -1
SWIDTH 830 0
DWIDTH 9 0
BBX 9 7 0 0
BITMAP
FF80
0100
7F00
2900
2900
E900
0500
ENDCHAR
STARTCHAR uni091C094D0926
ENCODING -1
SWIDTH 817 0
DWIDTH 9 0
BBX 9 7 0 0
BITMAP
FF80
0100
7F00
2800
2900
E700
0100
ENDCHAR
STARTCHAR uni091C094D092C
ENCODING -1
SWIDTH 820 0
DWIDTH 9 0
BBX 9 7 0 0
BITMAP
FF80
0700
7D00
2B00
2900
E700
0100
ENDCHAR
STARTCHAR uni091C094D092E
ENCODING -1
SWIDTH 813 0
DWIDTH 9 0
BBX 9 7 0 0
BITMAP
FF80
0900
7900
2F00
2900
E100
0100
ENDCHAR
STARTCHAR uni091C094D092F
ENCODING -1
SWIDTH 893 0
DWIDTH 10 0
BBX 10 7 0 0
BITMAP
FFC0
0280
7C80
2880
2880
E780
0080
ENDCHAR
STARTCHAR uni091C094D0935
ENCODING -1
SWIDTH 813 0
DWIDTH 9 0
BBX 9 7 0 0
BITMAP
FF80
0700
7900
2900
2900
E700
0100
ENDCHAR
STARTCHAR uni091D094D092E
ENCODING -1
SWIDTH 936 0
DWIDTH 10 0
BBX 10 8 0 -1
BITMAP
FFC0
7240
4240
7F80
1240
5040
7040
4000
ENDCHAR
STARTCHAR uni091D094D092F
ENCODING -1
SWIDTH 1000 0
DWIDTH 11 0
BBX 11 8 0 -1
BITMAP
FFE0
7140
4240
7C40
1440
53C0
7040
4000
ENDCHAR
STARTCHAR uni091E094D091B
ENCODING -1
SWIDTH 913 0
DWIDTH 10 0
BBX 10 7 0 0
BITMAP
FFC0
0880
6980
2680
1880
E880
0780
ENDCHAR
STARTCHAR uni091E094D091C
ENCODING -1
SWIDTH 932 0
DWIDTH 10 0
BBX 10 7 0 0
BITMAP
FFC0
0080
6780
2180
1980
E680
0080
ENDCHAR
STARTCHAR uni091E094D0936
ENCODING -1
SWIDTH 975 0
DWIDTH 11 0
BBX 11 7 0 0
BITMAP
F660
6540
2140
1E40
2440
E440
0240
ENDCHAR
STARTCHAR uni091F094D091F
ENCODING -1
SWIDTH 494 0
DWIDTH 5 0
BBX 6 11 0 -4
BITMAP
FC
10
70
80
88
70
30
40
80
48
70
ENDCHAR
STARTCHAR uni091F094D0920
ENCODING -1
SWIDTH 495 0
DWIDTH 5 0
BBX 6 11 0 -4
BITMAP
FC
10
70
80
88
70
30
48
88
48
70
ENDCHAR
STARTCHAR uni091F094D092F
ENCODING -1
SWIDTH 990 0
DWIDTH 11 0
BBX 11 7 0 0
BITMAP
FFE0
1040
7F40
4140
8240
8A40
73C0
ENDCHAR
STARTCHAR uni091F094D0935
ENCODING -1
SWIDTH 501 0
DWIDTH 6 0
BBX 6 8 0 -1
BITMAP
FC
10
70
40
48
78
48
70
ENDCHAR
STARTCHAR uni0920094D092F
ENCODING -1
SWIDTH 998 0
DWIDTH 11 0
BBX 11 7 0 0
BITMAP
FFE0
0840
7740
4940
8B40
8A40
73C0
ENDCHAR
STARTCHAR uni0921094D0921
ENCODING -1
SWIDTH 493 0
DWIDTH 5 0
BBX 6 11 0 -4
BITMAP
FC
70
40
70
48
70
40
70
08
48
70
ENDCHAR
STARTCHAR uni0921094D0922
ENCODING -1
SWIDTH 493 0
DWIDTH 5 0
BBX 6 10 0 -3
BITMAP
FC
10
70
40
70
48
70
68
48
70
ENDCHAR
STARTCHAR uni0921094D092F
ENCODING -1
SWIDTH 973 0
DWIDTH 11 0
BBX 11 7 0 0
BITMAP
FFE0
1040
7E40
4140
7240
4BC0
7040
ENDCHAR
STARTCHAR uni0921094D0935
ENCODING -1
SWIDTH 493 0
DWIDTH 5 0
BBX 6 9 0 -2
BITMAP
FC
70
40
70
48
78
48
48
30
ENDCHAR
STARTCHAR uni0922094D092F
ENCODING -1
SWIDTH 981 0
DWIDTH 11 0
BBX 11 7 0 0
BITMAP
FFE0
1040
7E40
5140
6A40
6C40
73C0
ENDCHAR
STARTCHAR uni0923094D091F
ENCODING -1
SWIDTH 908 0
DWIDTH 10 0
BBX 10 7 0 0
BITMAP
FFC0
5080
5380
5400
5400
2440
0380
ENDCHAR
STARTCHAR uni0923094D0920
ENCODING -1
SWIDTH 936 0
DWIDTH 10 0
BBX 10 7 0 0
BITMAP
FFC0
5080
5380
5440
5440
2440
0380
ENDCHAR
STARTCHAR uni0923094D0921
ENCODING -1
SWIDTH 892 0
DWIDTH 10 0
BBX 10 7 0 0
BITMAP
FFC0
5080
5380
5400
7380
0480
0380
ENDCHAR
STARTCHAR uni0923094D0922
ENCODING -1
SWIDTH 908 0
DWIDTH 10 0
BBX 10 7 0 0
BITMAP
FFC0
5080
5380
5400
5580
2440
0380
ENDCHAR
STARTCHAR uni0923094D0923
ENCODING -1
SWIDTH 1127 0
DWIDTH 12 0
BBX 13 7 0 0
BITMAP
FFF8
5290
5290
5290
7310
0010
0010
ENDCHAR
STARTCHAR uni0923094D092E
ENCODING -1
SWIDTH 932 0
DWIDTH 10 0
BBX 10 7 0 0
BITMAP
FFC0
5480
5480
5380
7480
0080
0080
ENDCHAR
STARTCHAR uni0923094D092F
ENCODING -1
SWIDTH 998 0
DWIDTH 11 0
BBX 11 7 0 0
BITMAP
FFE0
5140
5240
5440
7440
03C0
0040
ENDCHAR
STARTCHAR uni0923094D0935
ENCODING -1
SWIDTH 923 0
DWIDTH 10 0
BBX 10 7 0 0
BITMAP
FFC0
5380
5480
5480
7480
0380
0080
ENDCHAR
STARTCHAR uni0924094D0915
ENCODING -1
SWIDTH 992 0
DWIDTH 11 0
BBX 11 7 0 0
BITMAP
FFE0
0DC0
7240
9240
9240
8EC0
6200
ENDCHAR
STARTCHAR uni0924094D0916
ENCODING -1
SWIDTH 1014 0
DWIDTH 11 0
BBX 11 7 0 0
BITMAP
FFE0
0240
72C0
8D40
8940
84C0
6640
ENDCHAR
STARTCHAR uni0924094D0924
ENCODING -1
SWIDTH 542 0
DWIDTH 6 0
BBX 6 7 0 0
BITMAP
FC
08
F8
48
48
48
28
ENDCHAR
STARTCHAR uni0924094D0925
ENCODING -1
SWIDTH 869 0
DWIDTH 10 0
BBX 10 7 0 0
BITMAP
ECC0
0280
7C80
5080
8880
8F80
6080
ENDCHAR
STARTCHAR uni0924094D092A
ENCODING -1
SWIDTH 757 0
DWIDTH 8 0
BBX 8 7 0 0
BITMAP
FF
11
71
91
8E
81
61
ENDCHAR
STARTCHAR uni0924094D092B
ENCODING -1
SWIDTH 992 0
DWIDTH 11 0
BBX 11 7 0 0
BITMAP
FFE0
11C0
7240
9240
8E40
82C0
6200
ENDCHAR
STARTCHAR uni0924094D092E
ENCODING -1
SWIDTH 764 0
DWIDTH 8 0
BBX 9 7 0 0
BITMAP
FF80
0900
7100
4E00
8900
8100
6100
ENDCHAR
STARTCHAR uni0924094D092F
ENCODING -1
SWIDTH 830 0
DWIDTH 9 0
BBX 9 7 0 0
BITMAP
FF80
0500
7900
5100
8900
8700
6100
ENDCHAR
STARTCHAR uni0924094D0932
ENCODING -1
SWIDTH 957 0
DWIDTH 11 0
BBX 11 7 0 0
BITMAP
FFE0
0040
7DC0
8A40
8A40
8840
6C40
ENDCHAR
STARTCHAR uni0924094D0935
ENCODING -1
SWIDTH 751 0
DWIDTH 8 0
BBX 8 7 0 0
BITMAP
FF
0E
72
92
92
8E
62
ENDCHAR
STARTCHAR uni0924094D0938
ENCODING -1
SWIDTH 876 0
DWIDTH 10 0
BBX 10 7 0 0
BITMAP
FFC0
0480
7480
8F80
8880
8880
6480
ENDCHAR
STARTCHAR uni0925094D092F
ENCODING -1
SWIDTH 931 0
DWIDTH 10 0
BBX 9 7 1 0
BITMAP
DF80
A500
2900
C900
8900
F700
0100
ENDCHAR
STARTCHAR uni0925094D0935
ENCODING -1
SWIDTH 862 0
DWIDTH 9 0
BBX 9 7 1 0
BITMAP
DF80
A500
2900
C900
8900
FE00
0100
ENDCHAR
STARTCHAR uni0926094D0917
ENCODING -1
SWIDTH 489 0
DWIDTH 5 0
BBX 6 8 0 -1
BITMAP
FC
70
40
40
48
78
28
40
ENDCHAR
STARTCHAR uni0926094D0918
ENCODING -1
SWIDTH 686 0
DWIDTH 8 0
BBX 8 8 0 -1
BITMAP
FF
02
7C
90
62
9E
92
70
ENDCHAR
STARTCHAR uni0926094D0926
ENCODING -1
SWIDTH 506 0
DWIDTH 6 0
BBX 6 8 0 -1
BITMAP
FC
08
70
40
60
48
78
08
ENDCHAR
STARTCHAR uni0926094D0927
ENCODING -1
SWIDTH 686 0
DWIDTH 8 0
BBX 8 8 0 -1
BITMAP
FF
02
5C
90
62
9E
92
70
ENDCHAR
STARTCHAR uni0926094D092C
ENCODING -1
SWIDTH 481 0
DWIDTH 5 0
BBX 5 9 0 -2
BITMAP
F8
08
70
40
48
78
68
58
70
ENDCHAR
STARTCHAR uni0926094D092D
ENCODING -1
SWIDTH 499 0
DWIDTH 5 0
BBX 6 9 0 -2
BITMAP
FC
70
40
48
70
88
48
70
48
ENDCHAR
STARTCHAR uni0926094D092E
ENCODING -1
SWIDTH 706 0
DWIDTH 8 0
BBX 8 7 0 0
BITMAP
FF
72
82
82
72
0E
12
ENDCHAR
STARTCHAR uni0926094D092F
ENCODING -1
SWIDTH 583 0
DWIDTH 6 0
BBX 7 7 0 0
BITMAP
FE
64
44
64
44
44
78
ENDCHAR
STARTCHAR uni0926094D0935
ENCODING -1
SWIDTH 483 0
DWIDTH 5 0
BBX 5 9 0 -2
BITMAP
F8
08
70
40
48
78
48
48
70
ENDCHAR
STARTCHAR uni0927094D092E
ENCODING -1
SWIDTH 817 0
DWIDTH 9 0
BBX 9 7 0 0
BITMAP
EF80
4900
6900
4F00
4900
7900
0100
ENDCHAR
STARTCHAR uni0927094D092F
ENCODING -1
SWIDTH 886 0
DWIDTH 10 0
BBX 10 7 0 0
BITMAP
EFC0
4280
6C80
4880
4880
7780
0080
ENDCHAR
STARTCHAR uni0927094D0935
ENCODING -1
SWIDTH 810 0
DWIDTH 9 0
BBX 9 7 0 0
BITMAP
EF80
4700
6900
4900
4900
7700
0100
ENDCHAR
STARTCHAR uni0928094D0915
ENCODING -1
SWIDTH 973 0
DWIDTH 11 0
BBX 11 7 0 0
BITMAP
FFE0
0F80
1240
7240
9240
0E80
0200
ENDCHAR
STARTCHAR uni0928094D091A
ENCODING -1
SWIDTH 820 0
DWIDTH 9 0
BBX 9 7 0 0
BITMAP
FF80
0100
1D00
6900
8900
0700
0100
ENDCHAR
STARTCHAR uni0928094D091B
ENCODING -1
SWIDTH 781 0
DWIDTH 9 0
BBX 9 7 0 0
BITMAP
FF80
1100
1200
7900
9100
1100
1E00
ENDCHAR
STARTCHAR uni0928094D091F
ENCODING -1
SWIDTH 715 0
DWIDTH 8 0
BBX 8 7 0 0
BITMAP
FF
02
0E
70
90
11
0E
ENDCHAR
STARTCHAR uni0928094D0921
ENCODING -1
SWIDTH 705 0
DWIDTH 8 0
BBX 8 7 0 0
BITMAP
FF
02
0E
70
8E
02
1E
ENDCHAR
STARTCHAR uni0928094D0924
ENCODING -1
SWIDTH 717 0
DWIDTH 8 0
BBX 8 7 0 0
BITMAP
FF
02
0E
72
92
12
1A
ENDCHAR
STARTCHAR uni0928094D0925
ENCODING -1
SWIDTH 804 0
DWIDTH 9 0
BBX 9 7 0 0
BITMAP
CD80
1500
0500
7900
9100
0F00
0100
ENDCHAR
STARTCHAR uni0928094D0926
ENCODING -1
SWIDTH 724 0
DWIDTH 8 0
BBX 8 7 0 0
BITMAP
FF
02
0E
70
92
0E
02
ENDCHAR
STARTCHAR uni0928094D0927
ENCODING -1
SWIDTH 753 0
DWIDTH 8 0
BBX 8 7 0 0
BITMAP
FB
11
11
79
92
1D
01
ENDCHAR
STARTCHAR uni0928094D092A
ENCODING -1
SWIDTH 742 0
DWIDTH 8 0
BBX 8 7 0 0
BITMAP
FF
12
12
72
8E
02
02
ENDCHAR
STARTCHAR uni0928094D092B
ENCODING -1
SWIDTH 970 0
DWIDTH 11 0
BBX 11 7 0 0
BITMAP
FFE0
1380
1240
7240
8E40
0280
0200
ENDCHAR
STARTCHAR uni0928094D092D
ENCODING -1
SWIDTH 739 0
DWIDTH 8 0
BBX 8 7 0 0
BITMAP
F7
12
12
7E
92
02
02
ENDCHAR
STARTCHAR uni0928094D092E
ENCODING -1
SWIDTH 735 0
DWIDTH 8 0
BBX 8 7 0 0
BITMAP
FF
12
12
7E
92
02
02
ENDCHAR
STARTCHAR uni0928094D092F
ENCODING -1
SWIDTH 801 0
DWIDTH 9 0
BBX 9 7 0 0
BITMAP
FF80
0500
7900
9100
1100
0F00
0100
ENDCHAR
STARTCHAR uni0928094D0935
ENCODING -1
SWIDTH 732 0
DWIDTH 8 0
BBX 8 7 0 0
BITMAP
FF
0E
12
72
92
0E
02
ENDCHAR
STARTCHAR uni0928094D0938
ENCODING -1
SWIDTH 867 0
DWIDTH 10 0
BBX 10 7 0 0
BITMAP
FFC0
0480
7480
8F80
8880
0880
0480
ENDCHAR
STARTCHAR uni0928094D0939
ENCODING -1
SWIDTH 714 0
DWIDTH 8 0
BBX 8 8 0 -1
BITMAP
FF
0E
10
70
8E
12
10
0E
ENDCHAR
STARTCHAR uni092A094D091F
ENCODING -1
SWIDTH 489 0
DWIDTH 5 0
BBX 6 7 0 0
BITMAP
FC
48
48
70
40
88
70
ENDCHAR
STARTCHAR uni092A094D0920
ENCODING -1
SWIDTH 506 0
DWIDTH 6 0
BBX 6 7 0 0
BITMAP
FC
48
48
70
48
48
70
ENDCHAR
STARTCHAR uni092A094D0924
ENCODING -1
SWIDTH 495 0
DWIDTH 5 0
BBX 6 7 0 0
BITMAP
FC
48
48
70
88
88
68
ENDCHAR
STARTCHAR uni092A094D092A
ENCODING -1
SWIDTH 770 0
DWIDTH 8 0
BBX 9 7 0 0
BITMAP
FF80
4900
4900
4900
7E00
0100
0100
ENDCHAR
STARTCHAR uni092A094D092B
ENCODING -1
SWIDTH 1003 0
DWIDTH 11 0
BBX 11 7 0 0
BITMAP
FFE0
49C0
4920
4920
3F20
01C0
0100
ENDCHAR
STARTCHAR uni092A094D092E
ENCODING -1
SWIDTH 774 0
DWIDTH 9 0
BBX 9 7 0 0
BITMAP
FF80
4900
4900
4F00
3900
0100
0100
ENDCHAR
STARTCHAR uni092A094D092F
ENCODING -1
SWIDTH 855 0
DWIDTH 9 0
BBX 10 7 0 0
BITMAP
FFC0
4480
4C80
4880
3880
0780
0080
ENDCHAR
STARTCHAR uni092A094D0932
ENCODING -1
SWIDTH 960 0
DWIDTH 11 0
BBX 11 7 0 0
BITMAP
FFE0
4040
4DC0
4A40
3040
0840
0C40
ENDCHAR
STARTCHAR uni092A094D0935
ENCODING -1
SWIDTH 780 0
DWIDTH 9 0
BBX 9 7 0 0
BITMAP
FF80
4500
4900
4900
3900
0700
0100
ENDCHAR
STARTCHAR uni092A094D0938
ENCODING -1
SWIDTH 880 0
DWIDTH 10 0
BBX 10 7 0 0
BITMAP
FFC0
4480
4480
4F80
3880
0480
0480
ENDCHAR
STARTCHAR uni092B094D091C
ENCODING -1
SWIDTH 1100 0
DWIDTH 12 0
BBX 12 7 0 0
BITMAP
FFF0
4820
4DE0
48A0
30A0
0BA0
0820
ENDCHAR
STARTCHAR uni092B094D091F
ENCODING -1
SWIDTH 1006 0
DWIDTH 11 0
BBX 11 7 0 0
BITMAP
FFE0
4E40
49C0
4A00
7220
0A20
09C0
ENDCHAR
STARTCHAR uni092B094D0924
ENCODING -1
SWIDTH 1034 0
DWIDTH 11 0
BBX 12 7 0 0
BITMAP
FFF0
4E20
49C0
4A20
3220
0A20
09A0
ENDCHAR
STARTCHAR uni092B094D092A
ENCODING -1
SWIDTH 1021 0
DWIDTH 11 0
BBX 11 7 0 0
BITMAP
FFE0
4A40
4E40
4A40
71C0
0840
0840
ENDCHAR
STARTCHAR uni092B094D092B
ENCODING -1
SWIDTH 1256 0
DWIDTH 14 0
BBX 14 7 0 0
BITMAP
FFFC
4A30
4E48
4A48
31C8
0850
0840
ENDCHAR
STARTCHAR uni092B094D092F
ENCODING -1
SWIDTH 1120 0
DWIDTH 12 0
BBX 12 7 0 0
BITMAP
FFF0
48A0
4F20
4A20
3220
09E0
0820
ENDCHAR
STARTCHAR uni092B094D0932
ENCODING -1
SWIDTH 1202 0
DWIDTH 13 0
BBX 13 7 0 0
BITMAP
FFF8
4E10
49B0
4A50
3250
0A10
0990
ENDCHAR
STARTCHAR uni092B094D0936
ENCODING -1
SWIDTH 1211 0
DWIDTH 13 0
BBX 13 7 0 0
BITMAP
FEC8
4D48
4A48
49C8
3108
0888
0888
ENDCHAR
STARTCHAR uni092C094D091C
ENCODING -1
SWIDTH 883 0
DWIDTH 10 0
BBX 10 7 0 0
BITMAP
FFC0
0080
6F80
A280
9280
7C80
0080
ENDCHAR
STARTCHAR uni092C094D091D
ENCODING -1
SWIDTH 962 0
DWIDTH 11 0
BBX 11 8 0 -1
BITMAP
FFE0
6E40
C840
AFC0
9140
7140
0E40
0800
ENDCHAR
STARTCHAR uni092C094D0924
ENCODING -1
SWIDTH 786 0
DWIDTH 9 0
BBX 9 7 0 0
BITMAP
FF80
6100
4F00
A900
9100
7100
0D00
ENDCHAR
STARTCHAR uni092C094D0926
ENCODING -1
SWIDTH 775 0
DWIDTH 9 0
BBX 9 7 0 0
BITMAP
FF80
6100
4F00
A800
9100
7F00
0100
ENDCHAR
STARTCHAR uni092C094D0927
ENCODING -1
SWIDTH 844 0
DWIDTH 9 0
BBX 9 7 0 0
BITMAP
FD80
6900
C500
A900
9100
7F00
0100
ENDCHAR
STARTCHAR uni092C094D092C
ENCODING -1
SWIDTH 783 0
DWIDTH 9 0
BBX 9 7 0 0
BITMAP
FF80
6500
4900
AD00
9300
7F00
0100
ENDCHAR
STARTCHAR uni092C094D092D
ENCODING -1
SWIDTH 764 0
DWIDTH 8 0
BBX 9 7 0 0
BITMAP
F380
6900
4900
AE00
9100
7100
0100
ENDCHAR
STARTCHAR uni092C094D092F
ENCODING -1
SWIDTH 852 0
DWIDTH 9 0
BBX 10 7 0 0
BITMAP
FFC0
6480
CC80
A880
9880
7780
0080
ENDCHAR
STARTCHAR uni092C094D0932
ENCODING -1
SWIDTH 961 0
DWIDTH 11 0
BBX 11 7 0 0
BITMAP
FFE0
6040
4DC0
AA40
9240
7040
0C40
ENDCHAR
STARTCHAR uni092C094D0935
ENCODING -1
SWIDTH 776 0
DWIDTH 9 0
BBX 9 7 0 0
BITMAP
FF80
6500
4900
A900
9100
7F00
0100
ENDCHAR
STARTCHAR uni092C094D0936
ENCODING -1
SWIDTH 926 0
DWIDTH 10 0
BBX 10 7 0 0
BITMAP
EEC0
6A80
4280
AE80
9880
7480
0680
ENDCHAR
STARTCHAR uni092C094D0938
ENCODING -1
SWIDTH 897 0
DWIDTH 10 0
BBX 10 7 0 0
BITMAP
FFC0
6480
4480
AF80
9880
7480
0480
ENDCHAR
STARTCHAR uni092D094D092F
ENCODING -1
SWIDTH 827 0
DWIDTH 9 0
BBX 9 7 0 0
BITMAP
9F80
4500
4900
7100
5100
0F00
0100
ENDCHAR
STARTCHAR uni092D094D0932
ENCODING -1
SWIDTH 941 0
DWIDTH 10 0
BBX 11 7 0 0
BITMAP
9FE0
4040
4D80
7240
5240
1040
0C40
ENDCHAR
STARTCHAR uni092D094D0935
ENCODING -1
SWIDTH 755 0
DWIDTH 8 0
BBX 8 7 0 0
BITMAP
9F
4D
49
71
51
0E
01
ENDCHAR
STARTCHAR uni092E094D0924
ENCODING -1
SWIDTH 765 0
DWIDTH 8 0
BBX 9 7 0 0
BITMAP
FF80
4100
4E00
7100
5100
1100
0D00
ENDCHAR
STARTCHAR uni092E094D0926
ENCODING -1
SWIDTH 766 0
DWIDTH 8 0
BBX 9 7 0 0
BITMAP
FF80
4100
4E00
7000
4900
0F00
0100
ENDCHAR
STARTCHAR uni092E094D092A
ENCODING -1
SWIDTH 762 0
DWIDTH 8 0
BBX 9 7 0 0
BITMAP
FF80
4900
4900
7100
4E00
0100
0100
ENDCHAR
STARTCHAR uni092E094D092C
ENCODING -1
SWIDTH 768 0
DWIDTH 8 0
BBX 9 7 0 0
BITMAP
FF80
4D00
4900
7500
4A00
0E00
0100
ENDCHAR
STARTCHAR uni092E094D092D
ENCODING -1
SWIDTH 768 0
DWIDTH 8 0
BBX 9 7 0 0
BITMAP
F380
4900
4900
7E00
4900
0100
0100
ENDCHAR
STARTCHAR uni092E094D092E
ENCODING -1
SWIDTH 759 0
DWIDTH 8 0
BBX 9 7 0 0
BITMAP
FF80
4900
4900
7E00
4900
0100
0100
ENDCHAR
STARTCHAR uni092E094D092F
ENCODING -1
SWIDTH 834 0
DWIDTH 9 0
BBX 9 7 0 0
BITMAP
FF80
4500
4900
7100
4900
0F00
0100
ENDCHAR
STARTCHAR uni092E094D0932
ENCODING -1
SWIDTH 945 0
DWIDTH 10 0
BBX 11 7 0 0
BITMAP
FFE0
4040
4D80
7240
5240
0840
0C40
ENDCHAR
STARTCHAR uni092E094D0935
ENCODING -1
SWIDTH 761 0
DWIDTH 8 0
BBX 9 7 0 0
BITMAP
FF80
4D00
4900
7100
4900
0E00
0100
ENDCHAR
STARTCHAR uni092E094D0936
ENCODING -1
SWIDTH 884 0
DWIDTH 10 0
BBX 10 7 0 0
BITMAP
ECC0
4A80
4280
7C80
4880
0880
0480
ENDCHAR
STARTCHAR uni092E094D0938
ENCODING -1
SWIDTH 816 0
DWIDTH 9 0
BBX 9 7 0 0
BITMAP
FF80
4900
4900
7F00
5100
0900
0900
ENDCHAR
STARTCHAR uni092E094D0939
ENCODING -1
SWIDTH 758 0
DWIDTH 8 0
BBX 8 8 0 -1
BITMAP
FF
4E
48
70
4E
09
08
06
ENDCHAR
STARTCHAR uni092F094D092F
ENCODING -1
SWIDTH 897 0
DWIDTH 10 0
BBX 10 7 0 0
BITMAP
FFC0
2280
4C80
4880
4880
3780
0080
ENDCHAR
STARTCHAR uni0930094D092F
ENCODING -1
SWIDTH 713 0
DWIDTH 8 0
BBX 8 7 0 0
BITMAP
FF
0A
F2
22
22
1E
02
ENDCHAR
STARTCHAR uni0930094D0939
ENCODING -1
SWIDTH 619 0
DWIDTH 7 0
BBX 7 8 0 -1
BITMAP
FE
9C
60
20
1C
24
20
1C
ENDCHAR
STARTCHAR uni0932094D0915
ENCODING -1
SWIDTH 1182 0
DWIDTH 13 0
BBX 13 7 0 0
BITMAP
FFF8
0370
6C48
5448
5488
4370
6040
ENDCHAR
STARTCHAR uni0932094D0916
ENCODING -1
SWIDTH 1195 0
DWIDTH 13 0
BBX 13 7 0 0
BITMAP
FFF8
0090
6CB0
5350
5250
4130
6190
ENDCHAR
STARTCHAR uni0932094D0917
ENCODING -1
SWIDTH 950 0
DWIDTH 10 0
BBX 11 7 0 0
BITMAP
FFE0
0240
6A40
5240
5440
4040
6040
ENDCHAR
STARTCHAR uni0932094D091C
ENCODING -1
SWIDTH 1035 0
DWIDTH 11 0
BBX 12 7 0 0
BITMAP
FFF0
0020
6BC0
50A0
40A0
4720
6020
ENDCHAR
STARTCHAR uni0932094D091F
ENCODING -1
SWIDTH 929 0
DWIDTH 10 0
BBX 10 7 0 0
BITMAP
FFC0
0080
6F80
5400
5400
4440
6380
ENDCHAR
STARTCHAR uni0932094D0920
ENCODING -1
SWIDTH 953 0
DWIDTH 10 0
BBX 11 7 0 0
BITMAP
FFE0
0080
6F80
5440
5440
4440
6380
ENDCHAR
STARTCHAR uni0932094D0921
ENCODING -1
SWIDTH 916 0
DWIDTH 10 0
BBX 10 7 0 0
BITMAP
FFC0
0080
6F80
5400
5380
4040
6380
ENDCHAR
STARTCHAR uni0932094D0922
ENCODING -1
SWIDTH 924 0
DWIDTH 10 0
BBX 10 7 0 0
BITMAP
FFC0
0080
6F80
5400
5480
4540
6380
ENDCHAR
STARTCHAR uni0932094D0924
ENCODING -1
SWIDTH 929 0
DWIDTH 10 0
BBX 10 7 0 0
BITMAP
FFC0
0080
6F80
5480
5480
4480
6280
ENDCHAR
STARTCHAR uni0932094D0925
ENCODING -1
SWIDTH 1061 0
DWIDTH 12 0
BBX 12 7 0 0
BITMAP
FBB0
02A0
6CA0
5320
5220
43E0
6020
ENDCHAR
STARTCHAR uni0932094D0926
ENCODING -1
SWIDTH 939 0
DWIDTH 10 0
BBX 11 7 0 0
BITMAP
FFE0
0040
6F80
5400
5440
43C0
6040
ENDCHAR
STARTCHAR uni0932094D092A
ENCODING -1
SWIDTH 939 0
DWIDTH 10 0
BBX 11 7 0 0
BITMAP
FFE0
0440
6C40
5440
4380
4040
6040
ENDCHAR
STARTCHAR uni0932094D092B
ENCODING -1
SWIDTH 1176 0
DWIDTH 13 0
BBX 13 7 0 0
BITMAP
FFF8
0470
6C90
5490
5390
40B0
6080
ENDCHAR
STARTCHAR uni0932094D092C
ENCODING -1
SWIDTH 949 0
DWIDTH 10 0
BBX 11 7 0 0
BITMAP
FFE0
0140
6E40
5540
5480
4380
6040
ENDCHAR
STARTCHAR uni0932094D092D
ENCODING -1
SWIDTH 931 0
DWIDTH 10 0
BBX 10 7 0 0
BITMAP
FCC0
0480
6C80
5380
5480
4080
6080
ENDCHAR
STARTCHAR uni0932094D092E
ENCODING -1
SWIDTH 931 0
DWIDTH 10 0
BBX 10 7 0 0
BITMAP
FFC0
0480
6C80
5380
5480
4080
6080
ENDCHAR
STARTCHAR uni0932094D092F
ENCODING -1
SWIDTH 1033 0
DWIDTH 11 0
BBX 12 7 0 0
BITMAP
FFF0
6D20
5320
5320
5220
41E0
6020
ENDCHAR
STARTCHAR uni0932094D0932
ENCODING -1
SWIDTH 1112 0
DWIDTH 12 0
BBX 12 7 0 0
BITMAP
FFF0
0020
6F60
54A0
54A0
4420
6320
ENDCHAR
STARTCHAR uni0932094D0935
ENCODING -1
SWIDTH 940 0
DWIDTH 10 0
BBX 11 7 0 0
BITMAP
FFE0
0340
6C40
5440
5240
4380
6040
ENDCHAR
STARTCHAR uni0932094D0938
ENCODING -1
SWIDTH 1068 0
DWIDTH 12 0
BBX 12 7 0 0
BITMAP
FFF0
0120
6D20
53E0
5220
4120
6120
ENDCHAR
STARTCHAR uni0932094D0939
ENCODING -1
SWIDTH 922 0
DWIDTH 10 0
BBX 10 8 0 -1
BITMAP
FFC0
0080
6F80
5400
5380
4440
6400
0380
ENDCHAR
STARTCHAR uni0933094D092F
ENCODING -1
SWIDTH 1050 0
DWIDTH 12 0
BBX 12 7 0 0
BITMAP
FFF0
6D20
5320
9220
5220
6DE0
0020
ENDCHAR
STARTCHAR uni0935094D092F
ENCODING -1
SWIDTH 852 0
DWIDTH 9 0
BBX 10 7 0 0
BITMAP
FFC0
6480
8C80
8880
8880
7780
0080
ENDCHAR
STARTCHAR uni0935094D0932
ENCODING -1
SWIDTH 961 0
DWIDTH 11 0
BBX 11 7 0 0
BITMAP
FFE0
6040
8DC0
8A40
8840
7040
0C40
ENDCHAR
STARTCHAR uni0935094D0935
ENCODING -1
SWIDTH 776 0
DWIDTH 9 0
BBX 9 7 0 0
BITMAP
FF80
6500
8900
8900
8900
7700
0100
ENDCHAR
STARTCHAR uni0935094D0939
ENCODING -1
SWIDTH 754 0
DWIDTH 8 0
BBX 8 8 0 -1
BITMAP
FF
6E
88
88
8E
70
08
06
ENDCHAR
STARTCHAR uni0936094D0915
ENCODING -1
SWIDTH 1093 0
DWIDTH 12 0
BBX 12 7 0 0
BITMAP
67F0
56E0
1490
E890
4890
47E0
2080
ENDCHAR
STARTCHAR uni0936094D091A
ENCODING -1
SWIDTH 950 0
DWIDTH 10 0
BBX 11 7 0 0
BITMAP
67E0
5040
1740
E440
4440
4380
2040
ENDCHAR
STARTCHAR uni0936094D091B
ENCODING -1
SWIDTH 968 0
DWIDTH 11 0
BBX 11 7 0 0
BITMAP
6FE0
5440
1480
E640
4440
4440
2780
ENDCHAR
STARTCHAR uni0936094D091F
ENCODING -1
SWIDTH 854 0
DWIDTH 9 0
BBX 10 7 0 0
BITMAP
6FC0
5100
1700
E400
4480
4480
2700
ENDCHAR
STARTCHAR uni0936094D0924
ENCODING -1
SWIDTH 864 0
DWIDTH 10 0
BBX 10 7 0 0
BITMAP
6FC0
5080
1780
E480
4480
4480
2680
ENDCHAR
STARTCHAR uni0936094D092E
ENCODING -1
SWIDTH 885 0
DWIDTH 10 0
BBX 10 7 0 0
BITMAP
6FC0
5480
1480
E780
4480
4080
2080
ENDCHAR
STARTCHAR uni0936094D092F
ENCODING -1
SWIDTH 940 0
DWIDTH 10 0
BBX 11 7 0 0
BITMAP
6FE0
5240
1640
E440
4440
43C0
2040
ENDCHAR
STARTCHAR uni0936094D0932
ENCODING -1
SWIDTH 1039 0
DWIDTH 11 0
BBX 12 7 0 0
BITMAP
67F0
5020
16C0
E520
4520
4420
2620
ENDCHAR
STARTCHAR uni0936094D0935
ENCODING -1
SWIDTH 850 0
DWIDTH 9 0
BBX 10 7 0 0
BITMAP
67C0
5680
1480
E880
4480
4700
2080
ENDCHAR
STARTCHAR uni0936094D0936
ENCODING -1
SWIDTH 1009 0
DWIDTH 11 0
BBX 11 7 0 0
BITMAP
6760
5540
1140
E640
4440
4240
2240
ENDCHAR
STARTCHAR uni0937094D0915
ENCODING -1
SWIDTH 1039 0
DWIDTH 11 0
BBX 12 7 0 0
BITMAP
FFF0
65C0
5920
4920
7920
0740
0100
ENDCHAR
STARTCHAR uni0937094D091F
ENCODING -1
SWIDTH 493 0
DWIDTH 5 0
BBX 6 7 0 0
BITMAP
FC
68
58
70
40
88
78
ENDCHAR
STARTCHAR uni0937094D0920
ENCODING -1
SWIDTH 511 0
DWIDTH 6 0
BBX 6 7 0 0
BITMAP
FC
78
78
70
48
48
78
ENDCHAR
STARTCHAR uni0937094D0923
ENCODING -1
SWIDTH 980 0
DWIDTH 11 0
BBX 11 7 0 0
BITMAP
FFE0
6940
5940
4940
3640
0040
0040
ENDCHAR
STARTCHAR uni0937094D092A
ENCODING -1
SWIDTH 980 0
DWIDTH 11 0
BBX 11 7 0 0
BITMAP
FFE0
6940
5940
4940
3640
0040
0040
ENDCHAR
STARTCHAR uni0937094D092B
ENCODING -1
SWIDTH 1036 0
DWIDTH 11 0
BBX 12 7 0 0
BITMAP
FFF0
69C0
5920
4920
7720
01C0
0100
ENDCHAR
STARTCHAR uni0937094D092E
ENCODING -1
SWIDTH 791 0
DWIDTH 9 0
BBX 9 7 0 0
BITMAP
FF80
4900
6900
5F00
7900
0100
0100
ENDCHAR
STARTCHAR uni0937094D092F
ENCODING -1
SWIDTH 877 0
DWIDTH 10 0
BBX 10 7 0 0
BITMAP
FFC0
6280
5C80
4880
7880
0780
0080
ENDCHAR
STARTCHAR uni0937094D0935
ENCODING -1
SWIDTH 802 0
DWIDTH 9 0
BBX 9 7 0 0
BITMAP
FF80
6500
5900
4900
7900
0700
0100
ENDCHAR
STARTCHAR uni0937094D0937
ENCODING -1
SWIDTH 804 0
DWIDTH 9 0
BBX 9 7 0 0
BITMAP
FF80
6D00
5B00
4900
7700
0100
0100
ENDCHAR
STARTCHAR uni0938094D0915
ENCODING -1
SWIDTH 1089 0
DWIDTH 12 0
BBX 12 7 0 0
BITMAP
FFF0
2760
2890
F910
4910
4760
2100
ENDCHAR
STARTCHAR uni0938094D0916
ENCODING -1
SWIDTH 990 0
DWIDTH 11 0
BBX 11 7 0 0
BITMAP
FFE0
2440
25C0
FD40
4940
45C0
2440
ENDCHAR
STARTCHAR uni0938094D091C
ENCODING -1
SWIDTH 970 0
DWIDTH 11 0
BBX 11 7 0 0
BITMAP
FFE0
2040
27C0
F940
4140
4640
2040
ENDCHAR
STARTCHAR uni0938094D091F
ENCODING -1
SWIDTH 844 0
DWIDTH 9 0
BBX 9 7 0 0
BITMAP
FF80
2100
2700
F800
4880
4880
2700
ENDCHAR
STARTCHAR uni0938094D0924
ENCODING -1
SWIDTH 852 0
DWIDTH 9 0
BBX 10 7 0 0
BITMAP
FFC0
2080
2700
F880
4880
4880
2680
ENDCHAR
STARTCHAR uni0938094D0925
ENCODING -1
SWIDTH 960 0
DWIDTH 11 0
BBX 11 7 0 0
BITMAP
F660
2540
2140
FE40
4840
47C0
2040
ENDCHAR
STARTCHAR uni0938094D0926
ENCODING -1
SWIDTH 851 0
DWIDTH 9 0
BBX 10 7 0 0
BITMAP
FFC0
2080
2700
F800
4480
4780
2080
ENDCHAR
STARTCHAR uni0938094D092A
ENCODING -1
SWIDTH 857 0
DWIDTH 9 0
BBX 10 7 0 0
BITMAP
FFC0
2480
2480
F880
4700
4080
2080
ENDCHAR
STARTCHAR uni0938094D092B
ENCODING -1
SWIDTH 1092 0
DWIDTH 12 0
BBX 12 7 0 0
BITMAP
FFF0
24E0
2490
F910
4710
40E0
2080
ENDCHAR
STARTCHAR uni0938094D092C
ENCODING -1
SWIDTH 857 0
DWIDTH 9 0
BBX 10 7 0 0
BITMAP
FFC0
2680
2480
FA80
4900
4700
2080
ENDCHAR
STARTCHAR uni0938094D092E
ENCODING -1
SWIDTH 850 0
DWIDTH 9 0
BBX 10 7 0 0
BITMAP
FFC0
2480
2480
FF00
4480
4080
2080
ENDCHAR
STARTCHAR uni0938094D092F
ENCODING -1
SWIDTH 920 0
DWIDTH 10 0
BBX 10 7 0 0
BITMAP
FFC0
2280
2480
F880
4880
4780
2080
ENDCHAR
STARTCHAR uni0938094D0932
ENCODING -1
SWIDTH 1027 0
DWIDTH 11 0
BBX 11 7 0 0
BITMAP
FFE0
2020
26C0
F920
4920
4820
2620
ENDCHAR
STARTCHAR uni0938094D0935
ENCODING -1
SWIDTH 842 0
DWIDTH 9 0
BBX 9 7 0 0
BITMAP
FF80
2680
2880
F880
4900
4680
2080
ENDCHAR
STARTCHAR uni0938094D0938
ENCODING -1
SWIDTH 871 0
DWIDTH 10 0
BBX 10 7 0 0
BITMAP
FFC0
2480
2480
FF80
4880
4880
2480
ENDCHAR
STARTCHAR uni0939094D0923
ENCODING -1
SWIDTH 1136 0
DWIDTH 13 0
BBX 13 10 0 -3
BITMAP
FFF8
0A90
7290
4290
3290
4910
4010
7000
1000
1000
ENDCHAR
STARTCHAR uni0939094D092E
ENCODING -1
SWIDTH 746 0
DWIDTH 8 0
BBX 8 8 0 -1
BITMAP
FF
0A
72
42
72
4E
4A
70
ENDCHAR
STARTCHAR uni0939094D092F
ENCODING -1
SWIDTH 785 0
DWIDTH 9 0
BBX 9 8 0 -1
BITMAP
FF80
7100
4100
7900
4500
4900
5100
7F00
ENDCHAR
STARTCHAR uni0939094D0932
ENCODING -1
SWIDTH 1110 0
DWIDTH 12 0
BBX 12 10 0 -3
BITMAP
FFF0
7020
4360
44A0
34A0
4C20
4320
7000
2000
1000
ENDCHAR
STARTCHAR uni0939094D0935
ENCODING -1
SWIDTH 920 0
DWIDTH 10 0
BBX 10 10 0 -3
BITMAP
FFC0
0880
7380
4480
3480
4B80
4080
7000
2000
1000
ENDCHAR
STARTCHAR uni0915093C094D0915093C
ENCODING -1
SWIDTH 1275 0
DWIDTH 14 0
BBX 14 8 0 -1
BITMAP
FFFC
77B8
8924
9224
9124
71F8
1020
4100
ENDCHAR
STARTCHAR uni0915093C094D0924
ENCODING -1
SWIDTH 1016 0
DWIDTH 11 0
BBX 11 8 0 -1
BITMAP
FFE0
7640
89C0
9240
9240
7240
1140
4000
ENDCHAR
STARTCHAR uni0915093C094D092B
ENCODING -1
SWIDTH 1246 0
DWIDTH 14 0
BBX 14 8 0 -1
BITMAP
FFFC
7270
9E48
9248
91C8
7050
1040
4000
ENDCHAR
STARTCHAR uni0915093C094D092B093C
ENCODING -1
SWIDTH 1247 0
DWIDTH 14 0
BBX 14 8 0 -1
BITMAP
FFFC
7270
9E48
9248
91C8
7050
1040
4100
ENDCHAR
STARTCHAR uni0915093C094D092C
ENCODING -1
SWIDTH 1043 0
DWIDTH 11 0
BBX 12 8 0 -1
BITMAP
FFF0
77A0
8920
91A0
9140
71C0
1020
4000
ENDCHAR
STARTCHAR uni0915093C094D092E
ENCODING -1
SWIDTH 998 0
DWIDTH 11 0
BBX 11 8 0 -1
BITMAP
FFE0
7240
8E40
93C0
9240
7040
1040
4000
ENDCHAR
STARTCHAR uni0916093C094D0924
ENCODING -1
SWIDTH 984 0
DWIDTH 11 0
BBX 11 8 0 -1
BITMAP
FFE0
2040
29C0
D240
5240
4E40
2340
0400
ENDCHAR
STARTCHAR uni0916093C094D092E
ENCODING -1
SWIDTH 965 0
DWIDTH 11 0
BBX 11 8 0 -1
BITMAP
FFE0
2240
2A40
D3C0
5240
4C40
2040
0400
ENDCHAR
STARTCHAR uni0916093C094D092F
ENCODING -1
SWIDTH 1045 0
DWIDTH 12 0
BBX 12 8 0 -1
BITMAP
FFF0
2120
2B20
D220
5220
4DE0
2020
0800
ENDCHAR
STARTCHAR uni0916093C094D0935
ENCODING -1
SWIDTH 972 0
DWIDTH 11 0
BBX 11 8 0 -1
BITMAP
FFE0
2140
2A40
D240
5240
4FC0
2040
0800
ENDCHAR
STARTCHAR uni0916093C094D0936
ENCODING -1
SWIDTH 1123 0
DWIDTH 12 0
BBX 13 8 0 -1
BITMAP
FD98
2250
2A90
D390
5210
4E10
2110
0800
ENDCHAR
STARTCHAR uni0916093C094D0938
ENCODING -1
SWIDTH 1066 0
DWIDTH 12 0
BBX 12 8 0 -1
BITMAP
FFF0
2120
2920
D3E0
5220
4D20
2120
0800
ENDCHAR
STARTCHAR uni091C093C094D091C093C
ENCODING -1
SWIDTH 934 0
DWIDTH 10 0
BBX 10 8 0 -1
BITMAP
FFC0
0080
7780
2280
2280
EC80
0080
4400
ENDCHAR
STARTCHAR uni091C093C094D092F
ENCODING -1
SWIDTH 893 0
DWIDTH 10 0
BBX 10 8 0 -1
BITMAP
FFC0
0280
7C80
2880
2880
E780
0080
4000
ENDCHAR
STARTCHAR uni092B093C094D091C093C
ENCODING -1
SWIDTH 1100 0
DWIDTH 12 0
BBX 12 8 0 -1
BITMAP
FFF0
4820
4DE0
48A0
30A0
0BA0
0820
4100
ENDCHAR
STARTCHAR uni092B093C094D0924
ENCODING -1
SWIDTH 1036 0
DWIDTH 11 0
BBX 12 8 0 -1
BITMAP
FFF0
4E20
49C0
4A20
3220
0A20
09A0
4000
ENDCHAR
STARTCHAR uni092B093C094D092B093C
ENCODING -1
SWIDTH 1256 0
DWIDTH 14 0
BBX 14 8 0 -1
BITMAP
FFFC
4A30
4E48
4A48
31C8
0850
0840
4100
ENDCHAR
STARTCHAR uni092B093C094D0938
ENCODING -1
SWIDTH 1141 0
DWIDTH 13 0
BBX 13 8 0 -1
BITMAP
FFF8
4C90
4A90
49F0
3110
0910
0890
4000
ENDCHAR
STARTCHAR uni092C094D091C093C
ENCODING -1
SWIDTH 883 0
DWIDTH 10 0
BBX 10 8 0 -1
BITMAP
FFC0
0080
6F80
A280
9280
7C80
0080
0800
ENDCHAR
STARTCHAR uni0932094D091C093C
ENCODING -1
SWIDTH 1062 0
DWIDTH 12 0
BBX 12 8 0 -1
BITMAP
FFF0
0020
6BC0
50A0
40A0
4720
6020
0200
ENDCHAR
STARTCHAR uni0936094D0915093C
ENCODING -1
SWIDTH 1093 0
DWIDTH 12 0
BBX 12 8 0 -1
BITMAP
67F0
56E0
1490
E890
4890
47E0
2080
0400
ENDCHAR
STARTCHAR uni0924094D0924094D
ENCODING -1
SWIDTH 309 0
DWIDTH 3 0
BBX 5 7 0 0
BITMAP
F8
00
F8
40
40
40
20
ENDCHAR
STARTCHAR uni0928094D092D094D
ENCODING -1
SWIDTH 505 0
DWIDTH 6 0
BBX 7 5 0 2
BITMAP
F6
10
10
7E
90
ENDCHAR
STARTCHAR uni0928094D0938094D
ENCODING -1
SWIDTH 635 0
DWIDTH 7 0
BBX 8 7 0 0
BITMAP
FF
04
74
8F
88
08
04
ENDCHAR
STARTCHAR uni092E094D092D094D
ENCODING -1
SWIDTH 533 0
DWIDTH 6 0
BBX 7 5 0 2
BITMAP
F2
48
48
7E
48
ENDCHAR
STARTCHAR uni0932094D092D094D
ENCODING -1
SWIDTH 694 0
DWIDTH 8 0
BBX 9 7 0 0
BITMAP
FC80
0400
6C00
5380
5400
4000
6000
ENDCHAR
STARTCHAR uni0938094D0924094D0930094D
ENCODING -1
SWIDTH 575 0
DWIDTH 6 0
BBX 8 7 0 0
BITMAP
FE
20
26
F9
41
42
2C
ENDCHAR
STARTCHAR uni0915094D0924094D092F
ENCODING -1
SWIDTH 1356 0
DWIDTH 15 0
BBX 15 7 0 0
BITMAP
FFFE
7614
89E4
9244
9244
723C
1104
ENDCHAR
STARTCHAR uni0915094D0924094D0930
ENCODING -1
SWIDTH 997 0
DWIDTH 11 0
BBX 11 7 0 0
BITMAP
FFE0
7640
89C0
9240
9040
70C0
1340
ENDCHAR
STARTCHAR uni0915094D0924094D0935
ENCODING -1
SWIDTH 1242 0
DWIDTH 14 0
BBX 14 7 0 0
BITMAP
FFFC
7628
89C8
9248
9248
7238
1308
ENDCHAR
STARTCHAR uni0915094D092A094D0930
ENCODING -1
SWIDTH 1007 0
DWIDTH 11 0
BBX 11 7 0 0
BITMAP
FFE0
7640
8A40
9240
91C0
70C0
1140
ENDCHAR
STARTCHAR uni0915094D0935094D092F
ENCODING -1
SWIDTH 1384 0
DWIDTH 15 0
BBX 15 7 0 0
BITMAP
FFFE
7794
8A24
9224
9224
71DC
1004
ENDCHAR
STARTCHAR uni0915094D0938094D091F
ENCODING -1
SWIDTH 1376 0
DWIDTH 15 0
BBX 15 7 0 0
BITMAP
FFFE
7684
8A9C
91E0
9122
70A2
109C
ENDCHAR
STARTCHAR uni0915094D0938094D0921
ENCODING -1
SWIDTH 1388 0
DWIDTH 15 0
BBX 15 7 0 0
BITMAP
FFFE
7684
8A9C
91E0
911C
7092
109C
ENDCHAR
STARTCHAR uni0915094D0938094D0924
ENCODING -1
SWIDTH 1423 0
DWIDTH 16 0
BBX 16 7 0 0
BITMAP
FFFF
7682
8A9E
91E2
9112
7092
109A
ENDCHAR
STARTCHAR uni0915094D0938094D092A094D0930
ENCODING -1
SWIDTH 1437 0
DWIDTH 16 0
BBX 16 7 0 0
BITMAP
FFFF
7692
8A92
91F2
910E
708A
1092
ENDCHAR
STARTCHAR uni0915094D0938094D092A094D0932
ENCODING -1
SWIDTH 1866 0
DWIDTH 21 0
BBX 21 7 0 0
BITMAP
FFFFF8
769010
8A9370
91F290
910C10
708210
108310
ENDCHAR
STARTCHAR uni0917094D0927094D092F
ENCODING -1
SWIDTH 1156 0
DWIDTH 13 0
BBX 13 7 0 0
BITMAP
FFF8
5050
4D90
4910
8910
0EF0
0010
ENDCHAR
STARTCHAR uni0917094D0927094D0935
ENCODING -1
SWIDTH 1084 0
DWIDTH 12 0
BBX 12 7 0 0
BITMAP
FFF0
50E0
4D20
5120
8920
0EE0
0020
ENDCHAR
STARTCHAR uni0917094D0928094D092F
ENCODING -1
SWIDTH 1069 0
DWIDTH 12 0
BBX 12 7 0 0
BITMAP
FFF0
40A0
4F20
5220
9220
01E0
0020
ENDCHAR
STARTCHAR uni0917094D092D094D092F
ENCODING -1
SWIDTH 1102 0
DWIDTH 12 0
BBX 12 7 0 0
BITMAP
F3F0
48A0
4920
4E20
8A20
01E0
0020
ENDCHAR
STARTCHAR uni0917094D0930094D092F
ENCODING -1
SWIDTH 817 0
DWIDTH 9 0
BBX 9 7 0 0
BITMAP
FF80
4500
4900
5100
9100
0F00
0D00
ENDCHAR
STARTCHAR uni091A094D091B094D0935
ENCODING -1
SWIDTH 913 0
DWIDTH 10 0
BBX 10 8 0 -1
BITMAP
FFC0
0880
F780
4840
4880
3780
0480
0700
ENDCHAR
STARTCHAR uni091C094D091C094D091E
ENCODING -1
SWIDTH 945 0
DWIDTH 10 0
BBX 11 8 0 -1
BITMAP
FFE0
0040
7FC0
2840
2740
E940
0F40
0800
ENDCHAR
STARTCHAR uni091C094D091C094D092F
ENCODING -1
SWIDTH 1252 0
DWIDTH 14 0
BBX 14 7 0 0
BITMAP
FFFC
0028
77C8
2288
2288
EC78
0008
ENDCHAR
STARTCHAR uni091C094D091C094D0935
ENCODING -1
SWIDTH 1243 0
DWIDTH 14 0
BBX 13 7 0 0
BITMAP
FFF8
0070
7790
2290
2290
EC70
0010
ENDCHAR
STARTCHAR uni0924094D0915094D092F
ENCODING -1
SWIDTH 1346 0
DWIDTH 15 0
BBX 15 7 0 0
BITMAP
FFFE
0E14
71E4
9244
9244
8E3C
6204
ENDCHAR
STARTCHAR uni0924094D0915094D0930
ENCODING -1
SWIDTH 995 0
DWIDTH 11 0
BBX 11 7 0 0
BITMAP
FFE0
0FC0
7240
9220
9240
8EC0
6E00
ENDCHAR
STARTCHAR uni0924094D0915094D0935
ENCODING -1
SWIDTH 1282 0
DWIDTH 14 0
BBX 14 7 0 0
BITMAP
FFFC
0FF8
7248
9248
9248
8E38
6208
ENDCHAR
STARTCHAR uni0924094D0915094D0937
ENCODING -1
SWIDTH 943 0
DWIDTH 10 0
BBX 11 7 0 0
BITMAP
F660
0940
7F80
8840
8940
8E40
6140
ENDCHAR
STARTCHAR uni0924094D0916094D0930
ENCODING -1
SWIDTH 1008 0
DWIDTH 11 0
BBX 11 7 0 0
BITMAP
FFE0
0440
74C0
8D40
8940
84C0
65C0
ENDCHAR
STARTCHAR uni0924094D0924094D092F
ENCODING -1
SWIDTH 888 0
DWIDTH 10 0
BBX 10 7 0 0
BITMAP
FFC0
0280
F280
4C80
4880
4780
6080
ENDCHAR
STARTCHAR uni0924094D0924094D0935
ENCODING -1
SWIDTH 788 0
DWIDTH 9 0
BBX 9 7 0 0
BITMAP
FF80
0500
F900
4900
4900
4700
2100
ENDCHAR
STARTCHAR uni0924094D0928094D092F
ENCODING -1
SWIDTH 1098 0
DWIDTH 12 0
BBX 12 7 0 0
BITMAP
FFF0
00A0
7F20
9220
8220
81E0
6020
ENDCHAR
STARTCHAR uni0924094D092A094D0930
ENCODING -1
SWIDTH 763 0
DWIDTH 8 0
BBX 9 7 0 0
BITMAP
FF80
0900
7100
8900
8E00
8500
6900
ENDCHAR
STARTCHAR uni0924094D092A094D0932
ENCODING -1
SWIDTH 1219 0
DWIDTH 13 0
BBX 14 7 0 0
BITMAP
FFFC
0808
71B0
8948
8E08
8108
6188
ENDCHAR
STARTCHAR uni0924094D092E094D092F
ENCODING -1
SWIDTH 1096 0
DWIDTH 12 0
BBX 12 7 0 0
BITMAP
FFF0
08A0
7120
8E20
8A20
81E0
6020
ENDCHAR
STARTCHAR uni0924094D0930094D092F
ENCODING -1
SWIDTH 848 0
DWIDTH 9 0
BBX 9 7 0 0
BITMAP
FF80
0480
7480
8880
0880
3780
4080
ENDCHAR
STARTCHAR uni0924094D0938094D092F
ENCODING -1
SWIDTH 1234 0
DWIDTH 14 0
BBX 14 7 0 0
BITMAP
FFFC
0428
74C8
8F88
8888
8478
6408
ENDCHAR
STARTCHAR uni0924094D0938094D0935
ENCODING -1
SWIDTH 1155 0
DWIDTH 13 0
BBX 13 7 0 0
BITMAP
FFF8
0450
7490
8F90
8890
8470
6410
ENDCHAR
STARTCHAR uni0926094D0917094D0930
ENCODING -1
SWIDTH 493 0
DWIDTH 5 0
BBX 6 9 0 -2
BITMAP
FC
08
70
40
48
78
28
58
28
ENDCHAR
STARTCHAR uni0926094D092C094D0930
ENCODING -1
SWIDTH 483 0
DWIDTH 5 0
BBX 5 10 0 -3
BITMAP
F8
08
70
40
40
48
78
68
70
20
ENDCHAR
STARTCHAR uni0926094D092F094D092D
ENCODING -1
SWIDTH 607 0
DWIDTH 7 0
BBX 7 9 0 -2
BITMAP
FE
74
44
24
44
7C
54
A4
14
ENDCHAR
STARTCHAR uni0926094D092F094D0930
ENCODING -1
SWIDTH 595 0
DWIDTH 7 0
BBX 7 7 0 0
BITMAP
FE
64
44
64
44
44
7C
ENDCHAR
STARTCHAR uni0927094D0928094D092F
ENCODING -1
SWIDTH 1138 0
DWIDTH 13 0
BBX 13 7 0 0
BITMAP
EFF8
4090
6790
4910
4910
78F0
0010
ENDCHAR
STARTCHAR uni0928094D0915094D0938
ENCODING -1
SWIDTH 1384 0
DWIDTH 15 0
BBX 15 7 0 0
BITMAP
FFFE
0F94
1254
F27C
9224
0E24
0214
ENDCHAR
STARTCHAR uni0928094D0924094D092F
ENCODING -1
SWIDTH 1073 0
DWIDTH 12 0
BBX 12 7 0 0
BITMAP
FFF0
00A0
0F20
7220
9220
11E0
0820
ENDCHAR
STARTCHAR uni0928094D0924094D0930
ENCODING -1
SWIDTH 732 0
DWIDTH 8 0
BBX 8 7 0 0
BITMAP
FF
02
0E
72
92
06
1A
ENDCHAR
STARTCHAR uni0928094D0924094D0938
ENCODING -1
SWIDTH 1134 0
DWIDTH 12 0
BBX 13 7 0 0
BITMAP
FFF8
0090
0E90
F1E0
9110
1110
0890
ENDCHAR
STARTCHAR uni0928094D0925094D092F
ENCODING -1
SWIDTH 1168 0
DWIDTH 13 0
BBX 13 7 0 0
BITMAP
EDF8
1250
0390
7D10
9110
0EF0
0010
ENDCHAR
STARTCHAR uni0928094D0925094D0935
ENCODING -1
SWIDTH 1089 0
DWIDTH 12 0
BBX 12 7 0 0
BITMAP
EDF0
12E0
0320
7D20
9120
0EE0
0020
ENDCHAR
STARTCHAR uni0928094D0926094D0930
ENCODING -1
SWIDTH 734 0
DWIDTH 8 0
BBX 8 7 0 0
BITMAP
FF
02
0E
70
92
0E
06
ENDCHAR
STARTCHAR uni0928094D0926094D0935
ENCODING -1
SWIDTH 732 0
DWIDTH 8 0
BBX 8 9 0 -2
BITMAP
FF
02
0E
70
92
0E
12
12
0E
ENDCHAR
STARTCHAR uni0928094D0927094D092F
ENCODING -1
SWIDTH 1097 0
DWIDTH 12 0
BBX 12 7 0 0
BITMAP
FBF0
10A0
7D20
9220
9220
0FE0
0020
ENDCHAR
STARTCHAR uni0928094D0927094D0930
ENCODING -1
SWIDTH 783 0
DWIDTH 9 0
BBX 9 7 0 0
BITMAP
FB80
1100
1100
7D00
9100
0F00
0D00
ENDCHAR
STARTCHAR uni0928094D0927094D0935
ENCODING -1
SWIDTH 1036 0
DWIDTH 11 0
BBX 12 7 0 0
BITMAP
FBF0
11A0
7D20
9120
1120
0FC0
0020
ENDCHAR
STARTCHAR uni0928094D0928094D092F
ENCODING -1
SWIDTH 1071 0
DWIDTH 12 0
BBX 12 7 0 0
BITMAP
FFF0
00A0
7F20
9220
0220
01E0
0020
ENDCHAR
STARTCHAR uni0928094D092A094D0930
ENCODING -1
SWIDTH 737 0
DWIDTH 8 0
BBX 8 7 0 0
BITMAP
FF
12
72
92
8E
06
0A
ENDCHAR
STARTCHAR uni0928094D092B094D0930
ENCODING -1
SWIDTH 975 0
DWIDTH 11 0
BBX 11 7 0 0
BITMAP
FFE0
1380
7240
9240
8E40
0680
0A00
ENDCHAR
STARTCHAR uni0928094D092D094D092F
ENCODING -1
SWIDTH 1071 0
DWIDTH 12 0
BBX 12 7 0 0
BITMAP
F7F0
10A0
1320
7E20
9220
01E0
0020
ENDCHAR
STARTCHAR uni0928094D092D094D0935
ENCODING -1
SWIDTH 995 0
DWIDTH 11 0
BBX 11 7 0 0
BITMAP
F7E0
11C0
1240
7E40
9240
01C0
0040
ENDCHAR
STARTCHAR uni0928094D092E094D092F
ENCODING -1
SWIDTH 1071 0
DWIDTH 12 0
BBX 12 7 0 0
BITMAP
FFF0
10A0
1320
7E20
9220
01E0
0020
ENDCHAR
STARTCHAR uni0928094D0938094D091F
ENCODING -1
SWIDTH 1113 0
DWIDTH 12 0
BBX 12 7 0 0
BITMAP
FFF0
0420
74C0
9F00
8910
0910
04E0
ENDCHAR
STARTCHAR uni0928094D0938094D092E094D092F
ENCODING -1
SWIDTH 1453 0
DWIDTH 16 0
BBX 16 7 0 0
BITMAP
FFFF
048A
6492
9FE2
88A2
081E
0402
ENDCHAR
STARTCHAR uni0928094D0938094D092F
ENCODING -1
SWIDTH 1194 0
DWIDTH 13 0
BBX 13 7 0 0
BITMAP
FFF8
0450
6490
9F10
8910
08F0
0410
ENDCHAR
STARTCHAR uni092A094D0924094D092F
ENCODING -1
SWIDTH 1119 0
DWIDTH 12 0
BBX 12 7 0 0
BITMAP
FFF0
4090
4F90
4910
3120
08D0
0C10
ENDCHAR
STARTCHAR uni092C094D091C094D092F
ENCODING -1
SWIDTH 1235 0
DWIDTH 14 0
BBX 14 7 0 0
BITMAP
FFFC
0028
6FC8
A288
9288
7C78
0008
ENDCHAR
STARTCHAR uni092C094D0927094D0935
ENCODING -1
SWIDTH 1097 0
DWIDTH 12 0
BBX 12 7 0 0
BITMAP
FDF0
68E0
C520
A920
9920
7FE0
0020
ENDCHAR
STARTCHAR uni092C094D092D094D0930
ENCODING -1
SWIDTH 764 0
DWIDTH 8 0
BBX 9 7 0 0
BITMAP
F380
6900
4900
AE00
9200
7500
0900
ENDCHAR
STARTCHAR uni092C094D0932094D092F
ENCODING -1
SWIDTH 480 0
DWIDTH 5 0
BBX 15 7 0 0
BITMAP
FFFE
65A4
4A64
AA64
9244
7038
0C04
ENDCHAR
STARTCHAR uni092D094D0930094D092F
ENCODING -1
SWIDTH 830 0
DWIDTH 9 0
BBX 9 7 0 0
BITMAP
9F80
4500
4900
7100
5100
2F00
4100
ENDCHAR
STARTCHAR uni092E094D092A094D0930
ENCODING -1
SWIDTH 765 0
DWIDTH 8 0
BBX 9 7 0 0
BITMAP
FF80
4900
4900
7100
4E00
0500
0900
ENDCHAR
STARTCHAR uni092E094D092C094D092F
ENCODING -1
SWIDTH 1124 0
DWIDTH 12 0
BBX 13 7 0 0
BITMAP
FFF8
4C90
4990
7510
5310
0EF0
0010
ENDCHAR
STARTCHAR uni092E094D092C094D0930
ENCODING -1
SWIDTH 768 0
DWIDTH 8 0
BBX 9 7 0 0
BITMAP
FF80
4D00
4900
7500
4A00
0E00
0D00
ENDCHAR
STARTCHAR uni092E094D092D094D092F
ENCODING -1
SWIDTH 1101 0
DWIDTH 12 0
BBX 12 7 0 0
BITMAP
F3F0
48A0
4920
7E20
4A20
01E0
0020
ENDCHAR
STARTCHAR uni092E094D092D094D0930
ENCODING -1
SWIDTH 759 0
DWIDTH 8 0
BBX 9 7 0 0
BITMAP
F380
4900
4900
7E00
4A00
0500
0900
ENDCHAR
STARTCHAR uni092E094D092D094D0935
ENCODING -1
SWIDTH 1028 0
DWIDTH 11 0
BBX 11 7 0 0
BITMAP
F3E0
49A0
4920
7E20
4A20
01C0
0020
ENDCHAR
STARTCHAR uni0932094D0915094D092F
ENCODING -1
SWIDTH 1534 0
DWIDTH 17 0
BBX 17 7 0 0
BITMAP
FFFF80
034500
6C7900
545100
545100
438F00
604100
ENDCHAR
STARTCHAR uni0932094D0925094D092F
ENCODING -1
SWIDTH 1397 0
DWIDTH 15 0
BBX 16 7 0 0
BITMAP
FBBF
0292
7CB2
5322
5222
41DE
6002
ENDCHAR
STARTCHAR uni0932094D0926094D0930
ENCODING -1
SWIDTH 933 0
DWIDTH 10 0
BBX 10 7 0 0
BITMAP
FFC0
0040
6F80
5400
5440
4380
6140
ENDCHAR
STARTCHAR uni0932094D0932094D092F
ENCODING -1
SWIDTH 1476 0
DWIDTH 16 0
BBX 16 7 0 0
BITMAP
FFFF
6F6A
54AA
5492
5492
440E
6302
ENDCHAR
STARTCHAR uni0932094D0935094D0921
ENCODING -1
SWIDTH 1247 0
DWIDTH 14 0
BBX 14 7 0 0
BITMAP
FFFC
0308
6C38
5440
5478
4388
6078
ENDCHAR
STARTCHAR uni0937094D0915094D0930
ENCODING -1
SWIDTH 1042 0
DWIDTH 11 0
BBX 12 7 0 0
BITMAP
FFF0
65C0
5920
4920
7920
0740
0500
ENDCHAR
STARTCHAR uni0937094D091F094D092F
ENCODING -1
SWIDTH 997 0
DWIDTH 11 0
BBX 11 7 0 0
BITMAP
FFE0
6F40
5940
6340
8240
89C0
7040
ENDCHAR
STARTCHAR uni0937094D091F094D0930
ENCODING -1
SWIDTH 493 0
DWIDTH 5 0
BBX 6 9 0 -2
BITMAP
FC
68
58
70
40
88
48
30
48
ENDCHAR
STARTCHAR uni0937094D091F094D0935
ENCODING -1
SWIDTH 493 0
DWIDTH 5 0
BBX 6 10 0 -3
BITMAP
FC
68
58
70
40
48
70
48
48
70
ENDCHAR
STARTCHAR uni0937094D0920094D092F
ENCODING -1
SWIDTH 1006 0
DWIDTH 11 0
BBX 11 7 0 0
BITMAP
FFE0
7F40
7940
4B40
4A40
49C0
7840
ENDCHAR
STARTCHAR uni0937094D0920094D0930
ENCODING -1
SWIDTH 512 0
DWIDTH 6 0
BBX 6 8 0 -1
BITMAP
FC
78
78
70
48
48
48
78
ENDCHAR
STARTCHAR uni0937094D0923094D092F
ENCODING -1
SWIDTH 1273 0
DWIDTH 14 0
BBX 14 7 0 0
BITMAP
FFFC
6A28
5A48
4A88
3688
0078
0008
ENDCHAR
STARTCHAR uni0937094D092A094D0930
ENCODING -1
SWIDTH 798 0
DWIDTH 9 0
BBX 9 7 0 0
BITMAP
FF80
6900
5900
4900
7700
0500
0900
ENDCHAR
STARTCHAR uni0937094D092E094D092F
ENCODING -1
SWIDTH 1121 0
DWIDTH 12 0
BBX 12 7 0 0
BITMAP
FFF0
4890
6990
5E10
7910
00F0
0010
ENDCHAR
STARTCHAR uni0938094D0915094D0930
ENCODING -1
SWIDTH 1084 0
DWIDTH 12 0
BBX 12 7 0 0
BITMAP
FFF0
26E0
2920
F920
4920
4760
2700
ENDCHAR
STARTCHAR uni0938094D0915094D0935
ENCODING -1
SWIDTH 1369 0
DWIDTH 15 0
BBX 15 7 0 0
BITMAP
FFFE
26FC
2924
F924
4924
471C
2104
ENDCHAR
STARTCHAR uni0938094D0924094D092F
ENCODING -1
SWIDTH 1185 0
DWIDTH 13 0
BBX 13 7 0 0
BITMAP
FFF8
2050
2790
F910
4910
48F0
2410
ENDCHAR
STARTCHAR uni0938094D0924094D0930
ENCODING -1
SWIDTH 818 0
DWIDTH 9 0
BBX 9 7 0 0
BITMAP
FF80
2100
2700
F900
4100
4300
2D00
ENDCHAR
STARTCHAR uni0938094D0924094D0935
ENCODING -1
SWIDTH 1126 0
DWIDTH 12 0
BBX 13 7 0 0
BITMAP
FFF8
20D0
2710
F890
4890
48E0
2610
ENDCHAR
STARTCHAR uni0938094D0925094D092F
ENCODING -1
SWIDTH 1303 0
DWIDTH 14 0
BBX 14 7 0 0
BITMAP
F67C
2524
2164
FE44
4444
47BC
2004
ENDCHAR
STARTCHAR uni0938094D092A094D0930
ENCODING -1
SWIDTH 850 0
DWIDTH 9 0
BBX 10 7 0 0
BITMAP
FFC0
2880
2880
F880
4700
4280
2480
ENDCHAR
STARTCHAR uni0938094D092E094D092F
ENCODING -1
SWIDTH 1189 0
DWIDTH 13 0
BBX 13 7 0 0
BITMAP
FFF8
2450
2490
FF10
4510
40F0
2010
ENDCHAR
STARTCHAR uni093F.a01
ENCODING -1
SWIDTH 231 0
DWIDTH 3 0
BBX 5 10 0 0
BITMAP
78
48
40
E0
40
40
40
40
40
40
ENDCHAR
STARTCHAR uni093F.a04
ENCODING -1
SWIDTH 231 0
DWIDTH 3 0
BBX 7 10 0 0
BITMAP
7E
42
40
E0
40
40
40
40
40
40
ENDCHAR
STARTCHAR uni093F.a05
ENCODING -1
SWIDTH 231 0
DWIDTH 3 0
BBX 7 10 0 0
BITMAP
7E
42
40
E0
40
40
40
40
40
40
ENDCHAR
STARTCHAR uni093F.a06
ENCODING -1
SWIDTH 231 0
DWIDTH 3 0
BBX 8 10 0 0
BITMAP
7F
41
40
E0
40
40
40
40
40
40
ENDCHAR
STARTCHAR uni093F.a07
ENCODING -1
SWIDTH 231 0
DWIDTH 3 0
BBX 8 10 0 0
BITMAP
7F
41
40
E0
40
40
40
40
40
40
ENDCHAR
STARTCHAR uni093F.a08
ENCODING -1
SWIDTH 231 0
DWIDTH 3 0
BBX 9 10 0 0
BITMAP
7F80
4080
4000
E000
4000
4000
4000
4000
4000
4000
ENDCHAR
STARTCHAR uni093F.a09
ENCODING -1
SWIDTH 231 0
DWIDTH 3 0
BBX 10 10 0 0
BITMAP
7F80
4040
4000
E000
4000
4000
4000
4000
4000
4000
ENDCHAR
STARTCHAR uni093F.a10
ENCODING -1
SWIDTH 231 0
DWIDTH 3 0
BBX 10 10 0 0
BITMAP
7FC0
4040
4000
E000
4000
4000
4000
4000
4000
4000
ENDCHAR
STARTCHAR uni093F.a11
ENCODING -1
SWIDTH 231 0
DWIDTH 3 0
BBX 11 10 0 0
BITMAP
7FC0
4020
4000
E000
4000
4000
4000
4000
4000
4000
ENDCHAR
STARTCHAR uni093F.a12
ENCODING -1
SWIDTH 231 0
DWIDTH 3 0
BBX 11 10 0 0
BITMAP
7FE0
4020
4000
E000
4000
4000
4000
4000
4000
4000
ENDCHAR
STARTCHAR uni093F.a13
ENCODING -1
SWIDTH 231 0
DWIDTH 3 0
BBX 12 10 0 0
BITMAP
7FE0
4010
4000
E000
4000
4000
4000
4000
4000
4000
ENDCHAR
STARTCHAR uni093F.a14
ENCODING -1
SWIDTH 231 0
DWIDTH 3 0
BBX 12 10 0 0
BITMAP
7FF0
4010
4000
E000
4000
4000
4000
4000
4000
4000
ENDCHAR
STARTCHAR uni093F.a15
ENCODING -1
SWIDTH 231 0
DWIDTH 3 0
BBX 13 10 0 0
BITMAP
7FF0
4008
4000
E000
4000
4000
4000
4000
4000
4000
ENDCHAR
STARTCHAR uni093F.a16
ENCODING -1
SWIDTH 231 0
DWIDTH 3 0
BBX 13 10 0 0
BITMAP
7FF8
4008
4000
E000
4000
4000
4000
4000
4000
4000
ENDCHAR
STARTCHAR uni093F.a17
ENCODING -1
SWIDTH 231 0
DWIDTH 3 0
BBX 14 10 0 0
BITMAP
7FF8
4004
4000
E000
4000
4000
4000
4000
4000
4000
ENDCHAR
STARTCHAR uni093F.a18
ENCODING -1
SWIDTH 231 0
DWIDTH 3 0
BBX 14 10 0 0
BITMAP
7FFC
4004
4000
E000
4000
4000
4000
4000
4000
4000
ENDCHAR
STARTCHAR uni093F.a19
ENCODING -1
SWIDTH 231 0
DWIDTH 3 0
BBX 15 10 0 0
BITMAP
7FFC
4002
4000
E000
4000
4000
4000
4000
4000
4000
ENDCHAR
STARTCHAR uni093F.a20
ENCODING -1
SWIDTH 231 0
DWIDTH 3 0
BBX 15 10 0 0
BITMAP
7FFE
4002
4000
E000
4000
4000
4000
4000
4000
4000
ENDCHAR
STARTCHAR uni093F.a21
ENCODING -1
SWIDTH 231 0
DWIDTH 3 0
BBX 16 10 0 0
BITMAP
7FFE
4001
4000
E000
4000
4000
4000
4000
4000
4000
ENDCHAR
STARTCHAR uni093F.a22
ENCODING -1
SWIDTH 231 0
DWIDTH 3 0
BBX 16 10 0 0
BITMAP
7FFF
4001
4000
E000
4000
4000
4000
4000
4000
4000
ENDCHAR
STARTCHAR uni093F.a23
ENCODING -1
SWIDTH 231 0
DWIDTH 3 0
BBX 17 10 0 0
BITMAP
7FFF00
400080
400000
E00000
400000
400000
400000
400000
400000
400000
ENDCHAR
STARTCHAR uni093F.a24
ENCODING -1
SWIDTH 231 0
DWIDTH 3 0
BBX 17 10 0 0
BITMAP
7FFF80
400080
400000
E00000
400000
400000
400000
400000
400000
400000
ENDCHAR
STARTCHAR uni093F.a25
ENCODING -1
SWIDTH 231 0
DWIDTH 3 0
BBX 18 10 0 0
BITMAP
7FFFC0
400040
400000
E00000
400000
400000
400000
400000
400000
400000
ENDCHAR
STARTCHAR uni093F.a26
ENCODING -1
SWIDTH 231 0
DWIDTH 3 0
BBX 18 10 0 0
BITMAP
7FFFC0
400040
400000
E00000
400000
400000
400000
400000
400000
400000
ENDCHAR
STARTCHAR uni093F.a32
ENCODING -1
SWIDTH 231 0
DWIDTH 3 0
BBX 22 10 0 0
BITMAP
7FFFFC
400004
400000
E00000
400000
400000
400000
400000
400000
400000
ENDCHAR
STARTCHAR uni093E0901
ENCODING -1
SWIDTH 231 0
DWIDTH 3 0
BBX 3 10 0 0
BITMAP
40
A0
E0
40
40
40
40
40
40
40
ENDCHAR
STARTCHAR dvNG_GA
ENCODING -1
SWIDTH 562 0
DWIDTH 6 0
BBX 6 10 0 -3
BITMAP
FC
08
78
44
78
08
78
28
48
C8
ENDCHAR
STARTCHAR dvNG_MA
ENCODING -1
SWIDTH 728 0
DWIDTH 8 0
BBX 8 10 0 -3
BITMAP
FF
72
42
72
0A
4A
72
1E
12
02
ENDCHAR
STARTCHAR dvNY_CA
ENCODING -1
SWIDTH 963 0
DWIDTH 11 0
BBX 11 7 0 0
BITMAP
FFE0
6040
2740
1C40
2440
E3C0
0040
ENDCHAR
STARTCHAR dvTT_GA
ENCODING -1
SWIDTH 510 0
DWIDTH 6 0
BBX 6 10 0 -3
BITMAP
FC
08
70
40
88
48
70
28
C8
08
ENDCHAR
STARTCHAR dvTTH_TTHA
ENCODING -1
SWIDTH 511 0
DWIDTH 6 0
BBX 6 11 0 -4
BITMAP
FC
08
70
88
88
70
30
48
88
48
70
ENDCHAR
STARTCHAR dvDD_GA
ENCODING -1
SWIDTH 541 0
DWIDTH 6 0
BBX 6 10 0 -3
BITMAP
FC
08
78
40
78
08
78
28
48
C8
ENDCHAR
STARTCHAR dvDDH_DDHA
ENCODING -1
SWIDTH 487 0
DWIDTH 5 0
BBX 6 10 0 -3
BITMAP
FC
70
40
58
68
70
50
68
48
70
ENDCHAR
STARTCHAR dvSHA_MatraVocalicR
ENCODING -1
SWIDTH 558 0
DWIDTH 6 0
BBX 6 10 0 -3
BITMAP
6C
98
58
68
98
08
08
10
10
1C
ENDCHAR
STARTCHAR dvT_KH_NA
ENCODING -1
SWIDTH 1341 0
DWIDTH 15 0
BBX 15 7 0 0
BITMAP
FFFE
0404
74C4
8D3C
8924
8484
6404
ENDCHAR
STARTCHAR dvT_S_NA
ENCODING -1
SWIDTH 1169 0
DWIDTH 13 0
BBX 13 7 0 0
BITMAP
FFF8
0410
7410
8FF0
8890
8410
6410
ENDCHAR
ENDFONT
